<svg width="23" height="26" viewBox="0 0 23 26" fill="none" xmlns="http://www.w3.org/2000/svg">
<path fill-rule="evenodd" clip-rule="evenodd" d="M16.3641 0.88501C16.8455 0.88501 17.2362 1.27571 17.2362 1.7571L17.2367 2.74292C18.9345 2.85932 20.3446 3.44087 21.3425 4.44092C22.4321 5.5351 23.0053 7.10835 22.9996 8.99555V19.6036C22.9996 23.478 20.5391 25.885 16.5798 25.885H6.74493C2.78565 25.885 0.325195 23.4443 0.325195 19.5153V8.99323C0.325195 5.33882 2.51944 2.99307 6.09806 2.74332L6.09877 1.7571C6.09877 1.27571 6.48947 0.88501 6.97086 0.88501C7.45226 0.88501 7.84295 1.27571 7.84295 1.7571L7.8426 2.72105H15.4914L15.492 1.7571C15.492 1.27571 15.8827 0.88501 16.3641 0.88501ZM21.2553 11.2385H2.06937V19.5153C2.06937 22.499 3.72983 24.1408 6.74493 24.1408H16.5798C19.5949 24.1408 21.2554 22.5292 21.2554 19.6036L21.2553 11.2385ZM16.8381 18.555C17.3195 18.555 17.7102 18.9457 17.7102 19.4271C17.7102 19.9085 17.3195 20.2992 16.8381 20.2992C16.3567 20.2992 15.9614 19.9085 15.9614 19.4271C15.9614 18.9457 16.3463 18.555 16.8277 18.555H16.8381ZM11.6783 18.555C12.1597 18.555 12.5504 18.9457 12.5504 19.4271C12.5504 19.9085 12.1597 20.2992 11.6783 20.2992C11.1969 20.2992 10.8015 19.9085 10.8015 19.4271C10.8015 18.9457 11.1864 18.555 11.6678 18.555H11.6783ZM6.50761 18.555C6.989 18.555 7.3797 18.9457 7.3797 19.4271C7.3797 19.9085 6.989 20.2992 6.50761 20.2992C6.02622 20.2992 5.62971 19.9085 5.62971 19.4271C5.62971 18.9457 6.01575 18.555 6.49714 18.555H6.50761ZM16.8381 14.0356C17.3195 14.0356 17.7102 14.4263 17.7102 14.9077C17.7102 15.3891 17.3195 15.7798 16.8381 15.7798C16.3567 15.7798 15.9614 15.3891 15.9614 14.9077C15.9614 14.4263 16.3463 14.0356 16.8277 14.0356H16.8381ZM11.6783 14.0356C12.1597 14.0356 12.5504 14.4263 12.5504 14.9077C12.5504 15.3891 12.1597 15.7798 11.6783 15.7798C11.1969 15.7798 10.8015 15.3891 10.8015 14.9077C10.8015 14.4263 11.1864 14.0356 11.6678 14.0356H11.6783ZM6.50761 14.0356C6.989 14.0356 7.3797 14.4263 7.3797 14.9077C7.3797 15.3891 6.989 15.7798 6.50761 15.7798C6.02622 15.7798 5.62971 15.3891 5.62971 14.9077C5.62971 14.4263 6.01575 14.0356 6.49714 14.0356H6.50761ZM15.4914 4.46523H7.8426L7.84295 5.58383C7.84295 6.06522 7.45226 6.45591 6.97086 6.45591C6.48947 6.45591 6.09877 6.06522 6.09877 5.58383L6.09815 4.49162C3.49325 4.71045 2.06937 6.28947 2.06937 8.99323V9.49427H21.2553L21.2554 8.99323C21.26 7.55719 20.8739 6.44091 20.1077 5.67348C19.435 4.99884 18.4517 4.59592 17.2372 4.49218L17.2362 5.58383C17.2362 6.06522 16.8455 6.45591 16.3641 6.45591C15.8827 6.45591 15.492 6.06522 15.492 5.58383L15.4914 4.46523Z" fill="#B9B9B9"/>
</svg>
