<svg width="23" height="26" viewBox="0 0 23 26" fill="none" xmlns="http://www.w3.org/2000/svg">
<path fill-rule="evenodd" clip-rule="evenodd" d="M16.367 0.224854C16.8484 0.224854 17.2391 0.615549 17.2391 1.09694L17.2396 2.08276C18.9374 2.19917 20.3475 2.78071 21.3455 3.78077C22.435 4.87495 23.0083 6.4482 23.0025 8.3354V18.9435C23.0025 22.8179 20.542 25.2249 16.5827 25.2249H6.74786C2.78858 25.2249 0.328125 22.7842 0.328125 18.8551V8.33307C0.328125 4.67866 2.52237 2.33291 6.10099 2.08316L6.1017 1.09694C6.1017 0.615549 6.4924 0.224854 6.97379 0.224854C7.45518 0.224854 7.84588 0.615549 7.84588 1.09694L7.84553 2.06089H15.4943L15.4949 1.09694C15.4949 0.615549 15.8856 0.224854 16.367 0.224854ZM21.2583 10.5783H2.0723V18.8551C2.0723 21.8388 3.73276 23.4807 6.74786 23.4807H16.5827C19.5978 23.4807 21.2583 21.8691 21.2583 18.9435L21.2583 10.5783ZM16.8411 17.8949C17.3225 17.8949 17.7132 18.2856 17.7132 18.767C17.7132 19.2484 17.3225 19.6391 16.8411 19.6391C16.3597 19.6391 15.9643 19.2484 15.9643 18.767C15.9643 18.2856 16.3492 17.8949 16.8306 17.8949H16.8411ZM11.6812 17.8949C12.1626 17.8949 12.5533 18.2856 12.5533 18.767C12.5533 19.2484 12.1626 19.6391 11.6812 19.6391C11.1998 19.6391 10.8045 19.2484 10.8045 18.767C10.8045 18.2856 11.1894 17.8949 11.6707 17.8949H11.6812ZM6.51054 17.8949C6.99193 17.8949 7.38263 18.2856 7.38263 18.767C7.38263 19.2484 6.99193 19.6391 6.51054 19.6391C6.02914 19.6391 5.63264 19.2484 5.63264 18.767C5.63264 18.2856 6.01868 17.8949 6.50007 17.8949H6.51054ZM16.8411 13.3755C17.3225 13.3755 17.7132 13.7662 17.7132 14.2476C17.7132 14.729 17.3225 15.1197 16.8411 15.1197C16.3597 15.1197 15.9643 14.729 15.9643 14.2476C15.9643 13.7662 16.3492 13.3755 16.8306 13.3755H16.8411ZM11.6812 13.3755C12.1626 13.3755 12.5533 13.7662 12.5533 14.2476C12.5533 14.729 12.1626 15.1197 11.6812 15.1197C11.1998 15.1197 10.8045 14.729 10.8045 14.2476C10.8045 13.7662 11.1894 13.3755 11.6707 13.3755H11.6812ZM6.51054 13.3755C6.99193 13.3755 7.38263 13.7662 7.38263 14.2476C7.38263 14.729 6.99193 15.1197 6.51054 15.1197C6.02914 15.1197 5.63264 14.729 5.63264 14.2476C5.63264 13.7662 6.01868 13.3755 6.50007 13.3755H6.51054ZM15.4943 3.80507H7.84553L7.84588 4.92367C7.84588 5.40506 7.45518 5.79576 6.97379 5.79576C6.4924 5.79576 6.1017 5.40506 6.1017 4.92367L6.10108 3.83147C3.49618 4.05029 2.0723 5.62931 2.0723 8.33307V8.83412H21.2583L21.2583 8.33307C21.2629 6.89703 20.8769 5.78076 20.1106 5.01332C19.4379 4.33868 18.4546 3.93577 17.2401 3.83203L17.2391 4.92367C17.2391 5.40506 16.8484 5.79576 16.367 5.79576C15.8856 5.79576 15.4949 5.40506 15.4949 4.92367L15.4943 3.80507Z" fill="#B9B9B9"/>
</svg>
