<svg width="55" height="54" viewBox="0 0 55 54" fill="none" xmlns="http://www.w3.org/2000/svg">
<path d="M27.559 17.4252L27.559 17.4252C29.4574 13.6491 29.6432 9.48677 29.469 6.84571L29.468 6.83183L29.4675 6.81793C29.4432 6.1784 29.2518 5.41533 28.9599 4.69017C28.6663 3.96079 28.3058 3.35624 28.0059 3.01255L28.0047 3.01118C27.6975 2.65791 27.2267 2.28362 26.6999 1.97483C26.1797 1.66987 25.6799 1.47277 25.3194 1.40463C24.4242 1.29844 22.4123 1.29882 20.9959 1.52419L20.983 1.52624L20.9701 1.52795L15.4841 2.25464L15.3527 2.27204L15.2213 2.25463L9.73866 1.52794L9.72885 1.52664L9.71906 1.52514C8.24046 1.29928 6.29079 1.29805 5.33079 1.40453C5.00014 1.47276 4.51797 1.6677 4.00557 1.97208C3.48305 2.28246 3.01175 2.65769 2.7054 3.01137L2.70226 3.015L2.70226 3.01499C2.40168 3.35866 2.04093 3.9636 1.73849 4.69836C1.44093 5.4213 1.23291 6.18993 1.18023 6.84328C1.0615 9.50217 1.25131 13.6623 3.09001 17.4358L3.09023 17.4363L3.09026 17.4363L3.09206 17.4401L3.09721 17.4507L3.11323 17.4846C3.12636 17.5128 3.14428 17.5519 3.1663 17.6018C3.21033 17.7015 3.2708 17.8442 3.3421 18.0275C3.48467 18.3939 3.67089 18.9232 3.85588 19.5961C4.2257 20.9414 4.59199 22.8658 4.59199 25.2127C4.59199 26.0874 4.51777 27.1932 4.43747 28.3655L4.42855 28.4956C4.34968 29.6459 4.26528 30.877 4.22784 32.1004C4.18894 33.3713 4.20185 34.6065 4.31937 35.7022C4.438 36.8081 4.65623 37.6985 4.98224 38.326M27.559 17.4252L4.98446 38.3303C4.98372 38.3289 4.98298 38.3274 4.98224 38.326M27.559 17.4252L27.5552 17.4329L28.4525 17.8744C27.5552 17.4329 27.555 17.4332 27.5549 17.4335L27.5546 17.4342L27.5539 17.4357L27.552 17.4394L27.5469 17.4501L27.5308 17.484C27.5177 17.5122 27.4997 17.5513 27.4777 17.6012C27.4336 17.7009 27.373 17.8436 27.3016 18.0268C27.1588 18.3931 26.9724 18.9223 26.7872 19.5952C26.4169 20.9403 26.0501 22.8648 26.0501 25.2127C26.0501 25.6715 26.0559 26.1838 26.0621 26.7354C26.0791 28.2409 26.0993 30.0389 26.0145 31.8411C25.8975 34.3265 25.5846 36.5934 24.9036 37.963C24.9035 37.9626 24.9017 37.9643 24.8979 37.9677C24.8684 37.9952 24.7177 38.1353 24.2698 38.2763C23.7995 38.4243 23.1856 38.5132 22.554 38.5199C21.919 38.5267 21.3344 38.4499 20.9143 38.3133C20.592 38.2085 20.4895 38.1127 20.4668 38.0912C20.1194 36.8623 19.8593 35.1446 19.6244 33.1952C19.5192 32.3229 19.4162 31.3751 19.312 30.4176C19.1888 29.285 19.0642 28.1387 18.9329 27.0879C18.6856 25.1091 18.3883 23.2194 17.9532 21.8137C17.7374 21.1166 17.4647 20.4591 17.0941 19.9593C16.7198 19.4545 16.1451 18.9881 15.3513 18.9963C14.5761 18.9879 13.9854 19.4257 13.5765 19.9065C13.1646 20.3906 12.8304 21.0356 12.5476 21.733C11.9787 23.1364 11.5127 25.0243 11.1038 27.0095C10.7885 28.5399 10.4987 30.1725 10.2209 31.7374C10.1367 32.2118 10.0536 32.68 9.97118 33.1373C9.61645 35.1061 9.27769 36.857 8.91778 38.1165C8.90954 38.1258 8.82895 38.2504 8.47523 38.3998C8.09947 38.5585 7.57979 38.6702 7.01641 38.7033C6.45404 38.7363 5.91548 38.6869 5.50798 38.5734C5.12612 38.4671 5.00638 38.3488 4.98546 38.3282C4.98222 38.325 4.98135 38.3241 4.98224 38.326M27.559 17.4252L4.98224 38.326" fill="#0FE3AF" stroke="#0152A8" stroke-width="2"/>
<path d="M22.8944 6.66909L22.762 14.6177" stroke="#0152A8" stroke-width="2" stroke-linecap="round" stroke-linejoin="round"/>
</svg>
