<svg width="54" height="55" viewBox="0 0 54 55" fill="none" xmlns="http://www.w3.org/2000/svg">
<path d="M32.6108 6.71998C28.0553 6.49845 25.5455 10.6349 24.8601 12.7309L25.1765 35.4294C25.0183 38.7775 26.347 45.2917 32.9272 44.5641C39.5074 43.8365 40.7833 38.1711 40.5988 35.4294C41.5083 35.2316 45.9768 33.0567 46.8073 26.5714C47.4716 21.3832 42.9451 18.4516 40.5988 17.6344V16.8435V14.194C40.5988 10.9118 38.3052 6.99689 32.6108 6.71998Z" fill="#0FE3AF"/>
<path d="M24.8188 35.0035V16.1177" stroke="#0152A8" stroke-width="2" stroke-linecap="round" stroke-linejoin="round"/>
<path d="M16.9507 28.7085C18.507 28.7085 20.0284 29.17 21.3225 30.0347C22.6166 30.8993 23.6252 32.1283 24.2208 33.5662C24.8164 35.0041 24.9722 36.5863 24.6686 38.1128C24.3649 39.6393 23.6155 41.0414 22.515 42.1419C21.4144 43.2424 20.0123 43.9919 18.4858 44.2955C16.9594 44.5991 15.3772 44.4433 13.9393 43.8477C12.5014 43.2521 11.2724 42.2435 10.4077 40.9495C9.54306 39.6554 9.08154 38.134 9.08154 36.5776V35.2595" stroke="#0152A8" stroke-width="2" stroke-linecap="round" stroke-linejoin="round"/>
<path d="M32.688 28.7085C31.1316 28.7085 29.6102 29.17 28.3161 30.0347C27.0221 30.8993 26.0134 32.1283 25.4179 33.5662C24.8223 35.0041 24.6664 36.5863 24.9701 38.1128C25.2737 39.6393 26.0231 41.0414 27.1237 42.1419C28.2242 43.2424 29.6263 43.9919 31.1528 44.2955C32.6792 44.5991 34.2615 44.4433 35.6993 43.8477C37.1372 43.2521 38.3662 42.2435 39.2309 40.9495C40.0956 39.6554 40.5571 38.134 40.5571 36.5776V35.2595" stroke="#0152A8" stroke-width="2" stroke-linecap="round" stroke-linejoin="round"/>
<path d="M13.8024 35.79H12.2285C9.99652 35.796 7.83453 35.0112 6.12613 33.5747C4.41774 32.1383 3.2734 30.1431 2.89614 27.9432C2.51887 25.7433 2.93308 23.4808 4.06526 21.5573C5.19745 19.6337 6.97441 18.1733 9.0809 17.4353V14.5434C9.0809 12.4564 9.90997 10.4549 11.3857 8.97913C12.8615 7.50338 14.863 6.67432 16.95 6.67432C19.037 6.67432 21.0386 7.50338 22.5143 8.97913C23.9901 10.4549 24.8191 12.4564 24.8191 14.5434V36.5769" stroke="#0152A8" stroke-width="2" stroke-linecap="round" stroke-linejoin="round"/>
<path d="M35.8356 35.79H37.4094C39.6415 35.796 41.8034 35.0112 43.5118 33.5747C45.2202 32.1383 46.3646 30.1431 46.7418 27.9432C47.1191 25.7433 46.7049 23.4808 45.5727 21.5573C44.4405 19.6337 42.6636 18.1733 40.5571 17.4353V14.5434C40.5571 12.4564 39.728 10.4549 38.2523 8.97913C36.7765 7.50338 34.775 6.67432 32.688 6.67432C30.6009 6.67432 28.5994 7.50338 27.1237 8.97913C25.6479 10.4549 24.8188 12.4564 24.8188 14.5434" stroke="#0152A8" stroke-width="2" stroke-linecap="round" stroke-linejoin="round"/>
<path d="M16.9503 16.9045V18.4784C16.9503 19.9393 16.3699 21.3404 15.3369 22.3734C14.3039 23.4064 12.9028 23.9867 11.4419 23.9867" stroke="#0152A8" stroke-width="2" stroke-linecap="round" stroke-linejoin="round"/>
<path d="M32.689 16.9048V18.4786C32.689 19.9395 33.2693 21.3406 34.3023 22.3736C35.3354 23.4066 36.7364 23.987 38.1973 23.987" stroke="#0152A8" stroke-width="2" stroke-linecap="round" stroke-linejoin="round"/>
</svg>
