<svg width="54" height="54" viewBox="0 0 54 54" fill="none" xmlns="http://www.w3.org/2000/svg">
<path d="M17.1948 16.6323L6.489 27.3716C2.6669 31.1937 2.66383 37.3875 6.48213 41.2058C10.3004 45.0241 16.4942 45.021 20.3163 41.1989L30.4495 30.9278L23.3016 23.3637L17.1948 16.6323Z" fill="#0FE3AF" stroke="#0152A8" stroke-width="2" stroke-linecap="round" stroke-linejoin="round"/>
<path d="M27.2201 6.64021L6.48913 27.3712C2.66703 31.1933 2.66395 37.3871 6.48225 41.2054C10.3006 45.0237 16.4943 45.0206 20.3164 41.1985L41.0474 20.4675C44.8695 16.6454 44.8726 10.4516 41.0543 6.63333C37.236 2.81503 31.0422 2.81811 27.2201 6.64021Z" stroke="#0152A8" stroke-width="2" stroke-linecap="round" stroke-linejoin="round"/>
<path d="M16.8496 17.0215L30.6769 30.8487" stroke="#0152A8" stroke-width="2" stroke-linecap="round" stroke-linejoin="round"/>
<path d="M30.6985 20.4989L35.9701 15.4001" stroke="#0152A8" stroke-width="2" stroke-linecap="round" stroke-linejoin="round"/>
</svg>
