<svg width="56" height="56" viewBox="0 0 56 56" fill="none" xmlns="http://www.w3.org/2000/svg">
<path d="M23.5886 39.9785C23.5886 39.9785 1.83179 27.7947 1.83179 13.0001C1.83179 10.3847 2.73795 7.85004 4.39609 5.82743C6.05424 3.80481 8.36194 2.41917 10.9266 1.90624C13.4912 1.39332 16.1543 1.7848 18.4628 3.01407C20.7714 4.24335 22.5827 6.23449 23.5886 8.64873C24.5945 6.23449 26.4059 4.24335 28.7144 3.01407C31.0229 1.7848 33.686 1.39332 36.2507 1.90624C38.8153 2.41917 41.123 3.80481 42.7811 5.82743C44.4393 7.85004 45.3454 10.3847 45.3454 13.0001C45.3454 27.7947 23.5886 39.9785 23.5886 39.9785Z" fill="#0FE3AF" stroke="#0152A8" stroke-width="2" stroke-linecap="round" stroke-linejoin="round"/>
<path d="M2.70483 21.0459H11.419L14.9047 15.8174L21.8761 26.2744L25.3617 21.0459H30.5902" stroke="#0152A8" stroke-width="2" stroke-linecap="round" stroke-linejoin="round"/>
</svg>
