<svg width="73" height="52" viewBox="0 0 73 52" fill="none" xmlns="http://www.w3.org/2000/svg">
<path d="M44.846 26.9629C44.857 27.1061 44.7358 27.1723 44.6587 27.2494C41.9475 29.9606 39.2363 32.6718 36.5361 35.383C36.3487 35.5704 36.2385 35.6034 36.0291 35.394C33.3179 32.6718 30.5957 29.9496 27.8845 27.2384C27.7853 27.1392 27.6531 27.04 27.7964 26.8857C27.8956 26.7976 27.9947 26.7204 28.0939 26.6212C30.728 23.9872 33.373 21.3531 35.9961 18.7081C36.2385 18.4656 36.3598 18.4876 36.5802 18.7191C38.3215 20.4714 40.0739 22.2238 41.8262 23.9651C42.8181 24.9681 43.799 26.004 44.846 26.9629ZM35.8859 27.9548C35.6434 28.2303 35.4781 28.5499 35.3789 28.9026C35.1585 29.3324 35.1034 29.8173 34.8829 30.2582C34.7066 29.4316 34.5854 28.616 34.9491 27.8115C35.0813 27.525 35.0593 27.2494 34.927 26.9739C34.8168 26.7314 34.6515 26.522 34.4862 26.3126C34.1445 25.8828 33.9021 25.3979 33.8029 24.8578C33.6596 24.0864 34.0563 23.6125 34.8278 23.6014C35.434 23.5904 36.0401 23.6896 36.6573 23.6565C36.5581 23.6676 36.47 23.6565 36.3818 23.6345C35.8307 23.5463 35.2907 23.4251 34.7397 23.4361C34.0674 23.4471 33.6375 23.8439 33.5604 24.5162C33.5053 25.0121 33.6265 25.475 33.88 25.9048C34.0784 26.2575 34.3098 26.5992 34.5192 26.9519C34.6625 27.1833 34.7286 27.4368 34.6074 27.7123C34.2217 28.594 34.398 29.4867 34.6184 30.3684C34.6515 30.5227 34.7176 30.71 34.894 30.71C35.1034 30.71 35.1254 30.4896 35.1585 30.3353C35.2466 29.8614 35.3679 29.3985 35.5001 28.9356C35.6434 28.6271 35.7867 28.3295 35.9189 28.0209C35.952 27.9768 36.0291 27.9438 35.952 27.8886C35.9189 27.8446 35.8969 27.9107 35.8859 27.9548ZM36.8447 30.0708C36.7896 30.3574 36.7235 30.6329 36.6794 30.9194C36.6573 31.0517 36.6684 31.195 36.8116 31.2611C36.9549 31.3162 37.0761 31.2391 37.1643 31.1399C37.3076 30.9856 37.4508 30.8423 37.5611 30.677C38.057 29.9276 38.2223 29.0789 38.2774 28.2083C38.3215 27.4368 38.4317 26.6984 38.8946 26.0481C39.0048 25.8938 39.082 25.7065 39.1261 25.5191C39.3024 24.7917 39.4016 24.0753 38.9387 23.4031C38.7954 23.1386 38.553 23.0283 38.2885 22.9953C37.6603 22.8961 37.0431 22.9843 36.481 23.2818C36.7124 23.2377 36.9439 23.1606 37.1753 23.1165C37.7815 23.0063 38.3876 22.9622 38.8505 23.5022C38.9718 23.7668 39.0489 24.0423 39.071 24.3288C39.104 24.9901 38.9056 25.5852 38.5199 26.1253C38.1452 26.6543 37.9688 27.2274 37.9799 27.8886C37.9909 28.5168 37.8917 29.134 37.7154 29.7402C37.5941 30.159 37.4398 30.5668 37.1312 30.8864C37.0761 30.9415 37.01 31.0297 36.9218 30.9746C36.8557 30.9415 36.8667 30.8423 36.8778 30.7762C36.8998 30.5337 36.9329 30.3023 36.9659 30.0598C37.0982 29.4316 37.1202 28.8034 36.8447 28.2083C36.999 28.8365 36.9108 29.4536 36.8447 30.0708Z" fill="#6C6F71"/>
<path d="M27.8181 9.53842C27.6418 9.36208 27.763 9.25187 27.8953 9.13064C30.4742 6.56272 33.0421 3.98378 35.6211 1.41586C35.8305 1.20646 36.0178 0.842767 36.2823 0.842767C36.5469 0.831746 36.7342 1.20646 36.9436 1.41586C39.4564 3.91765 41.9582 6.43047 44.46 8.94328C44.6033 9.08655 44.8347 9.18574 44.8347 9.43923C44.7466 9.51638 44.6474 9.59352 44.5702 9.68169C41.8921 12.3598 39.214 15.0269 36.5469 17.7051C36.3264 17.9255 36.2162 17.9034 36.0178 17.694C34.7504 16.4046 33.472 15.1261 32.1935 13.8587C31.1685 12.8447 30.1436 11.8308 29.1186 10.8058C28.9754 10.6405 28.8321 10.4532 28.6337 10.343C28.4794 10.1115 28.281 9.91314 28.0496 9.75884C27.9945 9.65965 27.9173 9.59352 27.8181 9.53842ZM35.6431 11.423C35.6982 11.4781 35.7533 11.5443 35.8635 11.4892C35.7974 11.4451 35.7423 11.412 35.6872 11.3789C35.5439 11.2357 35.4007 11.0924 35.2464 10.9381C34.8386 10.4091 34.5851 9.81395 34.4749 9.1637C34.3536 8.42529 34.3536 7.69789 34.6622 6.99254C34.8827 6.48557 35.4227 6.188 35.9186 6.26515C36.4697 6.35332 36.8554 6.78314 36.9105 7.35624C36.9326 7.5436 36.8995 7.66483 36.7011 7.74198C36.1501 7.95138 35.7754 8.3812 35.4558 8.85511C35.1031 9.38412 35.1692 10.0013 35.6321 10.4311C36.1611 10.9161 36.8665 11.1255 37.4726 11.5002C37.7481 11.6655 38.0347 11.423 37.9024 11.1365C37.7151 10.6956 37.682 10.2548 37.671 9.80293C37.671 9.61557 37.5608 9.48331 37.3514 9.47229C37.142 9.46127 37.0097 9.54944 36.9436 9.75884C36.8554 10.0564 36.9326 10.3099 37.1199 10.5303C37.2412 10.6736 37.3845 10.8058 37.5057 10.9601C37.5608 11.0263 37.5828 11.1144 37.5277 11.1916C37.4836 11.2577 37.4175 11.2246 37.3624 11.1916C36.8995 10.8499 36.3264 10.6846 35.8856 10.2879C35.6652 10.0895 35.5329 9.86905 35.555 9.56046C35.599 8.98736 36.2823 8.23793 36.8554 8.12772C36.9216 8.28201 36.8003 8.44733 36.8444 8.64571C37.0428 8.24895 37.0869 7.85219 37.0979 7.45543C37.1199 6.66191 36.6791 6.07779 35.9407 5.9235C35.2794 5.78022 34.519 6.188 34.2324 6.86029C33.6703 8.1718 34.0671 10.0674 35.1141 11.0373C35.2904 11.2026 35.4447 11.3349 35.6431 11.423ZM38.3764 12.9109C38.3653 13.3848 38.1339 13.7044 37.671 13.8477C37.2412 13.9799 36.9326 13.8587 36.602 13.3958C36.2162 12.8668 35.7533 12.4039 35.3015 11.941C34.0781 10.6736 33.6152 9.15268 33.8026 7.43339C33.99 5.70307 35.4888 4.86547 37.0759 5.59286C37.153 5.62593 37.2302 5.72512 37.3404 5.69205C37.3404 5.57082 37.2632 5.54878 37.1971 5.51572C35.7203 4.58994 34.001 5.18508 33.5271 6.87131C33.0311 8.64571 33.3948 10.2879 34.5631 11.7316C35.1361 12.448 35.8746 13.0101 36.4477 13.7264C36.8003 14.1673 37.2963 14.2665 37.7812 14.0571C38.2882 13.8477 38.5306 13.4178 38.4755 12.8448C38.4976 12.5141 38.4315 12.1945 38.3764 11.8749C38.3653 12.2165 38.3323 12.5582 38.3764 12.9109Z" fill="#6C6F71"/>
<path d="M29.0971 10.8058C30.122 11.8198 31.158 12.8337 32.1719 13.8587C33.4504 15.1371 34.7288 16.4045 35.9963 17.694C36.2057 17.9034 36.3159 17.9255 36.5253 17.705C39.1924 15.0269 41.8705 12.3488 44.5487 9.68167C44.6368 9.59351 44.725 9.52738 44.8132 9.43921C45.0005 9.62657 45.3091 9.46125 45.4854 9.73678C45.8491 10.3209 46.4884 10.6515 46.9072 11.1916C47.2047 11.5773 47.6456 11.8528 48.0313 12.1724C48.0534 12.1835 48.0974 12.1835 48.0974 12.1945C48.2077 12.7455 48.8689 12.8778 49.0122 13.3958L49.0012 13.4178C48.902 13.3958 48.8359 13.3186 48.7697 13.2525C47.6566 12.1504 46.5435 11.0483 45.4524 9.93516C45.1879 9.67065 45.0556 9.72576 44.8242 9.9572C43.4465 11.3569 42.0579 12.7455 40.6692 14.1342C39.4018 15.4016 38.1344 16.6801 36.8669 17.9365C36.6575 18.1459 36.6465 18.2892 36.8669 18.4986C37.5502 19.1488 38.2115 19.8101 38.8728 20.4713C40.8676 22.4662 42.8514 24.461 44.8352 26.4558C45.1548 26.7754 45.1769 26.7644 45.4965 26.4448C47.0064 24.9239 48.5273 23.414 50.0372 21.8931C51.1944 20.7358 52.3406 19.5676 53.5088 18.4214C53.6741 18.2561 53.6741 18.1459 53.5088 17.9806C53.2553 17.7271 52.9578 17.5067 52.7814 17.187L52.8035 17.176C53.1451 17.3524 53.4206 17.5948 53.6631 17.8814C53.9276 18.212 53.7954 18.6308 53.4096 18.7961C53.1121 18.9284 52.9578 19.248 52.7373 19.4684C51.6903 20.5264 50.6103 21.5624 49.5743 22.6425C48.935 23.3148 48.2297 23.9209 47.5795 24.5932C47.0725 25.1222 46.5765 25.6513 46.0034 26.1031C45.9814 26.1141 45.9594 26.1362 45.9594 26.1582C46.0255 26.4999 45.6618 26.4558 45.5406 26.6321C45.3752 26.8746 45.1107 26.9187 44.8572 26.9848C43.8102 26.026 42.8294 24.99 41.8264 23.9871C40.0741 22.2457 38.3217 20.4934 36.5804 18.741C36.36 18.5096 36.2387 18.4875 35.9963 18.73C33.3732 21.3751 30.7282 24.0091 28.0941 26.6432C28.006 26.7313 27.8958 26.8195 27.7966 26.9077C27.1133 26.9077 26.8377 26.3125 26.3859 25.9709C26.0442 25.7174 25.8568 25.3206 25.4601 25.1663C25.2948 25.1002 25.3829 24.8798 25.2727 24.8467C24.8539 24.6924 24.7217 24.2406 24.38 24.0422C24.1706 23.9209 24.1486 23.7666 24.1045 23.5903C24.1155 23.5793 24.1265 23.5683 24.1265 23.5683C24.1816 23.6013 24.2588 23.6344 24.3029 23.6785C25.2617 24.6263 26.2316 25.5631 27.1684 26.5329C27.3998 26.7754 27.5321 26.7423 27.7525 26.5329C28.8105 25.4639 29.8796 24.3948 30.9486 23.3368C32.5467 21.7388 34.1337 20.1517 35.7318 18.5537C35.875 18.4104 36.0514 18.2781 35.8199 18.0467C34.9603 17.187 34.1006 16.3274 33.252 15.4678C31.7972 14.013 30.3424 12.5582 28.8766 11.1034C28.8105 11.0373 28.7334 10.9711 28.7223 10.872C28.7334 10.8609 28.7444 10.8499 28.7554 10.8389C28.8546 10.8058 28.9648 10.9491 29.0971 10.8058Z" fill="#F6F2DF"/>
<path d="M46.8409 43.9685C46.2898 43.9685 45.7278 43.9574 45.1767 43.9685C44.9453 43.9795 44.835 43.9023 44.8681 43.6599C44.8791 43.5717 44.8791 43.4946 44.8681 43.4064C44.824 43.1419 44.9453 43.0758 45.1877 43.0868C46.2347 43.0978 47.2817 43.0868 48.3398 43.0868C48.6814 43.0868 48.968 43.0096 49.0672 42.6239C49.1663 42.2271 48.9239 41.9296 48.472 41.9185C47.7226 41.9075 46.9731 41.9296 46.2237 41.9075C45.1657 41.8855 44.5485 41.0148 44.8791 40.056C45.0555 39.538 45.5184 39.2073 46.1796 39.1963C47.2597 39.1743 48.3508 39.1963 49.4309 39.1853C49.6292 39.1853 49.6733 39.2514 49.6733 39.4388C49.6954 40.067 49.7064 40.067 49.0672 40.067C48.1855 40.067 47.3038 40.067 46.4221 40.067C45.9151 40.067 45.7057 40.2323 45.7057 40.618C45.7057 40.9928 45.9151 41.1471 46.4 41.1471C47.0944 41.1471 47.7997 41.125 48.4941 41.1581C49.5631 41.2022 50.0591 41.8634 49.8607 42.8994C49.7284 43.5386 49.2435 43.9244 48.4941 43.9464C47.954 43.9795 47.3919 43.9685 46.8409 43.9685Z" fill="#6C6F71"/>
<path d="M41.1644 43.9467C40.8778 43.9467 40.5803 43.9798 40.2937 43.9467C39.0814 43.7924 38.2658 42.7675 38.2879 41.467C38.3099 40.2216 39.1475 39.3068 40.3819 39.2187C40.977 39.1746 41.5832 39.1525 42.1894 39.2517C43.4458 39.4501 44.1621 40.42 44.074 41.7756C43.9968 42.9879 43.071 43.9137 41.8808 43.9578C41.6383 43.9688 41.3958 43.9578 41.1534 43.9578C41.1644 43.9578 41.1644 43.9577 41.1644 43.9467ZM41.2085 43.0981C41.4069 43.0981 41.5942 43.0981 41.7926 43.0981C42.6192 43.065 43.2033 42.4589 43.2143 41.6213C43.2253 40.7506 42.6743 40.1334 41.8146 40.0893C41.4179 40.0673 41.0211 40.0673 40.6244 40.0893C39.7427 40.1224 39.1585 40.7506 39.1806 41.6103C39.2026 42.4809 39.7978 43.0761 40.6684 43.0981C40.8448 43.0981 41.0211 43.0981 41.2085 43.0981Z" fill="#6C6F71"/>
<path d="M6.85643 41.5655C6.85643 40.8712 6.85643 40.1658 6.85643 39.4715C6.85643 39.3392 6.83439 39.196 7.04379 39.207C8.03569 39.24 9.02759 39.1298 10.0085 39.2621C11.2318 39.4274 11.9702 40.3973 11.9151 41.6757C11.86 42.9321 11.0004 43.902 9.78805 43.9681C8.88432 44.0122 7.98059 43.9791 7.07686 43.9901C6.86746 43.9901 6.84541 43.8909 6.84541 43.7146C6.85643 42.9872 6.85643 42.2708 6.85643 41.5655ZM7.71608 41.5655C7.71608 41.9733 7.7271 42.3811 7.71608 42.7888C7.70506 43.0203 7.77119 43.1084 8.01365 43.0974C8.53164 43.0864 9.04964 43.0974 9.56763 43.0864C10.4273 43.0754 11.0224 42.4692 11.0445 41.5875C11.0665 40.7609 10.5044 40.1327 9.66682 40.0776C9.10474 40.0446 8.53164 40.0776 7.96957 40.0666C7.78221 40.0666 7.71608 40.1438 7.7271 40.3201C7.7271 40.7389 7.71608 41.1577 7.71608 41.5655Z" fill="#6C6F71"/>
<path d="M50.7424 41.5652C50.7424 40.8709 50.7534 40.1656 50.7424 39.4712C50.7424 39.2618 50.7975 39.1957 51.0069 39.2067C52.0539 39.2177 53.1009 39.1957 54.159 39.2177C55.228 39.2398 55.8452 39.9121 55.8232 40.9811C55.8011 42.0061 55.1398 42.6563 54.0928 42.6563C53.5528 42.6563 53.0018 42.6453 52.4617 42.6674C52.2193 42.6784 52.1311 42.6012 52.1641 42.3698C52.1752 42.2816 52.1752 42.2045 52.1641 42.1163C52.1311 41.8849 52.2082 41.7967 52.4617 41.8077C52.9797 41.8297 53.4977 41.8187 54.0157 41.8187C54.6219 41.8187 54.9635 41.5101 54.9635 40.9811C54.9635 40.408 54.6439 40.1105 54.0157 40.0994C53.3214 40.0884 52.616 40.1105 51.9217 40.0884C51.6792 40.0884 51.6131 40.1766 51.6131 40.408C51.6241 41.4771 51.6021 42.5571 51.6241 43.6262C51.6351 43.9568 51.5029 44.0119 51.2274 43.9789C50.9959 43.9568 50.7204 44.0781 50.7424 43.6372C50.7645 42.9429 50.7424 42.2596 50.7424 41.5652Z" fill="#6C6F71"/>
<path d="M66.0724 41.974C65.8189 41.5222 65.5544 41.0813 65.3009 40.6295C65.1797 40.398 65.1025 40.4641 64.9923 40.6515C64.4413 41.5993 63.8572 42.5251 63.3281 43.4839C63.1187 43.8697 62.8763 44.046 62.4575 43.9689C62.3473 43.9468 62.226 43.9689 62.0276 43.9689C62.3693 43.3958 62.6889 42.8778 62.9975 42.3488C63.5596 41.412 64.1217 40.4641 64.6948 39.5273C65.0144 39.0094 65.345 38.9983 65.6646 39.5163C66.5022 40.905 67.3508 42.3047 68.1885 43.6933C68.2325 43.7595 68.2987 43.8256 68.2656 43.9578C67.9901 43.9578 67.7035 43.9578 67.417 43.9578C67.2627 43.9578 67.1966 43.8476 67.1635 43.7374C66.8659 42.8447 66.2267 42.6353 65.367 42.7676C65.0915 42.8116 64.816 42.7676 64.5405 42.7676C64.3751 42.7676 64.3641 42.7014 64.4302 42.5692C64.5956 42.2385 64.7719 41.952 65.2458 42.0402C65.4883 42.0842 65.7528 42.0402 66.0063 42.0291C66.0393 42.0512 66.0724 42.0622 66.0944 42.0291C66.0944 42.0291 66.0724 41.9961 66.0724 41.974Z" fill="#6C6F71"/>
<path d="M6.1507 43.9684C5.87517 43.9684 5.59964 43.9684 5.3131 43.9684C5.1588 43.9684 5.09267 43.8582 5.05961 43.748C4.77306 42.8773 4.14486 42.6459 3.30725 42.7781C3.03173 42.8222 2.7562 42.7892 2.48067 42.7781C2.40352 42.7781 2.29331 42.8222 2.30433 42.6789C2.31535 42.4365 2.72313 42.0618 2.97662 42.0618C3.25215 42.0618 3.52768 42.0618 3.8032 42.0618C3.93546 42.0618 4.03465 42.0287 3.94648 41.8744C3.67095 41.4005 3.3844 40.9266 3.06479 40.3976C2.8113 40.8164 2.59088 41.1691 2.38148 41.5328C1.96268 42.2491 1.54388 42.9655 1.11405 43.6819C0.9818 43.9133 0.28747 44.1007 0.0670483 43.9574C-0.0872472 43.8582 0.0670482 43.77 0.111133 43.6929C0.607082 42.8663 1.10303 42.0397 1.59898 41.2131C1.96268 40.618 2.30433 40.0118 2.67905 39.4167C2.91049 39.042 3.28521 39.053 3.51665 39.4277C4.38732 40.8605 5.24697 42.2932 6.10662 43.737C6.13968 43.7921 6.19478 43.8472 6.1507 43.9684Z" fill="#6C6F71"/>
<path d="M23.8837 43.9249C24.4127 43.0432 24.9197 42.1836 25.4377 41.3349C25.8124 40.7067 26.1871 40.0675 26.5839 39.4503C26.8374 39.0536 27.179 39.0536 27.4435 39.4393C27.4876 39.5054 27.5317 39.5826 27.5758 39.6597C28.4244 41.0704 29.2731 42.4922 30.1547 43.9359C29.8131 44.0131 29.4935 43.98 29.1849 43.969C29.0636 43.969 29.0196 43.8367 28.9865 43.7375C28.711 42.933 28.1379 42.6575 27.3223 42.8007C27.0358 42.8448 26.7492 42.8007 26.4516 42.8118C26.2533 42.8118 26.2092 42.7787 26.2974 42.5693C26.4627 42.1615 26.7382 42.0403 27.168 42.0734C27.3995 42.0954 27.7521 42.2056 27.8734 41.9962C27.9726 41.8199 27.686 41.5884 27.5758 41.379C27.4546 41.1476 27.2893 40.9272 27.168 40.6957C27.0468 40.4422 26.9586 40.4532 26.8264 40.6957C26.3084 41.5774 25.7353 42.437 25.2834 43.3518C24.9528 43.9469 24.534 44.0792 23.8837 43.9249Z" fill="#6C6F71"/>
<path d="M42.9279 49.181C42.9279 48.7071 42.9279 48.2442 42.9279 47.7703C42.9279 47.583 42.8618 47.3625 43.1043 47.2744C43.3467 47.1752 43.5231 47.3074 43.6774 47.4727C44.3717 48.156 45.066 48.8394 45.7603 49.5227C45.8706 49.6329 45.9697 49.8643 46.1351 49.7982C46.3004 49.7321 46.2012 49.4896 46.2012 49.3353C46.2122 48.7291 46.2122 48.134 46.2012 47.5278C46.2012 47.3184 46.2563 47.2193 46.4877 47.2413C46.6861 47.2633 46.8735 47.2193 46.8625 47.5278C46.8514 48.5859 46.8625 49.6549 46.8625 50.7129C46.8625 50.8893 46.8294 51.0656 46.642 51.1317C46.4547 51.1979 46.2894 51.1317 46.1571 50.9885C45.4297 50.2501 44.7023 49.5227 43.9639 48.7843C43.8757 48.6961 43.8206 48.5638 43.6774 48.6189C43.5341 48.674 43.5782 48.8173 43.5782 48.9385C43.5782 49.5667 43.5671 50.195 43.5892 50.8232C43.6002 51.0987 43.479 51.1428 43.2365 51.1317C43.0051 51.1207 42.8838 51.0877 42.8949 50.8011C42.9169 50.2721 42.9059 49.7431 42.9059 49.2141C42.9169 49.181 42.9279 49.181 42.9279 49.181Z" fill="#F6C132"/>
<path d="M20.5333 49.1038C20.5333 49.5887 20.5333 50.0626 20.5333 50.5476C20.5333 50.757 20.5774 51.0215 20.3349 51.1206C20.0704 51.2309 19.883 51.0435 19.7177 50.8672C19.0234 50.1618 18.3291 49.4675 17.6457 48.7621C17.5686 48.674 17.4914 48.5417 17.3592 48.5968C17.2159 48.6519 17.271 48.8062 17.26 48.9164C17.26 49.5336 17.249 50.1508 17.26 50.757C17.271 51.0325 17.1608 51.1096 16.8963 51.1096C16.6098 51.1096 16.5657 50.9884 16.5657 50.7349C16.5767 49.743 16.5657 48.7621 16.5767 47.7702C16.5767 47.5719 16.5547 47.3404 16.8081 47.2633C17.0396 47.1861 17.1939 47.3294 17.3482 47.4727C18.0976 48.2111 18.8581 48.9605 19.6075 49.6989C19.6626 49.754 19.7067 49.8532 19.8059 49.8091C19.9051 49.7651 19.872 49.6659 19.872 49.5887C19.872 48.9164 19.894 48.2331 19.861 47.5608C19.8389 47.1751 20.1034 47.2412 20.3129 47.2302C20.5663 47.2192 20.5333 47.4065 20.5333 47.5829C20.5333 48.0898 20.5333 48.5968 20.5333 49.1038Z" fill="#F6C132"/>
<path d="M33.3619 49.1815C33.3619 48.6415 33.373 48.0904 33.3619 47.5504C33.3619 47.352 33.406 47.2638 33.6264 47.2748C34.3208 47.2859 35.0261 47.2969 35.7205 47.2859C36.7234 47.2748 37.7153 48.2447 37.3516 49.6885C37.1201 50.6142 36.536 51.0551 35.5772 51.0881C34.949 51.1102 34.3208 51.0881 33.6926 51.0992C33.4501 51.0992 33.3509 51.033 33.3509 50.7796C33.373 50.2395 33.3619 49.7105 33.3619 49.1815ZM34.0342 49.1594C34.0342 49.4791 34.0342 49.8097 34.0342 50.1293C34.0342 50.3277 34.1224 50.4159 34.3208 50.4048C34.7286 50.3938 35.1363 50.4159 35.5441 50.4048C36.2495 50.3828 36.7454 49.8428 36.7454 49.1374C36.7344 48.4651 36.2495 47.9692 35.5441 47.9581C35.1363 47.9471 34.7286 47.9692 34.3208 47.9471C34.0893 47.9361 34.0342 48.0463 34.0453 48.2557C34.0342 48.5533 34.0342 48.8619 34.0342 49.1594Z" fill="#F6C132"/>
<path d="M19.0789 39.207C19.4536 39.207 19.7291 39.2181 20.0046 39.207C20.192 39.196 20.3132 39.2621 20.4345 39.4054C20.8863 39.9675 21.3712 40.5075 21.8231 41.0696C22.0105 41.3011 22.1207 41.3562 22.3191 41.0806C22.7268 40.5626 23.1787 40.0777 23.5865 39.5487C23.7959 39.2842 24.0053 39.1409 24.3469 39.196C24.5343 39.2181 24.7217 39.196 24.92 39.196C24.9421 39.3613 24.8209 39.4385 24.7547 39.5156C24.0604 40.3312 23.3661 41.1468 22.6607 41.9513C22.5395 42.0946 22.4844 42.2268 22.4844 42.4032C22.4954 42.822 22.4734 43.2518 22.4954 43.6706C22.5064 43.891 22.4403 43.9682 22.2089 43.9571C21.4815 43.9351 21.5696 44.0343 21.6247 43.373C21.6909 42.5244 21.4594 41.8521 20.8422 41.2459C20.2361 40.6508 19.7071 39.9455 19.0789 39.207Z" fill="#6C6F71"/>
<path d="M60.3858 39.2067C61.014 39.2067 61.6422 39.2178 62.2704 39.1957C62.5239 39.1847 62.6341 39.2508 62.601 39.5153C62.59 39.6145 62.59 39.7137 62.601 39.8019C62.6341 40.0333 62.5349 40.0995 62.3145 40.0884C61.9508 40.0664 61.5871 40.0995 61.2344 40.0774C60.9148 40.0554 60.7936 40.1325 60.8046 40.4852C60.8266 41.5322 60.7936 42.5792 60.8266 43.6372C60.8377 44.045 60.5952 43.9679 60.3638 43.9679C60.1323 43.9789 59.9229 44.0119 59.9339 43.6372C59.967 42.5792 59.9339 41.5102 59.945 40.4521C59.945 40.1766 59.8788 40.0554 59.5813 40.0774C59.1955 40.0995 58.8098 40.0664 58.424 40.0884C58.2036 40.0995 58.1265 40.0333 58.1375 39.8019C58.1706 39.0855 58.0383 39.2178 58.7216 39.2067C59.2727 39.1957 59.8347 39.2067 60.3858 39.2067Z" fill="#6C6F71"/>
<path d="M16.5429 39.2073C17.1822 39.2073 17.8214 39.2184 18.4606 39.1963C18.7141 39.1853 18.8133 39.2625 18.7912 39.5159C18.7802 39.6151 18.7802 39.7143 18.7912 39.8025C18.8243 40.0339 18.7141 40.089 18.4937 40.078C18.1079 40.067 17.7222 40.089 17.3364 40.067C17.0719 40.056 16.9838 40.1331 16.9838 40.4086C16.9948 41.4667 16.9838 42.5357 16.9948 43.5937C16.9948 43.8693 16.9397 43.9905 16.6421 43.9574C16.3886 43.9244 16.0911 44.0677 16.1131 43.5827C16.1462 42.5247 16.1131 41.4557 16.1351 40.3976C16.1351 40.1441 16.058 40.056 15.8045 40.067C15.4188 40.089 15.033 40.067 14.6473 40.078C14.4269 40.089 14.3277 40.045 14.3277 39.7804C14.3387 39.1853 14.3167 39.1853 14.9228 39.1853C15.4518 39.2073 16.0029 39.2073 16.5429 39.2073Z" fill="#6C6F71"/>
<path d="M55.9333 51.0878C55.4815 51.209 55.3492 50.8454 55.217 50.5698C55.0517 50.2392 54.8312 50.118 54.4786 50.151C54.203 50.1731 53.9275 50.162 53.652 50.151C53.5087 50.151 53.2773 50.2171 53.2662 50.0077C53.2662 49.8204 53.3764 49.6 53.6299 49.5779C53.8173 49.5559 54.0157 49.5559 54.203 49.5669C54.5006 49.5779 54.5447 49.4457 54.4124 49.2142C54.2802 48.9828 54.1369 48.7624 54.0046 48.5309C53.8503 48.2554 53.7401 48.3325 53.6189 48.553C53.1781 49.3134 52.7262 50.0739 52.2854 50.8233C52.2082 50.9445 52.1531 51.0988 51.9768 51.0988C51.7894 51.0988 51.5359 51.187 51.4257 51.0437C51.3045 50.8894 51.5249 50.7241 51.6131 50.5808C52.1751 49.622 52.7482 48.6852 53.3103 47.7264C53.3654 47.6382 53.4205 47.539 53.4867 47.4509C53.7401 47.1092 53.9826 47.1202 54.214 47.4949C54.7651 48.3876 55.2941 49.2914 55.8341 50.1841C55.9444 50.3604 56.0436 50.5368 56.1427 50.7131C56.1978 50.8123 56.3632 50.8894 56.286 51.0107C56.2089 51.165 56.0436 51.0768 55.9333 51.0878Z" fill="#F6C132"/>
<path d="M68.9382 41.5883C68.9382 40.905 68.9492 40.2107 68.9382 39.5274C68.9382 39.2849 68.9933 39.1637 69.2578 39.1968C69.3019 39.2078 69.357 39.2078 69.4011 39.1968C69.7207 39.1527 69.8419 39.2408 69.8309 39.5935C69.8088 40.6405 69.8309 41.6875 69.8199 42.7456C69.8199 43.0101 69.886 43.0982 70.1615 43.0982C70.9881 43.0872 71.8257 43.0982 72.6523 43.0872C72.9278 43.0762 73.027 43.1644 72.9939 43.4289C72.9829 43.5391 72.9829 43.6493 72.9939 43.7595C73.005 43.9138 72.9388 43.9689 72.7845 43.9689C71.5832 43.9689 70.3709 43.9579 69.1696 43.9689C68.9492 43.9689 68.9602 43.8366 68.9602 43.6823C68.9382 42.988 68.9382 42.2937 68.9382 41.5883Z" fill="#6C6F71"/>
<path d="M38.442 49.17C38.442 48.6521 38.453 48.1341 38.442 47.6161C38.431 47.3626 38.5302 47.2744 38.7726 47.2744C39.6984 47.2854 40.6352 47.2854 41.561 47.2744C41.7924 47.2744 41.8806 47.3516 41.8806 47.583C41.8806 47.8144 41.8586 47.9798 41.561 47.9798C40.8667 47.9687 40.1613 47.9908 39.467 47.9798C39.2025 47.9798 39.1363 48.079 39.1474 48.3214C39.1584 48.9166 39.1584 49.5007 39.1474 50.0958C39.1474 50.3493 39.2245 50.4375 39.478 50.4264C40.1613 50.4154 40.8556 50.4375 41.5389 50.4154C41.8145 50.4044 41.8916 50.5146 41.8916 50.7681C41.8916 51.0106 41.8145 51.1098 41.561 51.1098C40.6352 51.0987 39.6984 51.0987 38.7726 51.1098C38.5081 51.1098 38.442 51.0216 38.453 50.7681C38.4641 50.2281 38.453 49.6991 38.442 49.17C38.453 49.17 38.453 49.17 38.442 49.17Z" fill="#F6C132"/>
<path d="M12.1021 49.1811C12.1021 48.6631 12.1132 48.1451 12.1021 47.6271C12.1021 47.3846 12.1683 47.2744 12.4328 47.2744C13.3806 47.2854 14.3394 47.2854 15.2872 47.2854C15.5077 47.2854 15.5407 47.4067 15.5407 47.583C15.5407 47.7924 15.5517 47.9687 15.2542 47.9687C14.5819 47.9577 13.8986 47.9908 13.2263 47.9577C12.8626 47.9467 12.7744 48.079 12.7965 48.4206C12.8185 48.9276 12.8075 49.4346 12.7965 49.9415C12.7965 50.3824 12.8295 50.4264 13.2594 50.4264C13.9096 50.4264 14.5598 50.4375 15.2101 50.4264C15.5077 50.4154 15.5407 50.5587 15.5407 50.8012C15.5407 51.0767 15.4195 51.1098 15.188 51.0987C14.2733 51.0877 13.3585 51.0987 12.4438 51.1098C12.1903 51.1098 12.0911 51.0436 12.1021 50.7791C12.1132 50.2391 12.1021 49.7101 12.1021 49.1811Z" fill="#F6C132"/>
<path d="M37.5059 41.5985C37.5059 42.2818 37.4949 42.9761 37.5169 43.6594C37.5279 43.9129 37.4508 44.0231 37.1973 43.9791C37.1312 43.968 37.054 43.968 36.9769 43.9791C36.6683 44.0342 36.6132 43.8799 36.6242 43.6154C36.6352 43.1525 36.6132 42.7006 36.6352 42.2377C36.6463 41.9953 36.5691 41.9181 36.3377 41.9291C35.7425 41.9402 35.1584 41.9071 34.5633 41.9402C34.1996 41.9622 34.2657 41.7308 34.2547 41.5214C34.2436 41.312 34.2216 41.1246 34.5522 41.1356C35.1584 41.1577 35.7535 41.1356 36.3597 41.1466C36.5691 41.1466 36.6352 41.0805 36.6242 40.8821C36.6132 40.4082 36.6352 39.9453 36.6132 39.4714C36.6022 39.24 36.6793 39.1849 36.8997 39.1959C37.6051 39.2179 37.4839 39.1188 37.4949 39.791C37.5059 40.3972 37.5059 40.9923 37.5059 41.5985Z" fill="#6C6F71"/>
<path d="M49.618 47.2744C50.0919 47.2744 50.5548 47.2854 51.0287 47.2744C51.2381 47.2744 51.3814 47.2965 51.3704 47.561C51.3593 47.8034 51.3483 48.0018 51.0287 47.9908C50.7752 47.9798 50.5217 48.0018 50.2682 47.9798C49.9927 47.9577 49.9046 48.079 49.9156 48.3435C49.9266 49.137 49.9046 49.9305 49.9266 50.735C49.9266 50.9995 49.8825 51.1318 49.5739 51.1318C49.2543 51.1318 49.2212 50.9775 49.2323 50.724C49.2433 49.9305 49.2323 49.137 49.2433 48.3324C49.2433 48.09 49.1661 47.9798 48.9127 47.9798C48.6371 47.9908 48.3616 47.9687 48.0861 47.9798C47.7665 47.9908 47.8105 47.7704 47.7995 47.561C47.7885 47.3185 47.9097 47.2744 48.1081 47.2854C48.6041 47.2854 49.111 47.2744 49.618 47.2744Z" fill="#F6C132"/>
<path d="M23.2222 47.2752C23.6851 47.2752 24.137 47.2752 24.5998 47.2752C24.8203 47.2752 25.0297 47.2311 25.0297 47.5838C25.0297 47.9475 24.8533 47.9695 24.5778 47.9585C24.3904 47.9475 24.1921 47.9695 24.0047 47.9585C23.6851 47.9365 23.5749 48.0797 23.5749 48.3883C23.5859 49.1708 23.5639 49.9533 23.5749 50.7358C23.5749 51.0003 23.4977 51.0885 23.2222 51.0995C22.9467 51.1105 22.8695 51.0003 22.8695 50.7469C22.8806 49.9423 22.8585 49.1267 22.8806 48.3222C22.8806 48.0467 22.7703 47.9585 22.5169 47.9695C22.2413 47.9806 21.9658 47.9806 21.6903 47.9806C21.4147 47.9916 21.4368 47.7932 21.4368 47.6058C21.4258 47.4075 21.4588 47.2752 21.7013 47.2752C22.2083 47.2752 22.7152 47.2752 23.2222 47.2752Z" fill="#F6C132"/>
<path d="M57.2557 49.1706C57.2557 48.6416 57.2667 48.1125 57.2447 47.5835C57.2337 47.33 57.3329 47.2639 57.5533 47.2639C57.7737 47.2639 57.9501 47.2639 57.9501 47.5725C57.939 48.366 57.9611 49.1706 57.9501 49.9641C57.939 50.3057 58.0713 50.4049 58.3909 50.4049C58.986 50.3829 59.5702 50.416 60.1653 50.3939C60.551 50.3829 60.4629 50.6254 60.4959 50.8458C60.54 51.1323 60.3416 51.0993 60.1763 51.0993C59.2946 51.0993 58.4129 51.0882 57.5312 51.0993C57.3108 51.0993 57.2337 51.0221 57.2447 50.8017C57.2667 50.2617 57.2667 49.7216 57.2557 49.1706Z" fill="#F6C132"/>
<path d="M24.0822 23.5567C23.8066 23.5346 23.7185 23.2701 23.5311 23.1379C23.0792 22.8183 22.8147 22.2782 22.3518 21.9917C21.9551 21.7492 21.7898 21.3084 21.393 21.0549C21.1616 20.9006 20.8309 20.6471 20.7097 20.3055C20.6877 20.2503 20.6546 20.1842 20.6105 20.1622C20.2248 20.0079 20.0594 19.5781 19.6847 19.4017C19.4423 19.2915 19.4753 18.9609 19.2329 18.7956C19.0235 18.6523 18.8802 18.4098 18.5606 18.4759C18.6818 18.0902 19.0235 17.8698 19.1006 17.5061C19.1227 17.4179 19.1888 17.4069 19.2549 17.3849C19.7178 17.1975 20.0594 16.8779 20.2468 16.404C20.2688 16.3379 20.2799 16.2607 20.368 16.2387C20.9522 16.1505 21.1836 15.6876 21.404 15.2357C21.4481 15.1366 21.5032 15.0925 21.6024 15.0594C22.0543 14.9161 22.3518 14.5965 22.5172 14.1667C22.5723 14.0234 22.6494 13.9463 22.8037 13.8912C23.2556 13.7038 23.5972 13.3952 23.7405 12.9103C23.7625 12.8552 23.7736 12.8001 23.8397 12.778C24.3797 12.6127 24.7214 12.249 24.9087 11.72C24.9308 11.6539 24.9638 11.6208 25.03 11.6098C25.4929 11.5327 25.7794 11.202 25.9447 10.8163C26.077 10.5077 26.2974 10.3534 26.5619 10.2322C26.7162 10.166 26.8485 10.0779 26.9146 9.94561C27.113 9.5709 27.4215 9.47171 27.8073 9.53783V9.54885C27.7742 9.72519 27.8514 9.79132 28.0277 9.76928C28.0608 10.122 28.3032 10.2762 28.6118 10.3534C28.5677 10.5297 28.7661 10.6399 28.7441 10.8053C28.7331 10.8163 28.722 10.8273 28.711 10.8383C28.3143 10.6289 28.0608 10.2762 27.7632 9.95664C27.5097 9.68111 27.3554 9.73621 27.135 9.95664C26.3966 10.7061 25.6582 11.4445 24.9198 12.1829C22.9911 14.1116 21.0734 16.0293 19.1337 17.9469C18.8471 18.2335 19.0235 18.3768 19.2108 18.5531C20.5003 19.8426 21.8118 21.132 23.0903 22.4325C23.4429 22.7852 23.8397 23.1048 24.1152 23.5346C24.1042 23.5457 24.0932 23.5457 24.0822 23.5567Z" fill="#F6F2DF"/>
<path d="M57.4433 41.6205C57.4433 42.2928 57.4322 42.9761 57.4433 43.6484C57.4433 43.8909 57.3881 44.0121 57.1236 43.979C57.0355 43.968 56.9583 43.968 56.8702 43.979C56.6167 44.0121 56.5505 43.9129 56.5505 43.6594C56.5616 42.2818 56.5616 40.9152 56.5505 39.5375C56.5505 39.2951 56.6056 39.1738 56.8702 39.2069C56.9693 39.2179 57.0685 39.2179 57.1567 39.2069C57.3881 39.1738 57.4433 39.273 57.4433 39.4935C57.4433 40.1988 57.4433 40.9042 57.4433 41.6205Z" fill="#6C6F71"/>
<path d="M12.7523 41.5438C12.7523 40.8716 12.7633 40.1882 12.7523 39.516C12.7413 39.2625 12.8294 39.1633 13.0829 39.1963C13.1821 39.2074 13.2813 39.2074 13.3695 39.1963C13.6009 39.1633 13.645 39.2735 13.645 39.4939C13.634 40.8826 13.634 42.2712 13.645 43.6489C13.645 43.9024 13.5678 44.0015 13.3144 43.9685C13.2152 43.9575 13.116 43.9575 13.0278 43.9685C12.7964 44.0015 12.7413 43.8803 12.7413 43.6709C12.7523 42.9656 12.7413 42.2602 12.7523 41.5438Z" fill="#6C6F71"/>
<path d="M33.725 41.6098C33.725 42.2931 33.714 42.9874 33.725 43.6707C33.725 43.8911 33.681 44.0124 33.4275 43.9793C33.3062 43.9683 33.185 43.9683 33.0638 43.9793C32.8874 44.0013 32.8434 43.9132 32.8434 43.7479C32.8434 42.3151 32.8434 40.8714 32.8434 39.4386C32.8434 39.2402 32.9205 39.1961 33.0968 39.1961C33.725 39.1741 33.714 39.1741 33.714 39.7913C33.714 40.3974 33.725 41.0036 33.725 41.6098Z" fill="#6C6F71"/>
<path d="M29.4382 51.0984C29.1847 51.0984 28.9312 51.1095 28.6777 51.0984C28.0054 51.0764 27.6307 50.3931 27.9944 49.831C28.0936 49.6657 28.1267 49.5665 28.0165 49.3902C27.752 48.9714 27.9503 48.5085 28.4132 48.3432C28.6667 48.255 28.9422 48.2881 29.2067 48.2881C29.361 48.2881 29.4161 48.3762 29.4051 48.5195C29.3941 48.6628 29.3831 48.795 29.1957 48.795C29.0635 48.795 28.9312 48.795 28.799 48.806C28.6226 48.8391 28.4573 48.9163 28.4793 49.1257C28.4904 49.324 28.6336 49.4232 28.821 49.4342C29.2178 49.4453 29.6145 49.4343 30.0113 49.4453C30.1325 49.4453 30.2978 49.3902 30.3419 49.5775C30.375 49.7318 30.3529 49.842 30.1656 49.9082C29.9341 49.9963 30.0443 50.2168 30.0333 50.3821C30.0223 50.5474 30.1435 50.5804 30.2758 50.5804C30.4742 50.5804 30.5072 50.6907 30.5183 50.867C30.5183 51.0654 30.408 51.1095 30.2427 51.1095C29.9672 51.0984 29.7027 51.0984 29.4382 51.0984ZM28.9202 50.6135C29.0855 50.6135 29.1406 50.6135 29.1957 50.6135C29.5043 50.6466 29.5043 50.4482 29.5043 50.2278C29.5043 50.0073 29.4823 49.842 29.2067 49.8641C29.0304 49.8751 28.843 49.8641 28.6667 49.8861C28.5014 49.9082 28.3691 49.9853 28.3691 50.1837C28.3581 50.3821 28.4353 50.5143 28.6226 50.5584C28.7659 50.5915 28.8871 50.6025 28.9202 50.6135ZM28.2038 49.313C28.3912 48.773 28.3912 48.773 28.9312 48.6738C29.0194 48.6628 29.1076 48.6407 29.1186 48.5415C29.1186 48.4093 29.0084 48.3872 28.9092 48.3983C28.4463 48.4203 27.9834 48.6848 28.2038 49.313Z" fill="#F6C132"/>
<path d="M14.3287 48.851C14.6042 48.851 14.8797 48.851 15.1553 48.851C15.3647 48.851 15.4308 48.9502 15.4198 49.1376C15.4087 49.3249 15.3977 49.4682 15.1553 49.4682C14.6042 49.4682 14.0421 49.4682 13.4911 49.4682C13.2486 49.4682 13.2376 49.3139 13.2266 49.1265C13.2155 48.9282 13.2927 48.84 13.4911 48.851C13.7666 48.862 14.0421 48.862 14.3287 48.851ZM14.3507 49.3249C14.5601 49.3249 14.7585 49.3249 14.9679 49.3249C15.0781 49.3249 15.2324 49.369 15.2544 49.1816C15.2655 49.0053 15.1332 48.9612 14.9899 48.9612C14.5381 48.9612 14.0752 48.9612 13.6233 48.9612C13.5021 48.9612 13.4029 48.9833 13.4029 49.1265C13.4029 49.3029 13.5131 49.3139 13.6454 49.3139C13.8658 49.3249 14.1083 49.3249 14.3507 49.3249Z" fill="#F6C132"/>
<path d="M49.8939 14.2668C50.1143 14.366 50.3678 14.4873 50.5111 14.6085C50.6764 14.7628 50.8417 14.9942 50.996 15.2036C51.2936 15.5894 51.5801 15.9861 52.032 16.2176C52.1312 16.2727 52.2194 16.3719 52.2855 16.4711C52.3737 16.6143 52.3847 16.8127 52.6382 16.6474C52.7263 16.5923 52.7594 16.6805 52.7594 16.7576C52.7704 16.8899 52.7814 17.0221 52.7814 17.1544L52.7594 17.1654C52.6933 17.1323 52.6271 17.1103 52.572 17.0552C51.9769 16.46 51.3707 15.8759 50.7866 15.2587C50.478 14.9281 50.0923 14.6636 49.8498 14.2668H49.8939Z" fill="#F6F2DF"/>
<path d="M39.633 48.8833C40.3163 48.8833 40.9996 48.8833 41.6829 48.8943C41.6829 49.0596 41.6829 49.236 41.6829 49.4013C41.5176 49.4233 41.3303 49.3793 41.176 49.4674C40.7902 49.4674 40.4045 49.4674 40.0187 49.4564C39.8975 49.4013 39.7763 49.4123 39.644 49.4233L39.622 49.4123C39.633 49.236 39.633 49.0596 39.633 48.8833ZM40.669 49.3241C40.9004 49.3241 41.1319 49.3241 41.3523 49.3241C41.4625 49.3241 41.5837 49.3021 41.5948 49.1588C41.6058 49.0156 41.4956 48.9715 41.3854 48.9715C40.9004 48.9715 40.4265 48.9715 39.9416 48.9715C39.8314 48.9715 39.7542 49.0045 39.7432 49.1368C39.7322 49.2801 39.8204 49.3241 39.9416 49.3241C40.1841 49.3241 40.4265 49.3241 40.669 49.3241Z" fill="#F6C132"/>
<path d="M49.0233 13.396C49.2768 13.352 49.4201 13.385 49.4752 13.7046C49.5082 13.903 49.8058 14.0353 49.894 14.2667L49.8719 14.2777C49.5303 14.0353 49.2217 13.7597 49.0013 13.4071L49.0233 13.396Z" fill="#F6F2DF"/>
<path d="M39.6334 48.8833C39.6334 49.0596 39.6334 49.236 39.6334 49.4013C39.4571 49.236 39.4461 49.0596 39.6334 48.8833Z" fill="#F6F2DF"/>
<path d="M41.6944 49.402C41.6944 49.2367 41.6944 49.0603 41.6944 48.895C41.9258 49.0603 41.9148 49.2367 41.6944 49.402Z" fill="#F6F2DF"/>
<path d="M41.1868 49.468C41.3521 49.3798 41.5284 49.4349 41.6937 49.4019C41.5505 49.6333 41.3631 49.5672 41.1868 49.468Z" fill="#F6F2DF"/>
<path d="M39.6552 49.424C39.7875 49.413 39.9087 49.402 40.03 49.4571C39.8867 49.5894 39.7655 49.6004 39.6552 49.424Z" fill="#F6F2DF"/>
<path d="M45.3236 27.0108L45.2869 26.9864L45.3236 26.9741V27.0108Z" fill="#F6F2DF"/>
<path d="M35.5105 28.9141C35.3783 29.377 35.257 29.8399 35.1689 30.3138C35.1358 30.4681 35.1137 30.6885 34.9043 30.6885C34.728 30.6885 34.6619 30.5011 34.6288 30.3468C34.4084 29.4651 34.2321 28.5724 34.6178 27.6907C34.739 27.4152 34.6729 27.1727 34.5296 26.9303C34.3202 26.5776 34.0888 26.236 33.8904 25.8833C33.6479 25.4535 33.5157 25.0016 33.5708 24.4946C33.6479 23.8223 34.0667 23.4256 34.75 23.4146C35.3011 23.4146 35.8522 23.5248 36.3922 23.6129C36.4804 23.624 36.5796 23.646 36.6677 23.635C36.0616 23.668 35.4444 23.5688 34.8382 23.5799C34.0667 23.5909 33.67 24.0758 33.8133 24.8363C33.9124 25.3763 34.1549 25.8612 34.4966 26.2911C34.6619 26.5005 34.8272 26.7099 34.9374 26.9523C35.0697 27.2279 35.0917 27.5034 34.9595 27.7899C34.5958 28.5945 34.717 29.41 34.8933 30.2366C35.1027 29.7958 35.1578 29.3108 35.3893 28.881C35.4223 28.9141 35.4664 28.9141 35.5105 28.9141Z" fill="#F6F2DF"/>
<path d="M38.939 23.4026C39.4018 24.0749 39.3026 24.7912 39.1263 25.5186C39.0822 25.706 39.0051 25.8934 38.8949 26.0477C38.443 26.6979 38.3328 27.4363 38.2777 28.2078C38.2226 29.0785 38.0573 29.9271 37.5613 30.6765C37.4511 30.8418 37.3078 30.9961 37.1646 31.1394C37.0764 31.2386 36.9552 31.3157 36.8119 31.2606C36.6576 31.2055 36.6576 31.0512 36.6796 30.919C36.7237 30.6324 36.7898 30.3569 36.8449 30.0704C36.878 30.0704 36.9221 30.0704 36.9552 30.0704C36.9221 30.3128 36.9 30.5443 36.867 30.7867C36.856 30.8529 36.8449 30.952 36.9111 30.9851C36.9992 31.0402 37.0654 30.952 37.1205 30.8969C37.4291 30.5663 37.5723 30.1695 37.7046 29.7507C37.8809 29.1446 37.9801 28.5274 37.9691 27.8992C37.9581 27.249 38.1344 26.6648 38.5091 26.1358C38.8949 25.6068 39.0932 25.0006 39.0602 24.3394C39.0492 24.0418 38.961 23.7773 38.8398 23.5128C38.8838 23.4687 38.9059 23.4357 38.939 23.4026Z" fill="#F6F2DF"/>
<path d="M38.9383 23.4028C38.9052 23.4359 38.8722 23.4689 38.8391 23.502C38.3762 22.962 37.7811 23.0171 37.1639 23.1163C36.9325 23.1604 36.701 23.2265 36.4696 23.2816C37.0427 22.984 37.6488 22.8958 38.277 22.995C38.5526 23.0391 38.806 23.1493 38.9383 23.4028Z" fill="#DBDADE"/>
<path d="M36.9652 30.071C36.9322 30.071 36.8881 30.071 36.855 30.071C36.9211 29.4538 36.9983 28.8367 36.855 28.2195C37.1195 28.8146 37.0865 29.4428 36.9652 30.071Z" fill="#DBDADE"/>
<path d="M35.5109 28.9137C35.4668 28.9137 35.4227 28.9026 35.3786 28.9026C35.4778 28.55 35.6431 28.2304 35.8856 27.9548C35.8966 27.9769 35.9187 27.9879 35.9297 27.9989C35.7974 28.3075 35.6542 28.6161 35.5109 28.9137Z" fill="#DBDADE"/>
<path d="M35.885 27.9552C35.8961 27.911 35.9182 27.8447 35.9623 27.8779C36.0397 27.9221 35.9624 27.9662 35.9292 28.0104C35.9182 27.9883 35.8961 27.9773 35.885 27.9552Z" fill="#DBDADE"/>
<path d="M35.1581 11.0369C34.1111 10.067 33.7033 8.1604 34.2764 6.8599C34.563 6.19864 35.3234 5.77984 35.9847 5.92311C36.7121 6.08843 37.164 6.66153 37.1419 7.45504C37.1309 7.8518 37.0758 8.24856 36.8884 8.64532C36.8443 8.44694 36.9656 8.29265 36.8995 8.12733C36.3264 8.23754 35.643 8.98698 35.599 9.56008C35.5769 9.86867 35.7092 10.0891 35.9296 10.2875C36.3704 10.6732 36.9435 10.8385 37.4064 11.1912C37.4505 11.2243 37.5166 11.2573 37.5717 11.1912C37.6268 11.1141 37.6048 11.0149 37.5497 10.9598C37.4285 10.8165 37.2852 10.6842 37.164 10.5299C36.9766 10.2985 36.8995 10.045 36.9876 9.75846C37.0537 9.56008 37.186 9.46089 37.3954 9.47191C37.5938 9.48293 37.704 9.61518 37.715 9.80254C37.726 10.2654 37.7481 10.7063 37.9465 11.1361C38.0677 11.4226 37.7811 11.6651 37.5166 11.4998C36.9105 11.1361 36.2161 10.9157 35.6761 10.4307C35.2132 10.0119 35.1361 9.38374 35.4998 8.85473C35.8194 8.38082 36.1941 7.95099 36.7452 7.74159C36.9435 7.66445 36.9766 7.54321 36.9546 7.35585C36.8884 6.78276 36.5027 6.35293 35.9627 6.26476C35.4777 6.18762 34.9267 6.47417 34.7063 6.99216C34.3977 7.68649 34.4087 8.4249 34.5189 9.16332C34.6291 9.81356 34.8826 10.4087 35.2904 10.9377C35.2242 10.9708 35.1912 11.0038 35.1581 11.0369Z" fill="#F6F2DF"/>
<path d="M38.4866 12.8339C38.5307 13.418 38.2882 13.8368 37.7923 14.0462C37.3073 14.2446 36.8114 14.1454 36.4587 13.7156C35.8856 12.9992 35.1472 12.4371 34.5741 11.7208C33.4059 10.277 33.0422 8.63486 33.5381 6.86046C34.001 5.18525 35.7203 4.57909 37.2081 5.50486C37.2632 5.53792 37.3404 5.55997 37.3514 5.6812C37.2412 5.71426 37.1641 5.61507 37.0869 5.58201C35.4999 4.85462 34.001 5.6812 33.8136 7.42253C33.6263 9.14183 34.0892 10.6738 35.3125 11.9302C35.7644 12.3931 36.2273 12.8559 36.613 13.385C36.9547 13.8478 37.2522 13.9691 37.682 13.8368C38.1449 13.6935 38.3764 13.3739 38.3874 12.9C38.4205 12.889 38.4535 12.867 38.4866 12.8339Z" fill="#FCFCFC"/>
<path d="M38.4868 12.8341C38.4537 12.8562 38.4096 12.8782 38.3766 12.9002C38.3325 12.5586 38.3545 12.2059 38.3876 11.8643C38.4537 12.1949 38.5088 12.5145 38.4868 12.8341Z" fill="#DBDADE"/>
<path d="M28.6112 10.3432C28.3026 10.266 28.0601 10.1117 28.0271 9.75903C28.2585 9.92435 28.4569 10.1117 28.6112 10.3432Z" fill="#FCFCFC"/>
<path d="M28.7324 10.8059C28.7655 10.6295 28.5671 10.5303 28.6001 10.354C28.7985 10.4642 28.9418 10.6516 29.0851 10.8169C28.9638 10.9491 28.8536 10.8059 28.7324 10.8059Z" fill="#FCFCFC"/>
<path d="M35.1581 11.0374C35.1912 11.0044 35.2242 10.9713 35.2573 10.9382C35.4006 11.0815 35.5438 11.2248 35.6981 11.3791C35.6871 11.3901 35.6651 11.4121 35.6541 11.4232C35.4447 11.335 35.2904 11.2027 35.1581 11.0374Z" fill="#DBDADE"/>
<path d="M28.028 9.76925C27.8627 9.79129 27.7856 9.72517 27.8076 9.54883C27.9178 9.59291 27.995 9.65904 28.028 9.76925Z" fill="#FCFCFC"/>
<path d="M35.6872 11.3792C35.7423 11.4122 35.7974 11.4453 35.8635 11.4894C35.7533 11.5445 35.6982 11.4673 35.6431 11.4232C35.6541 11.4012 35.6762 11.3902 35.6872 11.3792Z" fill="#DBDADE"/>
<path d="M24.1153 23.5346C23.8397 23.1048 23.443 22.7851 23.0903 22.4325C21.8008 21.132 20.5003 19.8535 19.2109 18.553C19.0345 18.3767 18.8472 18.2224 19.1337 17.9469C21.0734 16.0402 22.9911 14.1115 24.9198 12.1828C25.6582 11.4444 26.4076 10.706 27.135 9.95657C27.3555 9.73615 27.5098 9.68104 27.7632 9.95657C28.0498 10.2652 28.3143 10.6289 28.7111 10.8383C28.7221 10.9375 28.7992 11.0036 28.8654 11.0697C30.3201 12.5245 31.7859 13.9793 33.2407 15.4341C34.1004 16.2937 34.949 17.1644 35.8087 18.013C36.0401 18.2444 35.8638 18.3657 35.7205 18.52C34.1224 20.107 32.5354 21.7051 30.9373 23.3031C29.8683 24.3722 28.7992 25.4302 27.7412 26.4993C27.5318 26.7197 27.3995 26.7527 27.1571 26.4993C26.2203 25.5294 25.2504 24.5926 24.2916 23.6448C24.2365 23.6007 24.1704 23.5676 24.1153 23.5346ZM27.631 12.5906C27.2342 13.1196 27.0689 13.6597 27.3334 14.2989C27.8294 15.4892 28.3914 16.6464 28.9756 17.7926C29.3723 18.5751 29.8462 19.3245 30.0887 20.1731C30.3091 20.9226 30.0777 21.3524 29.3613 21.661C28.9645 21.8373 28.5347 21.8153 28.1159 21.8373C27.5428 21.8704 27.1901 22.4104 27.4106 22.9394C27.4436 22.8954 27.4877 22.8623 27.4987 22.8292C27.5979 22.3663 27.9396 22.2561 28.3474 22.19C28.7882 22.1239 29.2291 22.0688 29.6589 21.9365C30.2981 21.7492 30.5846 21.3304 30.5075 20.6691C30.4634 20.2944 30.3752 19.9307 30.2099 19.589C29.5156 18.0791 28.7441 16.6023 28.1269 15.0593C27.8404 14.332 27.4547 13.6266 27.6861 12.8C27.7081 12.7559 27.7192 12.6788 27.631 12.5906ZM27.124 19.6331C26.9697 20.0078 26.7493 20.1842 26.4517 20.2944C26.3085 20.3495 26.1652 20.4266 26.0329 20.5038C25.7574 20.6801 25.6692 20.9446 25.6913 21.2532C25.7133 21.5508 25.8566 21.7492 26.1211 21.8594C25.9888 20.8344 25.9999 20.8454 26.9587 20.3825C27.2783 20.2503 27.2673 19.9858 27.124 19.6331ZM26.8264 21.7712C27.0689 21.661 27.2452 21.4957 27.4877 21.5067C27.7302 21.5067 27.9726 21.5177 28.2041 21.5177C28.3363 21.5177 28.4906 21.5398 28.5347 21.3744C28.5788 21.2091 28.4466 21.1099 28.3253 21.0328C27.8073 20.7242 26.9587 21.132 26.8264 21.7712Z" fill="#FAC226"/>
<path d="M49.0003 13.4178C49.2207 13.7705 49.5293 14.046 49.871 14.2884C50.1024 14.6962 50.4881 14.9497 50.8077 15.2803C51.3919 15.8865 51.998 16.4816 52.5932 17.0768C52.6373 17.1209 52.7144 17.1539 52.7805 17.187C52.9679 17.5066 53.2544 17.727 53.5079 17.9805C53.6732 18.1458 53.6732 18.256 53.5079 18.4214C52.3507 19.5786 51.1935 20.7358 50.0363 21.893C48.5264 23.4139 47.0055 24.9238 45.4956 26.4447C45.187 26.7643 45.1649 26.7754 44.8343 26.4557C42.8505 24.4609 40.8557 22.4661 38.8719 20.4713C38.2106 19.81 37.5494 19.1377 36.866 18.4985C36.6456 18.2891 36.6566 18.1458 36.866 17.9364C38.1445 16.669 39.4009 15.4016 40.6683 14.1342C42.057 12.7455 43.4456 11.3568 44.8233 9.95715C45.0547 9.72571 45.187 9.6706 45.4515 9.93511C46.5426 11.0593 47.6667 12.1504 48.7688 13.2525C48.846 13.3076 48.9011 13.3847 49.0003 13.4178ZM46.1679 20.4713C46.3883 20.328 46.4765 20.1186 46.5095 19.9092C46.5977 19.4243 46.8071 19.0275 47.2149 18.752C47.3141 18.6859 47.3692 18.5095 47.4904 18.5536C47.6447 18.6087 47.5565 18.7851 47.5455 18.9063C47.4573 19.7108 47.3692 20.5154 47.5124 21.3199C47.5345 21.4301 47.5014 21.6175 47.6667 21.5954C47.821 21.5734 47.7659 21.3971 47.7549 21.2868C47.6447 20.5374 47.6888 19.799 47.7659 19.0496C47.832 18.4324 47.8872 17.8262 48.2068 17.2531C48.4933 16.7351 48.6586 16.14 48.7909 15.5559C48.8129 15.4677 48.857 15.3355 48.7358 15.3024C48.5925 15.2693 48.6145 15.4126 48.5815 15.5008C48.4603 15.8755 48.3611 16.2612 48.2178 16.6359C47.9092 17.4405 47.5345 18.212 46.8622 18.774C45.6388 19.777 43.8314 19.5014 42.8395 18.1679C42.2554 17.3964 41.9247 16.5037 41.7153 15.5669C41.6933 15.4567 41.6933 15.2803 41.539 15.3244C41.4288 15.3575 41.4729 15.5228 41.5059 15.611C41.6602 16.0739 41.7594 16.5588 41.9468 17.0217C42.1121 17.4295 42.4207 17.7821 42.4427 18.256C42.4978 19.292 42.7293 20.317 42.5199 21.353C42.4978 21.4411 42.4978 21.5734 42.6191 21.5844C42.7513 21.5954 42.7403 21.4632 42.7513 21.364C42.8285 20.9452 42.8395 20.5264 42.8174 20.0966C42.8064 19.6888 42.7513 19.281 42.7293 18.8732C42.7183 18.763 42.7183 18.5095 42.8946 18.6418C43.1922 18.8622 43.5999 19.0165 43.622 19.5125C43.633 19.788 43.7653 20.0745 43.8534 20.339C43.8865 20.4382 43.9526 20.6146 44.0849 20.5595C44.2502 20.4933 44.1179 20.3501 44.0738 20.2509C43.9967 20.0525 43.8975 19.8541 43.8755 19.6337C43.8534 19.4133 43.9416 19.3361 44.151 19.4133C44.7572 19.6337 45.3743 19.6557 46.0025 19.4794C46.1017 19.4573 46.223 19.3582 46.3001 19.4684C46.3883 19.5786 46.3001 19.6998 46.2781 19.81C46.2671 20.0304 46.0356 20.1847 46.1679 20.4713ZM44.5257 17.2531C44.3824 17.2641 44.2392 17.2201 44.1841 17.3744C44.14 17.5066 44.1841 17.6389 44.2832 17.7381C44.7021 18.1899 45.6719 18.1679 46.0576 17.705C46.1348 17.6168 46.1568 17.5176 46.1348 17.3964C46.1128 17.2972 46.0246 17.2641 45.9364 17.2862C45.4515 17.3854 44.9776 17.3193 44.5257 17.2531Z" fill="#FAC226"/>
<path d="M41.2092 43.0979C41.0328 43.0979 40.8455 43.0979 40.6691 43.0979C39.7985 43.0869 39.1923 42.4807 39.1813 41.6101C39.1592 40.7394 39.7544 40.1222 40.6251 40.0891C41.0218 40.0781 41.4186 40.0671 41.8153 40.0891C42.675 40.1332 43.226 40.7394 43.215 41.6211C43.204 42.4587 42.6089 43.0648 41.7933 43.0979C41.5949 43.0979 41.3965 43.0979 41.2092 43.0979Z" fill="#FCFCFC"/>
<path d="M7.7159 41.5657C7.7159 41.1579 7.72692 40.7501 7.7159 40.3423C7.7159 40.155 7.77101 40.0778 7.95837 40.0888C8.52044 40.0999 9.09354 40.0668 9.65562 40.0999C10.4932 40.1439 11.0553 40.7832 11.0333 41.6097C11.0112 42.4914 10.4271 43.0976 9.55643 43.1086C9.03844 43.1196 8.52044 43.0976 8.00245 43.1196C7.75999 43.1307 7.69386 43.0425 7.70488 42.8111C7.72692 42.3812 7.7159 41.9734 7.7159 41.5657Z" fill="#FCFCFC"/>
<path d="M66.0722 41.9729C66.0722 41.995 66.0943 42.0281 66.0833 42.0392C66.0612 42.0723 66.017 42.0613 65.9949 42.0392C66.017 42.0171 66.0501 41.995 66.0722 41.9729Z" fill="#FCFCFC"/>
<path d="M34.0342 49.1593C34.0342 48.8618 34.0452 48.5532 34.0342 48.2556C34.0232 48.0462 34.0783 47.947 34.3097 47.947C34.7175 47.958 35.1253 47.947 35.5331 47.958C36.2384 47.9801 36.7344 48.465 36.7344 49.1373C36.7454 49.8537 36.2495 50.3827 35.5331 50.4047C35.1253 50.4157 34.7175 50.4047 34.3097 50.4047C34.1114 50.4047 34.0232 50.3276 34.0232 50.1292C34.0342 49.8096 34.0232 49.49 34.0342 49.1593Z" fill="#FCFCFC"/>
<path d="M28.9203 50.614C28.8872 50.614 28.755 50.5919 28.6337 50.5588C28.4464 50.5037 28.3692 50.3715 28.3802 50.1841C28.3913 49.9857 28.5235 49.9086 28.6778 49.8866C28.8541 49.8645 29.0305 49.8755 29.2178 49.8645C29.4934 49.8425 29.5154 50.0078 29.5154 50.2282C29.5154 50.4486 29.5044 50.647 29.2068 50.614C29.1407 50.6029 29.0856 50.614 28.9203 50.614Z" fill="#F6F2DF"/>
<path d="M28.204 49.3133C27.9726 48.6851 28.4355 48.4205 28.9094 48.3875C29.0086 48.3765 29.1188 48.3985 29.1188 48.5308C29.1188 48.641 29.0196 48.652 28.9314 48.663C28.4024 48.7732 28.4024 48.7732 28.204 49.3133Z" fill="#FAC226"/>
<path d="M14.3505 49.3241C14.108 49.3241 13.8656 49.3241 13.6341 49.3241C13.5019 49.3241 13.3916 49.3021 13.3916 49.1368C13.3916 48.9935 13.5019 48.9714 13.6121 48.9714C14.0639 48.9714 14.5268 48.9714 14.9787 48.9714C15.122 48.9714 15.2542 49.0155 15.2432 49.1919C15.2322 49.3682 15.0779 49.3241 14.9566 49.3351C14.7583 49.3351 14.5489 49.3241 14.3505 49.3241Z" fill="#FAC226"/>
<path d="M40.669 49.3241C40.4266 49.3241 40.1841 49.3241 39.9416 49.3241C39.8094 49.3241 39.7322 49.269 39.7433 49.1368C39.7543 49.0155 39.8314 48.9714 39.9416 48.9714C40.4266 48.9714 40.9115 48.9714 41.3854 48.9714C41.5066 48.9714 41.6058 49.0155 41.5948 49.1588C41.5838 49.3021 41.4736 49.3241 41.3523 49.3241C41.1209 49.3241 40.9005 49.3241 40.669 49.3241Z" fill="#FAC226"/>
<path d="M27.6306 12.5916C27.7298 12.6797 27.7188 12.7569 27.6968 12.823C27.4653 13.6496 27.8511 14.3549 28.1376 15.0823C28.7548 16.6253 29.5152 18.1021 30.2206 19.612C30.3749 19.9537 30.4741 20.3173 30.5182 20.6921C30.5953 21.3533 30.3088 21.7721 29.6695 21.9595C29.2397 22.0917 28.7989 22.1469 28.358 22.213C27.9392 22.2681 27.6086 22.3893 27.5094 22.8522C27.4984 22.8963 27.4543 22.9183 27.4212 22.9624C27.1898 22.4444 27.5535 21.8934 28.1266 21.8603C28.5454 21.8383 28.9642 21.8603 29.372 21.684C30.0994 21.3754 30.3198 20.9456 30.0994 20.1961C29.8569 19.3475 29.383 18.5981 28.9862 17.8156C28.4021 16.6694 27.84 15.5121 27.3441 14.3219C27.0686 13.6606 27.2339 13.1206 27.6306 12.5916Z" fill="#F6F2DF"/>
<path d="M27.1232 19.6338C27.2555 19.9975 27.2775 20.251 26.9689 20.3942C25.9991 20.8461 25.9991 20.8461 26.1313 21.8711C25.8558 21.7609 25.7235 21.5625 25.7015 21.2649C25.6795 20.9563 25.7676 20.6918 26.0432 20.5155C26.1754 20.4273 26.3187 20.3612 26.462 20.3061C26.7485 20.1848 26.98 20.0085 27.1232 19.6338Z" fill="#F6F2DF"/>
<path d="M26.8263 21.7718C26.9586 21.1216 27.8072 20.7248 28.3252 21.0224C28.4574 21.0995 28.5787 21.1987 28.5346 21.364C28.4905 21.5293 28.3362 21.5073 28.204 21.5073C27.9615 21.5073 27.719 21.5073 27.4876 21.4963C27.2451 21.5073 27.0688 21.6616 26.8263 21.7718Z" fill="#F6F2DF"/>
<path d="M46.1685 20.4713C46.0362 20.1847 46.2677 20.0304 46.3118 19.821C46.3338 19.6998 46.422 19.5786 46.3338 19.4794C46.2456 19.3692 46.1244 19.4684 46.0362 19.4904C45.408 19.6668 44.7909 19.6447 44.1847 19.4243C43.9643 19.3471 43.8871 19.4243 43.9092 19.6447C43.9312 19.8651 44.0194 20.0635 44.1075 20.2619C44.1516 20.3611 44.2839 20.5044 44.1186 20.5705C43.9863 20.6256 43.9202 20.4493 43.8871 20.3501C43.7879 20.0745 43.6667 19.799 43.6557 19.5235C43.6336 19.0275 43.2259 18.8732 42.9283 18.6528C42.7519 18.5206 42.7519 18.774 42.763 18.8843C42.785 19.292 42.8291 19.6998 42.8511 20.1076C42.8622 20.5264 42.8622 20.9562 42.785 21.375C42.763 21.4632 42.774 21.6065 42.6528 21.5954C42.5315 21.5844 42.5315 21.4522 42.5536 21.364C42.763 20.328 42.5315 19.3031 42.4764 18.2671C42.4544 17.7932 42.1458 17.4405 41.9805 17.0327C41.7931 16.5698 41.6939 16.0849 41.5396 15.622C41.5066 15.5228 41.4625 15.3575 41.5727 15.3355C41.727 15.2914 41.727 15.4677 41.749 15.5779C41.9584 16.5147 42.2891 17.4074 42.8732 18.1789C43.8651 19.5125 45.6725 19.788 46.8959 18.7851C47.5792 18.223 47.9429 17.4515 48.2515 16.647C48.3948 16.2723 48.4939 15.8865 48.6152 15.5118C48.6372 15.4346 48.6262 15.2804 48.7695 15.3134C48.8907 15.3465 48.8466 15.4787 48.8246 15.5669C48.6813 16.151 48.527 16.7462 48.2405 17.2642C47.9208 17.8372 47.8657 18.4434 47.7996 19.0606C47.7225 19.81 47.6784 20.5484 47.7886 21.2979C47.7996 21.4081 47.8547 21.5844 47.7004 21.6065C47.5351 21.6285 47.5682 21.4412 47.5461 21.3309C47.4139 20.5264 47.491 19.7219 47.5792 18.9173C47.5902 18.7961 47.6784 18.6197 47.5241 18.5646C47.4029 18.5206 47.3478 18.6969 47.2486 18.763C46.8408 19.0385 46.6314 19.4353 46.5432 19.9202C46.4661 20.1186 46.3889 20.328 46.1685 20.4713Z" fill="#F6F2DF"/>
<path d="M44.5266 17.2532C44.9785 17.3193 45.4634 17.3854 45.9373 17.2862C46.0255 17.2642 46.1136 17.2973 46.1357 17.3964C46.1577 17.5067 46.1357 17.6169 46.0585 17.705C45.6728 18.1679 44.7029 18.1789 44.2841 17.7381C44.1849 17.6389 44.1409 17.5067 44.1849 17.3744C44.24 17.2201 44.3833 17.2642 44.5266 17.2532Z" fill="#F6F2DF"/>
</svg>
