<svg width="74" height="52" viewBox="0 0 74 52" fill="none" xmlns="http://www.w3.org/2000/svg">
<path d="M44.8815 26.9629C44.8926 27.1061 44.7714 27.1723 44.6943 27.2494C41.985 29.9606 39.2757 32.6718 36.5774 35.383C36.3902 35.5704 36.28 35.6034 36.0708 35.394C33.3615 32.6718 30.6412 29.9496 27.9318 27.2384C27.8327 27.1392 27.7006 27.04 27.8437 26.8857C27.9429 26.7976 28.042 26.7204 28.1411 26.6212C30.7733 23.9872 33.4165 21.3531 36.0377 18.7081C36.28 18.4656 36.4012 18.4876 36.6215 18.7191C38.3616 20.4714 40.1127 22.2238 41.8639 23.9651C42.8551 24.9681 43.8353 26.004 44.8815 26.9629ZM35.9276 27.9548C35.6853 28.2303 35.5201 28.5499 35.421 28.9026C35.2007 29.3324 35.1457 29.8173 34.9254 30.2582C34.7492 29.4316 34.628 28.616 34.9915 27.8115C35.1236 27.525 35.1016 27.2494 34.9694 26.9739C34.8593 26.7314 34.6941 26.522 34.5289 26.3126C34.1875 25.8828 33.9452 25.3979 33.8461 24.8578C33.7029 24.0864 34.0994 23.6125 34.8703 23.6014C35.4761 23.5904 36.0818 23.6896 36.6986 23.6565C36.5994 23.6676 36.5113 23.6565 36.4232 23.6345C35.8725 23.5463 35.3329 23.4251 34.7822 23.4361C34.1104 23.4471 33.6809 23.8439 33.6038 24.5162C33.5487 25.0121 33.6699 25.475 33.9232 25.9048C34.1214 26.2575 34.3527 26.5992 34.5619 26.9519C34.7051 27.1833 34.7712 27.4368 34.6501 27.7123C34.2646 28.594 34.4408 29.4867 34.6611 30.3684C34.6941 30.5227 34.7602 30.71 34.9364 30.71C35.1457 30.71 35.1677 30.4896 35.2007 30.3353C35.2888 29.8614 35.41 29.3985 35.5421 28.9356C35.6853 28.6271 35.8285 28.3295 35.9607 28.0209C35.9937 27.9768 36.0708 27.9438 35.9937 27.8886C35.9607 27.8446 35.9386 27.9107 35.9276 27.9548ZM36.8858 30.0708C36.8307 30.3574 36.7646 30.6329 36.7206 30.9194C36.6986 31.0517 36.7096 31.195 36.8527 31.2611C36.9959 31.3162 37.1171 31.2391 37.2052 31.1399C37.3483 30.9856 37.4915 30.8423 37.6017 30.677C38.0973 29.9276 38.2625 29.0789 38.3175 28.2083C38.3616 27.4368 38.4717 26.6984 38.9343 26.0481C39.0444 25.8938 39.1215 25.7065 39.1656 25.5191C39.3418 24.7917 39.4409 24.0753 38.9783 23.4031C38.8352 23.1386 38.5929 23.0283 38.3285 22.9953C37.7008 22.8961 37.084 22.9843 36.5223 23.2818C36.7536 23.2377 36.9849 23.1606 37.2162 23.1165C37.8219 23.0063 38.4277 22.9622 38.8902 23.5022C39.0114 23.7668 39.0885 24.0423 39.1105 24.3288C39.1435 24.9901 38.9453 25.5852 38.5598 26.1253C38.1854 26.6543 38.0092 27.2274 38.0202 27.8886C38.0312 28.5168 37.9321 29.134 37.7558 29.7402C37.6347 30.159 37.4805 30.5668 37.1721 30.8864C37.1171 30.9415 37.051 31.0297 36.9629 30.9746C36.8968 30.9415 36.9078 30.8423 36.9188 30.7762C36.9409 30.5337 36.9739 30.3023 37.0069 30.0598C37.1391 29.4316 37.1611 28.8034 36.8858 28.2083C37.04 28.8365 36.9519 29.4536 36.8858 30.0708Z" fill="#6C6F71"/>
<path d="M27.8654 9.53842C27.6892 9.36208 27.8103 9.25187 27.9425 9.13064C30.5196 6.56272 33.0858 3.98378 35.6629 1.41586C35.8722 1.20646 36.0594 0.842767 36.3237 0.842767C36.5881 0.831746 36.7753 1.20646 36.9845 1.41586C39.4956 3.91765 41.9957 6.43047 44.4957 8.94328C44.6389 9.08655 44.8702 9.18574 44.8702 9.43923C44.7821 9.51638 44.6829 9.59352 44.6058 9.68169C41.9296 12.3598 39.2533 15.0269 36.5881 17.7051C36.3678 17.9255 36.2576 17.9034 36.0594 17.694C34.7929 16.4046 33.5153 15.1261 32.2377 13.8587C31.2135 12.8447 30.1892 11.8308 29.165 10.8058C29.0218 10.6405 28.8786 10.4532 28.6804 10.343C28.5262 10.1115 28.328 9.91314 28.0967 9.75884C28.0416 9.65965 27.9645 9.59352 27.8654 9.53842ZM35.685 11.423C35.74 11.4781 35.7951 11.5443 35.9052 11.4892C35.8391 11.4451 35.7841 11.412 35.729 11.3789C35.5858 11.2357 35.4427 11.0924 35.2885 10.9381C34.881 10.4091 34.6277 9.81395 34.5175 9.1637C34.3964 8.42529 34.3964 7.69789 34.7048 6.99254C34.925 6.48557 35.4647 6.188 35.9603 6.26515C36.511 6.35332 36.8964 6.78314 36.9515 7.35624C36.9735 7.5436 36.9405 7.66483 36.7422 7.74198C36.1916 7.95138 35.8171 8.3812 35.4977 8.85511C35.1453 9.38412 35.2114 10.0013 35.6739 10.4311C36.2026 10.9161 36.9074 11.1255 37.5132 11.5002C37.7885 11.6655 38.0749 11.423 37.9427 11.1365C37.7555 10.6956 37.7224 10.2548 37.7114 9.80293C37.7114 9.61557 37.6013 9.48331 37.392 9.47229C37.1828 9.46127 37.0506 9.54944 36.9845 9.75884C36.8964 10.0564 36.9735 10.3099 37.1608 10.5303C37.2819 10.6736 37.4251 10.8058 37.5462 10.9601C37.6013 11.0263 37.6233 11.1144 37.5683 11.1916C37.5242 11.2577 37.4581 11.2246 37.403 11.1916C36.9405 10.8499 36.3678 10.6846 35.9272 10.2879C35.707 10.0895 35.5748 9.86905 35.5968 9.56046C35.6409 8.98736 36.3237 8.23793 36.8964 8.12772C36.9625 8.28201 36.8414 8.44733 36.8854 8.64571C37.0837 8.24895 37.1277 7.85219 37.1387 7.45543C37.1608 6.66191 36.7202 6.07779 35.9823 5.9235C35.3215 5.78022 34.5616 6.188 34.2752 6.86029C33.7135 8.1718 34.11 10.0674 35.1563 11.0373C35.3325 11.2026 35.4867 11.3349 35.685 11.423ZM38.4163 12.9109C38.4053 13.3848 38.174 13.7044 37.7114 13.8477C37.2819 13.9799 36.9735 13.8587 36.6431 13.3958C36.2577 12.8668 35.7951 12.4039 35.3435 11.941C34.121 10.6736 33.6585 9.15268 33.8457 7.43339C34.0329 5.70307 35.5308 4.86547 37.1167 5.59286C37.1938 5.62593 37.2709 5.72512 37.381 5.69205C37.381 5.57082 37.3039 5.54878 37.2378 5.51572C35.762 4.58994 34.044 5.18508 33.5704 6.87131C33.0748 8.64571 33.4382 10.2879 34.6056 11.7316C35.1783 12.448 35.9162 13.0101 36.4889 13.7264C36.8414 14.1673 37.337 14.2665 37.8216 14.0571C38.3282 13.8477 38.5705 13.4178 38.5154 12.8448C38.5374 12.5141 38.4714 12.1945 38.4163 11.8749C38.4053 12.2165 38.3722 12.5582 38.4163 12.9109Z" fill="#6C6F71"/>
<path d="M29.1434 10.8058C30.1676 11.8198 31.2029 12.8337 32.2161 13.8587C33.4937 15.1371 34.7713 16.4045 36.0378 17.694C36.2471 17.9034 36.3572 17.9255 36.5665 17.705C39.2317 15.0269 41.908 12.3488 44.5842 9.68167C44.6724 9.59351 44.7605 9.52738 44.8486 9.43921C45.0358 9.62657 45.3442 9.46125 45.5204 9.73678C45.8838 10.3209 46.5226 10.6515 46.9411 11.1916C47.2385 11.5773 47.679 11.8528 48.0645 12.1724C48.0865 12.1835 48.1306 12.1835 48.1306 12.1945C48.2407 12.7455 48.9015 12.8778 49.0447 13.3958L49.0337 13.4178C48.9346 13.3958 48.8685 13.3186 48.8024 13.2525C47.69 12.1504 46.5777 11.0483 45.4874 9.93516C45.223 9.67065 45.0909 9.72576 44.8596 9.9572C43.4829 11.3569 42.0952 12.7455 40.7075 14.1342C39.441 15.4016 38.1744 16.6801 36.9079 17.9365C36.6986 18.1459 36.6876 18.2892 36.9079 18.4986C37.5907 19.1488 38.2515 19.8101 38.9123 20.4713C40.9058 22.4662 42.8882 24.461 44.8706 26.4558C45.19 26.7754 45.212 26.7644 45.5314 26.4448C47.0402 24.9239 48.5601 23.414 50.0689 21.8931C51.2254 20.7358 52.3708 19.5676 53.5382 18.4214C53.7034 18.2561 53.7034 18.1459 53.5382 17.9806C53.2849 17.7271 52.9875 17.5067 52.8113 17.187L52.8333 17.176C53.1747 17.3524 53.4501 17.5948 53.6924 17.8814C53.9567 18.212 53.8245 18.6308 53.4391 18.7961C53.1417 18.9284 52.9875 19.248 52.7672 19.4684C51.721 20.5264 50.6416 21.5624 49.6064 22.6425C48.9676 23.3148 48.2627 23.9209 47.6129 24.5932C47.1063 25.1222 46.6107 25.6513 46.038 26.1031C46.016 26.1141 45.994 26.1362 45.994 26.1582C46.0601 26.4999 45.6966 26.4558 45.5755 26.6321C45.4103 26.8746 45.1459 26.9187 44.8926 26.9848C43.8463 26.026 42.8661 24.99 41.8639 23.9871C40.1128 22.2457 38.3616 20.4934 36.6215 18.741C36.4013 18.5096 36.2801 18.4875 36.0378 18.73C33.4166 21.3751 30.7734 24.0091 28.1412 26.6432C28.0531 26.7313 27.9429 26.8195 27.8438 26.9077C27.161 26.9077 26.8856 26.3125 26.4341 25.9709C26.0927 25.7174 25.9054 25.3206 25.509 25.1663C25.3437 25.1002 25.4319 24.8798 25.3217 24.8467C24.9032 24.6924 24.7711 24.2406 24.4296 24.0422C24.2204 23.9209 24.1984 23.7666 24.1543 23.5903C24.1653 23.5793 24.1763 23.5683 24.1763 23.5683C24.2314 23.6013 24.3085 23.6344 24.3525 23.6785C25.3107 24.6263 26.2799 25.5631 27.216 26.5329C27.4473 26.7754 27.5795 26.7423 27.7997 26.5329C28.857 25.4639 29.9253 24.3948 30.9936 23.3368C32.5906 21.7388 34.1765 20.1517 35.7735 18.5537C35.9167 18.4104 36.0929 18.2781 35.8616 18.0467C35.0025 17.187 34.1435 16.3274 33.2955 15.4678C31.8417 14.013 30.3879 12.5582 28.9231 11.1034C28.857 11.0373 28.7799 10.9711 28.7689 10.872C28.7799 10.8609 28.791 10.8499 28.802 10.8389C28.9011 10.8058 29.0112 10.9491 29.1434 10.8058Z" fill="#F6F2DF"/>
<path d="M46.8752 43.9685C46.3245 43.9685 45.7628 43.9574 45.2121 43.9685C44.9809 43.9795 44.8707 43.9023 44.9038 43.6599C44.9148 43.5717 44.9148 43.4946 44.9038 43.4064C44.8597 43.1419 44.9809 43.0758 45.2232 43.0868C46.2694 43.0978 47.3157 43.0868 48.373 43.0868C48.7144 43.0868 49.0008 43.0096 49.0999 42.6239C49.199 42.2271 48.9567 41.9296 48.5052 41.9185C47.7562 41.9075 47.0073 41.9296 46.2584 41.9075C45.2011 41.8855 44.5844 41.0148 44.9148 40.056C45.091 39.538 45.5536 39.2073 46.2144 39.1963C47.2937 39.1743 48.384 39.1963 49.4633 39.1853C49.6616 39.1853 49.7056 39.2514 49.7056 39.4388C49.7277 40.067 49.7387 40.067 49.0999 40.067C48.2188 40.067 47.3377 40.067 46.4567 40.067C45.95 40.067 45.7408 40.2323 45.7408 40.618C45.7408 40.9928 45.95 41.1471 46.4346 41.1471C47.1285 41.1471 47.8333 41.125 48.5272 41.1581C49.5955 41.2022 50.0911 41.8634 49.8929 42.8994C49.7607 43.5386 49.2761 43.9244 48.5272 43.9464C47.9875 43.9795 47.4258 43.9685 46.8752 43.9685Z" fill="#6C6F71"/>
<path d="M41.2023 43.9467C40.916 43.9467 40.6186 43.9798 40.3323 43.9467C39.1208 43.7924 38.3058 42.7675 38.3278 41.467C38.3499 40.2216 39.1869 39.3068 40.4204 39.2187C41.0151 39.1746 41.6208 39.1525 42.2266 39.2517C43.4821 39.4501 44.198 40.42 44.1099 41.7756C44.0328 42.9879 43.1077 43.9137 41.9182 43.9578C41.6759 43.9688 41.4336 43.9578 41.1913 43.9578C41.2023 43.9578 41.2023 43.9577 41.2023 43.9467ZM41.2464 43.0981C41.4446 43.0981 41.6319 43.0981 41.8301 43.0981C42.6561 43.065 43.2398 42.4589 43.2508 41.6213C43.2619 40.7506 42.7112 40.1334 41.8521 40.0893C41.4556 40.0673 41.0592 40.0673 40.6627 40.0893C39.7816 40.1224 39.1979 40.7506 39.2199 41.6103C39.2419 42.4809 39.8367 43.0761 40.7067 43.0981C40.8829 43.0981 41.0592 43.0981 41.2464 43.0981Z" fill="#6C6F71"/>
<path d="M6.91848 41.5655C6.91848 40.8712 6.91848 40.1658 6.91848 39.4715C6.91848 39.3392 6.89646 39.196 7.10571 39.207C8.09692 39.24 9.08813 39.1298 10.0683 39.2621C11.2908 39.4274 12.0287 40.3973 11.9737 41.6757C11.9186 42.9321 11.0595 43.902 9.84806 43.9681C8.94496 44.0122 8.04186 43.9791 7.13875 43.9901C6.9295 43.9901 6.90747 43.8909 6.90747 43.7146C6.91848 42.9872 6.91848 42.2708 6.91848 41.5655ZM7.77753 41.5655C7.77753 41.9733 7.78855 42.3811 7.77753 42.7888C7.76652 43.0203 7.8326 43.1084 8.0749 43.0974C8.59253 43.0864 9.11016 43.0974 9.62779 43.0864C10.4868 43.0754 11.0816 42.4692 11.1036 41.5875C11.1256 40.7609 10.5639 40.1327 9.72691 40.0776C9.16523 40.0446 8.59253 40.0776 8.03084 40.0666C7.84361 40.0666 7.77753 40.1438 7.78855 40.3201C7.78855 40.7389 7.77753 41.1577 7.77753 41.5655Z" fill="#6C6F71"/>
<path d="M50.7739 41.5652C50.7739 40.8709 50.785 40.1656 50.7739 39.4712C50.7739 39.2618 50.829 39.1957 51.0383 39.2067C52.0845 39.2177 53.1308 39.1957 54.1881 39.2177C55.2564 39.2398 55.8732 39.9121 55.8511 40.9811C55.8291 42.0061 55.1683 42.6563 54.122 42.6563C53.5824 42.6563 53.0317 42.6453 52.492 42.6674C52.2497 42.6784 52.1616 42.6012 52.1947 42.3698C52.2057 42.2816 52.2057 42.2045 52.1947 42.1163C52.1616 41.8849 52.2387 41.7967 52.492 41.8077C53.0097 41.8297 53.5273 41.8187 54.0449 41.8187C54.6507 41.8187 54.9921 41.5101 54.9921 40.9811C54.9921 40.408 54.6727 40.1105 54.0449 40.0994C53.3511 40.0884 52.6462 40.1105 51.9524 40.0884C51.7101 40.0884 51.644 40.1766 51.644 40.408C51.655 41.4771 51.633 42.5571 51.655 43.6262C51.666 43.9568 51.5339 44.0119 51.2585 43.9789C51.0273 43.9568 50.7519 44.0781 50.7739 43.6372C50.796 42.9429 50.7739 42.2596 50.7739 41.5652Z" fill="#6C6F71"/>
<path d="M66.093 41.974C65.8397 41.5222 65.5753 41.0813 65.322 40.6295C65.2009 40.398 65.1238 40.4641 65.0136 40.6515C64.463 41.5993 63.8793 42.5251 63.3506 43.4839C63.1414 43.8697 62.8991 44.046 62.4806 43.9689C62.3704 43.9468 62.2493 43.9689 62.051 43.9689C62.3924 43.3958 62.7118 42.8778 63.0202 42.3488C63.5819 41.412 64.1436 40.4641 64.7163 39.5273C65.0357 39.0094 65.3661 38.9983 65.6855 39.5163C66.5225 40.905 67.3705 42.3047 68.2075 43.6933C68.2516 43.7595 68.3177 43.8256 68.2846 43.9578C68.0093 43.9578 67.723 43.9578 67.4366 43.9578C67.2824 43.9578 67.2163 43.8476 67.1833 43.7374C66.8859 42.8447 66.2471 42.6353 65.3881 42.7676C65.1128 42.8116 64.8374 42.7676 64.5621 42.7676C64.3969 42.7676 64.3859 42.7014 64.452 42.5692C64.6172 42.2385 64.7934 41.952 65.267 42.0402C65.5092 42.0842 65.7736 42.0402 66.0269 42.0291C66.0599 42.0512 66.093 42.0622 66.115 42.0291C66.115 42.0291 66.093 41.9961 66.093 41.974Z" fill="#6C6F71"/>
<path d="M6.21308 43.9684C5.93774 43.9684 5.6624 43.9684 5.37605 43.9684C5.22187 43.9684 5.15579 43.8582 5.12274 43.748C4.83639 42.8773 4.20863 42.6459 3.37161 42.7781C3.09627 42.8222 2.82093 42.7892 2.5456 42.7781C2.4685 42.7781 2.35837 42.8222 2.36938 42.6789C2.3804 42.4365 2.78789 42.0618 3.0412 42.0618C3.31654 42.0618 3.59188 42.0618 3.86721 42.0618C3.99937 42.0618 4.09849 42.0287 4.01039 41.8744C3.73505 41.4005 3.4487 40.9266 3.12931 40.3976C2.876 40.8164 2.65573 41.1691 2.44648 41.5328C2.02797 42.2491 1.60945 42.9655 1.17993 43.6819C1.04777 43.9133 0.353921 44.1007 0.133652 43.9574C-0.0205362 43.8582 0.133652 43.77 0.177706 43.6929C0.673311 42.8663 1.16892 42.0397 1.66452 41.2131C2.02797 40.618 2.36938 40.0118 2.74384 39.4167C2.97512 39.042 3.34958 39.053 3.58086 39.4277C4.45092 40.8605 5.30997 42.2932 6.16902 43.737C6.20206 43.7921 6.25713 43.8472 6.21308 43.9684Z" fill="#6C6F71"/>
<path d="M23.9338 43.9249C24.4625 43.0432 24.9691 42.1836 25.4867 41.3349C25.8612 40.7067 26.2356 40.0675 26.6321 39.4503C26.8854 39.0536 27.2269 39.0536 27.4912 39.4393C27.5352 39.5054 27.5793 39.5826 27.6233 39.6597C28.4714 41.0704 29.3194 42.4922 30.2005 43.9359C29.8591 44.0131 29.5397 43.98 29.2313 43.969C29.1102 43.969 29.0661 43.8367 29.0331 43.7375C28.7577 42.933 28.185 42.6575 27.37 42.8007C27.0837 42.8448 26.7973 42.8007 26.5 42.8118C26.3017 42.8118 26.2577 42.7787 26.3458 42.5693C26.511 42.1615 26.7863 42.0403 27.2158 42.0734C27.4471 42.0954 27.7996 42.2056 27.9207 41.9962C28.0198 41.8199 27.7335 41.5884 27.6233 41.379C27.5022 41.1476 27.337 40.9272 27.2158 40.6957C27.0947 40.4422 27.0066 40.4532 26.8744 40.6957C26.3568 41.5774 25.7841 42.437 25.3325 43.3518C25.0021 43.9469 24.5836 44.0792 23.9338 43.9249Z" fill="#6C6F71"/>
<path d="M42.9646 49.181C42.9646 48.7071 42.9646 48.2442 42.9646 47.7703C42.9646 47.583 42.8986 47.3625 43.1409 47.2744C43.3831 47.1752 43.5594 47.3074 43.7136 47.4727C44.4074 48.156 45.1012 48.8394 45.7951 49.5227C45.9052 49.6329 46.0044 49.8643 46.1696 49.7982C46.3348 49.7321 46.2356 49.4896 46.2356 49.3353C46.2466 48.7291 46.2466 48.134 46.2356 47.5278C46.2356 47.3184 46.2907 47.2193 46.522 47.2413C46.7202 47.2633 46.9075 47.2193 46.8964 47.5278C46.8854 48.5859 46.8964 49.6549 46.8964 50.7129C46.8964 50.8893 46.8634 51.0656 46.6762 51.1317C46.4889 51.1979 46.3237 51.1317 46.1916 50.9885C45.4647 50.2501 44.7378 49.5227 43.9999 48.7843C43.9118 48.6961 43.8567 48.5638 43.7136 48.6189C43.5704 48.674 43.6144 48.8173 43.6144 48.9385C43.6144 49.5667 43.6034 50.195 43.6254 50.8232C43.6365 51.0987 43.5153 51.1428 43.273 51.1317C43.0417 51.1207 42.9206 51.0877 42.9316 50.8011C42.9536 50.2721 42.9426 49.7431 42.9426 49.2141C42.9536 49.181 42.9646 49.181 42.9646 49.181Z" fill="#F6C132"/>
<path d="M20.5857 49.1038C20.5857 49.5887 20.5857 50.0626 20.5857 50.5476C20.5857 50.757 20.6297 51.0215 20.3874 51.1206C20.1231 51.2309 19.9359 51.0435 19.7707 50.8672C19.0768 50.1618 18.383 49.4675 17.7002 48.7621C17.6231 48.674 17.546 48.5417 17.4138 48.5968C17.2706 48.6519 17.3257 48.8062 17.3147 48.9164C17.3147 49.5336 17.3037 50.1508 17.3147 50.757C17.3257 51.0325 17.2156 51.1096 16.9513 51.1096C16.6649 51.1096 16.6208 50.9884 16.6208 50.7349C16.6319 49.743 16.6208 48.7621 16.6319 47.7702C16.6319 47.5719 16.6098 47.3404 16.8631 47.2633C17.0944 47.1861 17.2486 47.3294 17.4028 47.4727C18.1517 48.2111 18.9116 48.9605 19.6606 49.6989C19.7156 49.754 19.7597 49.8532 19.8588 49.8091C19.9579 49.7651 19.9249 49.6659 19.9249 49.5887C19.9249 48.9164 19.9469 48.2331 19.9139 47.5608C19.8918 47.1751 20.1562 47.2412 20.3654 47.2302C20.6187 47.2192 20.5857 47.4065 20.5857 47.5829C20.5857 48.0898 20.5857 48.5968 20.5857 49.1038Z" fill="#F6C132"/>
<path d="M33.4053 49.1815C33.4053 48.6415 33.4163 48.0904 33.4053 47.5504C33.4053 47.352 33.4494 47.2638 33.6696 47.2748C34.3635 47.2859 35.0683 47.2969 35.7622 47.2859C36.7644 47.2748 37.7556 48.2447 37.3922 49.6885C37.1609 50.6142 36.5772 51.0551 35.619 51.0881C34.9912 51.1102 34.3635 51.0881 33.7357 51.0992C33.4934 51.0992 33.3943 51.033 33.3943 50.7796C33.4163 50.2395 33.4053 49.7105 33.4053 49.1815ZM34.0771 49.1594C34.0771 49.4791 34.0771 49.8097 34.0771 50.1293C34.0771 50.3277 34.1652 50.4159 34.3635 50.4048C34.771 50.3938 35.1785 50.4159 35.586 50.4048C36.2908 50.3828 36.7864 49.8428 36.7864 49.1374C36.7754 48.4651 36.2908 47.9692 35.586 47.9581C35.1785 47.9471 34.771 47.9692 34.3635 47.9471C34.1322 47.9361 34.0771 48.0463 34.0881 48.2557C34.0771 48.5533 34.0771 48.8619 34.0771 49.1594Z" fill="#F6C132"/>
<path d="M19.1323 39.207C19.5068 39.207 19.7821 39.2181 20.0575 39.207C20.2447 39.196 20.3658 39.2621 20.487 39.4054C20.9385 39.9675 21.4231 40.5075 21.8747 41.0696C22.0619 41.3011 22.172 41.3562 22.3703 41.0806C22.7778 40.5626 23.2293 40.0777 23.6368 39.5487C23.8461 39.2842 24.0553 39.1409 24.3968 39.196C24.584 39.2181 24.7712 39.196 24.9695 39.196C24.9915 39.3613 24.8703 39.4385 24.8043 39.5156C24.1104 40.3312 23.4166 41.1468 22.7117 41.9513C22.5905 42.0946 22.5355 42.2268 22.5355 42.4032C22.5465 42.822 22.5245 43.2518 22.5465 43.6706C22.5575 43.891 22.4914 43.9682 22.2601 43.9571C21.5333 43.9351 21.6214 44.0343 21.6764 43.373C21.7425 42.5244 21.5112 41.8521 20.8945 41.2459C20.2887 40.6508 19.7601 39.9455 19.1323 39.207Z" fill="#6C6F71"/>
<path d="M60.4106 39.2067C61.0384 39.2067 61.6661 39.2178 62.2939 39.1957C62.5472 39.1847 62.6573 39.2508 62.6243 39.5153C62.6133 39.6145 62.6133 39.7137 62.6243 39.8019C62.6573 40.0333 62.5582 40.0995 62.338 40.0884C61.9745 40.0664 61.6111 40.0995 61.2586 40.0774C60.9392 40.0554 60.8181 40.1325 60.8291 40.4852C60.8511 41.5322 60.8181 42.5792 60.8511 43.6372C60.8622 44.045 60.6199 43.9679 60.3886 43.9679C60.1573 43.9789 59.948 44.0119 59.9591 43.6372C59.9921 42.5792 59.9591 41.5102 59.9701 40.4521C59.9701 40.1766 59.904 40.0554 59.6066 40.0774C59.2211 40.0995 58.8357 40.0664 58.4502 40.0884C58.2299 40.0995 58.1528 40.0333 58.1639 39.8019C58.1969 39.0855 58.0647 39.2178 58.7476 39.2067C59.2982 39.1957 59.8599 39.2067 60.4106 39.2067Z" fill="#6C6F71"/>
<path d="M16.598 39.2073C17.2368 39.2073 17.8755 39.2184 18.5143 39.1963C18.7676 39.1853 18.8668 39.2625 18.8447 39.5159C18.8337 39.6151 18.8337 39.7143 18.8447 39.8025C18.8778 40.0339 18.7676 40.089 18.5474 40.078C18.1619 40.067 17.7764 40.089 17.3909 40.067C17.1266 40.056 17.0385 40.1331 17.0385 40.4086C17.0495 41.4667 17.0385 42.5357 17.0495 43.5937C17.0495 43.8693 16.9945 43.9905 16.6971 43.9574C16.4438 43.9244 16.1464 44.0677 16.1685 43.5827C16.2015 42.5247 16.1685 41.4557 16.1905 40.3976C16.1905 40.1441 16.1134 40.056 15.8601 40.067C15.4746 40.089 15.0891 40.067 14.7037 40.078C14.4834 40.089 14.3843 40.045 14.3843 39.7804C14.3953 39.1853 14.3733 39.1853 14.979 39.1853C15.5076 39.2073 16.0583 39.2073 16.598 39.2073Z" fill="#6C6F71"/>
<path d="M55.9612 51.0878C55.5096 51.209 55.3775 50.8454 55.2453 50.5698C55.0801 50.2392 54.8598 50.118 54.5074 50.151C54.2321 50.1731 53.9567 50.162 53.6814 50.151C53.5382 50.151 53.3069 50.2171 53.2959 50.0077C53.2959 49.8204 53.4061 49.6 53.6594 49.5779C53.8466 49.5559 54.0448 49.5559 54.2321 49.5669C54.5294 49.5779 54.5735 49.4457 54.4413 49.2142C54.3092 48.9828 54.166 48.7624 54.0338 48.5309C53.8796 48.2554 53.7695 48.3325 53.6484 48.553C53.2078 49.3134 52.7563 50.0739 52.3157 50.8233C52.2386 50.9445 52.1836 51.0988 52.0074 51.0988C51.8201 51.0988 51.5668 51.187 51.4567 51.0437C51.3355 50.8894 51.5558 50.7241 51.6439 50.5808C52.2056 49.622 52.7783 48.6852 53.34 47.7264C53.3951 47.6382 53.4501 47.539 53.5162 47.4509C53.7695 47.1092 54.0118 47.1202 54.2431 47.4949C54.7938 48.3876 55.3224 49.2914 55.8621 50.1841C55.9722 50.3604 56.0713 50.5368 56.1704 50.7131C56.2255 50.8123 56.3907 50.8894 56.3136 51.0107C56.2365 51.165 56.0713 51.0768 55.9612 51.0878Z" fill="#F6C132"/>
<path d="M68.957 41.5883C68.957 40.905 68.968 40.2107 68.957 39.5274C68.957 39.2849 69.0121 39.1637 69.2764 39.1968C69.3205 39.2078 69.3755 39.2078 69.4196 39.1968C69.739 39.1527 69.8601 39.2408 69.8491 39.5935C69.8271 40.6405 69.8491 41.6875 69.8381 42.7456C69.8381 43.0101 69.9042 43.0982 70.1795 43.0982C71.0055 43.0872 71.8426 43.0982 72.6686 43.0872C72.9439 43.0762 73.043 43.1644 73.01 43.4289C72.999 43.5391 72.999 43.6493 73.01 43.7595C73.021 43.9138 72.9549 43.9689 72.8007 43.9689C71.6003 43.9689 70.3888 43.9579 69.1883 43.9689C68.968 43.9689 68.9791 43.8366 68.9791 43.6823C68.957 42.988 68.957 42.2937 68.957 41.5883Z" fill="#6C6F71"/>
<path d="M38.482 49.17C38.482 48.6521 38.493 48.1341 38.482 47.6161C38.471 47.3626 38.5701 47.2744 38.8124 47.2744C39.7376 47.2854 40.6737 47.2854 41.5988 47.2744C41.8301 47.2744 41.9182 47.3516 41.9182 47.583C41.9182 47.8144 41.8962 47.9798 41.5988 47.9798C40.905 47.9687 40.2001 47.9908 39.5063 47.9798C39.242 47.9798 39.1759 48.079 39.1869 48.3214C39.1979 48.9166 39.1979 49.5007 39.1869 50.0958C39.1869 50.3493 39.264 50.4375 39.5173 50.4264C40.2001 50.4154 40.894 50.4375 41.5768 50.4154C41.8521 50.4044 41.9292 50.5146 41.9292 50.7681C41.9292 51.0106 41.8521 51.1098 41.5988 51.1098C40.6737 51.0987 39.7376 51.0987 38.8124 51.1098C38.5481 51.1098 38.482 51.0216 38.493 50.7681C38.5041 50.2281 38.493 49.6991 38.482 49.17C38.493 49.17 38.493 49.17 38.482 49.17Z" fill="#F6C132"/>
<path d="M12.1605 49.1811C12.1605 48.6631 12.1715 48.1451 12.1605 47.6271C12.1605 47.3846 12.2266 47.2744 12.4909 47.2744C13.438 47.2854 14.3962 47.2854 15.3434 47.2854C15.5636 47.2854 15.5967 47.4067 15.5967 47.583C15.5967 47.7924 15.6077 47.9687 15.3103 47.9687C14.6385 47.9577 13.9557 47.9908 13.2839 47.9577C12.9204 47.9467 12.8323 48.079 12.8543 48.4206C12.8764 48.9276 12.8653 49.4346 12.8543 49.9415C12.8543 50.3824 12.8874 50.4264 13.3169 50.4264C13.9667 50.4264 14.6165 50.4375 15.2663 50.4264C15.5636 50.4154 15.5967 50.5587 15.5967 50.8012C15.5967 51.0767 15.4755 51.1098 15.2443 51.0987C14.3301 51.0877 13.416 51.0987 12.5019 51.1098C12.2486 51.1098 12.1495 51.0436 12.1605 50.7791C12.1715 50.2391 12.1605 49.7101 12.1605 49.1811Z" fill="#F6C132"/>
<path d="M37.5467 41.5985C37.5467 42.2818 37.5357 42.9761 37.5577 43.6594C37.5688 43.9129 37.4917 44.0231 37.2383 43.9791C37.1723 43.968 37.0952 43.968 37.0181 43.9791C36.7097 44.0342 36.6546 43.8799 36.6656 43.6154C36.6767 43.1525 36.6546 42.7006 36.6767 42.2377C36.6877 41.9953 36.6106 41.9181 36.3793 41.9291C35.7846 41.9402 35.2009 41.9071 34.6061 41.9402C34.2427 41.9622 34.3088 41.7308 34.2978 41.5214C34.2867 41.312 34.2647 41.1246 34.5951 41.1356C35.2009 41.1577 35.7956 41.1356 36.4013 41.1466C36.6106 41.1466 36.6767 41.0805 36.6656 40.8821C36.6546 40.4082 36.6767 39.9453 36.6546 39.4714C36.6436 39.24 36.7207 39.1849 36.941 39.1959C37.6458 39.2179 37.5247 39.1188 37.5357 39.791C37.5467 40.3972 37.5467 40.9923 37.5467 41.5985Z" fill="#6C6F71"/>
<path d="M49.6502 47.2744C50.1238 47.2744 50.5863 47.2854 51.0599 47.2744C51.2692 47.2744 51.4123 47.2965 51.4013 47.561C51.3903 47.8034 51.3793 48.0018 51.0599 47.9908C50.8066 47.9798 50.5533 48.0018 50.3 47.9798C50.0246 47.9577 49.9365 48.079 49.9475 48.3435C49.9586 49.137 49.9365 49.9305 49.9586 50.735C49.9586 50.9995 49.9145 51.1318 49.6061 51.1318C49.2867 51.1318 49.2537 50.9775 49.2647 50.724C49.2757 49.9305 49.2647 49.137 49.2757 48.3324C49.2757 48.09 49.1986 47.9798 48.9453 47.9798C48.67 47.9908 48.3947 47.9687 48.1193 47.9798C47.7999 47.9908 47.844 47.7704 47.833 47.561C47.822 47.3185 47.9431 47.2744 48.1413 47.2854C48.6369 47.2854 49.1436 47.2744 49.6502 47.2744Z" fill="#F6C132"/>
<path d="M23.2728 47.2752C23.7354 47.2752 24.1869 47.2752 24.6495 47.2752C24.8698 47.2752 25.079 47.2311 25.079 47.5838C25.079 47.9475 24.9028 47.9695 24.6275 47.9585C24.4402 47.9475 24.242 47.9695 24.0548 47.9585C23.7354 47.9365 23.6252 48.0797 23.6252 48.3883C23.6363 49.1708 23.6142 49.9533 23.6252 50.7358C23.6252 51.0003 23.5482 51.0885 23.2728 51.0995C22.9975 51.1105 22.9204 51.0003 22.9204 50.7469C22.9314 49.9423 22.9094 49.1267 22.9314 48.3222C22.9314 48.0467 22.8213 47.9585 22.568 47.9695C22.2926 47.9806 22.0173 47.9806 21.7419 47.9806C21.4666 47.9916 21.4886 47.7932 21.4886 47.6058C21.4776 47.4075 21.5107 47.2752 21.753 47.2752C22.2596 47.2752 22.7662 47.2752 23.2728 47.2752Z" fill="#F6C132"/>
<path d="M57.2825 49.1706C57.2825 48.6416 57.2936 48.1125 57.2715 47.5835C57.2605 47.33 57.3596 47.2639 57.5799 47.2639C57.8002 47.2639 57.9764 47.2639 57.9764 47.5725C57.9654 48.366 57.9874 49.1706 57.9764 49.9641C57.9654 50.3057 58.0975 50.4049 58.4169 50.4049C59.0116 50.3829 59.5954 50.416 60.1901 50.3939C60.5756 50.3829 60.4875 50.6254 60.5205 50.8458C60.5645 51.1323 60.3663 51.0993 60.2011 51.0993C59.32 51.0993 58.439 51.0882 57.5579 51.0993C57.3376 51.0993 57.2605 51.0221 57.2715 50.8017C57.2936 50.2617 57.2936 49.7216 57.2825 49.1706Z" fill="#F6C132"/>
<path d="M24.132 23.5567C23.8567 23.5346 23.7686 23.2701 23.5813 23.1379C23.1298 22.8183 22.8655 22.2782 22.4029 21.9917C22.0064 21.7492 21.8412 21.3084 21.4447 21.0549C21.2134 20.9006 20.883 20.6471 20.7619 20.3055C20.7399 20.2503 20.7068 20.1842 20.6628 20.1622C20.2773 20.0079 20.1121 19.5781 19.7376 19.4017C19.4953 19.2915 19.5284 18.9609 19.2861 18.7956C19.0768 18.6523 18.9336 18.4098 18.6143 18.4759C18.7354 18.0902 19.0768 17.8698 19.1539 17.5061C19.1759 17.4179 19.242 17.4069 19.3081 17.3849C19.7707 17.1975 20.1121 16.8779 20.2993 16.404C20.3213 16.3379 20.3324 16.2607 20.4205 16.2387C21.0042 16.1505 21.2355 15.6876 21.4557 15.2357C21.4998 15.1366 21.5548 15.0925 21.654 15.0594C22.1055 14.9161 22.4029 14.5965 22.5681 14.1667C22.6232 14.0234 22.7002 13.9463 22.8544 13.8912C23.306 13.7038 23.6474 13.3952 23.7906 12.9103C23.8126 12.8552 23.8236 12.8001 23.8897 12.778C24.4294 12.6127 24.7708 12.249 24.958 11.72C24.98 11.6539 25.0131 11.6208 25.0792 11.6098C25.5417 11.5327 25.8281 11.202 25.9933 10.8163C26.1254 10.5077 26.3457 10.3534 26.61 10.2322C26.7642 10.166 26.8964 10.0779 26.9625 9.94561C27.1607 9.5709 27.4691 9.47171 27.8545 9.53783V9.54885C27.8215 9.72519 27.8986 9.79132 28.0748 9.76928C28.1079 10.122 28.3501 10.2762 28.6585 10.3534C28.6145 10.5297 28.8127 10.6399 28.7907 10.8053C28.7797 10.8163 28.7687 10.8273 28.7576 10.8383C28.3612 10.6289 28.1079 10.2762 27.8105 9.95664C27.5572 9.68111 27.403 9.73621 27.1827 9.95664C26.4448 10.7061 25.7069 11.4445 24.969 12.1829C23.0417 14.1116 21.1253 16.0293 19.187 17.9469C18.9006 18.2335 19.0768 18.3768 19.2641 18.5531C20.5526 19.8426 21.8632 21.132 23.1408 22.4325C23.4932 22.7852 23.8897 23.1048 24.165 23.5346C24.154 23.5457 24.143 23.5457 24.132 23.5567Z" fill="#F6F2DF"/>
<path d="M57.4706 41.6205C57.4706 42.2928 57.4596 42.9761 57.4706 43.6484C57.4706 43.8909 57.4155 44.0121 57.151 43.979C57.0628 43.968 56.9857 43.968 56.8975 43.979C56.644 44.0121 56.5779 43.9129 56.5779 43.6594C56.5889 42.2818 56.5889 40.9152 56.5779 39.5375C56.5779 39.2951 56.633 39.1738 56.8975 39.2069C56.9967 39.2179 57.0959 39.2179 57.184 39.2069C57.4155 39.1738 57.4706 39.273 57.4706 39.4935C57.4706 40.1988 57.4706 40.9042 57.4706 41.6205Z" fill="#6C6F71"/>
<path d="M12.8101 41.5438C12.8101 40.8716 12.8211 40.1882 12.8101 39.516C12.7991 39.2625 12.8872 39.1633 13.1407 39.1963C13.2399 39.2074 13.3391 39.2074 13.4273 39.1963C13.6587 39.1633 13.7028 39.2735 13.7028 39.4939C13.6918 40.8826 13.6918 42.2712 13.7028 43.6489C13.7028 43.9024 13.6257 44.0015 13.3722 43.9685C13.273 43.9575 13.1738 43.9575 13.0856 43.9685C12.8542 44.0015 12.7991 43.8803 12.7991 43.6709C12.8101 42.9656 12.7991 42.2602 12.8101 41.5438Z" fill="#6C6F71"/>
<path d="M33.7689 41.6098C33.7689 42.2931 33.7579 42.9874 33.7689 43.6707C33.7689 43.8911 33.7248 44.0124 33.4713 43.9793C33.3501 43.9683 33.2289 43.9683 33.1076 43.9793C32.9313 44.0013 32.8872 43.9132 32.8872 43.7479C32.8872 42.3151 32.8872 40.8714 32.8872 39.4386C32.8872 39.2402 32.9644 39.1961 33.1407 39.1961C33.7689 39.1741 33.7579 39.1741 33.7579 39.7913C33.7579 40.3974 33.7689 41.0036 33.7689 41.6098Z" fill="#6C6F71"/>
<path d="M29.4844 51.0984C29.231 51.0984 28.9777 51.1095 28.7244 51.0984C28.0526 51.0764 27.6782 50.3931 28.0416 49.831C28.1407 49.6657 28.1738 49.5665 28.0636 49.3902C27.7993 48.9714 27.9975 48.5085 28.4601 48.3432C28.7134 48.255 28.9888 48.2881 29.2531 48.2881C29.4073 48.2881 29.4623 48.3762 29.4513 48.5195C29.4403 48.6628 29.4293 48.795 29.2421 48.795C29.1099 48.795 28.9777 48.795 28.8456 48.806C28.6694 48.8391 28.5042 48.9163 28.5262 49.1257C28.5372 49.324 28.6804 49.4232 28.8676 49.4342C29.2641 49.4453 29.6606 49.4343 30.0571 49.4453C30.1782 49.4453 30.3434 49.3902 30.3875 49.5775C30.4205 49.7318 30.3985 49.842 30.2112 49.9082C29.98 49.9963 30.0901 50.2168 30.0791 50.3821C30.0681 50.5474 30.1892 50.5804 30.3214 50.5804C30.5196 50.5804 30.5527 50.6907 30.5637 50.867C30.5637 51.0654 30.4535 51.1095 30.2883 51.1095C30.013 51.0984 29.7487 51.0984 29.4844 51.0984ZM28.9667 50.6135C29.1319 50.6135 29.187 50.6135 29.2421 50.6135C29.5504 50.6466 29.5504 50.4482 29.5504 50.2278C29.5504 50.0073 29.5284 49.842 29.2531 49.8641C29.0769 49.8751 28.8896 49.8641 28.7134 49.8861C28.5482 49.9082 28.4161 49.9853 28.4161 50.1837C28.405 50.3821 28.4821 50.5143 28.6694 50.5584C28.8125 50.5915 28.9337 50.6025 28.9667 50.6135ZM28.2508 49.313C28.4381 48.773 28.4381 48.773 28.9777 48.6738C29.0658 48.6628 29.154 48.6407 29.165 48.5415C29.165 48.4093 29.0548 48.3872 28.9557 48.3983C28.4931 48.4203 28.0306 48.6848 28.2508 49.313Z" fill="#F6C132"/>
<path d="M14.3853 48.851C14.6607 48.851 14.936 48.851 15.2113 48.851C15.4206 48.851 15.4867 48.9502 15.4757 49.1376C15.4646 49.3249 15.4536 49.4682 15.2113 49.4682C14.6607 49.4682 14.099 49.4682 13.5483 49.4682C13.306 49.4682 13.295 49.3139 13.284 49.1265C13.273 48.9282 13.3501 48.84 13.5483 48.851C13.8236 48.862 14.099 48.862 14.3853 48.851ZM14.4074 49.3249C14.6166 49.3249 14.8149 49.3249 15.0241 49.3249C15.1342 49.3249 15.2884 49.369 15.3105 49.1816C15.3215 49.0053 15.1893 48.9612 15.0461 48.9612C14.5946 48.9612 14.132 48.9612 13.6805 48.9612C13.5593 48.9612 13.4602 48.9833 13.4602 49.1265C13.4602 49.3029 13.5703 49.3139 13.7025 49.3139C13.9228 49.3249 14.1651 49.3249 14.4074 49.3249Z" fill="#F6C132"/>
<path d="M49.9259 14.2668C50.1462 14.366 50.3995 14.4873 50.5426 14.6085C50.7078 14.7628 50.873 14.9942 51.0272 15.2036C51.3246 15.5894 51.6109 15.9861 52.0625 16.2176C52.1616 16.2727 52.2497 16.3719 52.3158 16.4711C52.4039 16.6143 52.4149 16.8127 52.6682 16.6474C52.7563 16.5923 52.7894 16.6805 52.7894 16.7576C52.8004 16.8899 52.8114 17.0221 52.8114 17.1544L52.7894 17.1654C52.7233 17.1323 52.6572 17.1103 52.6022 17.0552C52.0074 16.46 51.4017 15.8759 50.818 15.2587C50.5096 14.9281 50.1241 14.6636 49.8818 14.2668H49.9259Z" fill="#F6F2DF"/>
<path d="M39.6721 48.8833C40.355 48.8833 41.0378 48.8833 41.7206 48.8943C41.7206 49.0596 41.7206 49.236 41.7206 49.4013C41.5554 49.4233 41.3682 49.3793 41.214 49.4674C40.8286 49.4674 40.4431 49.4674 40.0576 49.4564C39.9365 49.4013 39.8153 49.4123 39.6832 49.4233L39.6611 49.4123C39.6721 49.236 39.6721 49.0596 39.6721 48.8833ZM40.7074 49.3241C40.9387 49.3241 41.17 49.3241 41.3902 49.3241C41.5004 49.3241 41.6215 49.3021 41.6325 49.1588C41.6436 49.0156 41.5334 48.9715 41.4233 48.9715C40.9387 48.9715 40.4651 48.9715 39.9805 48.9715C39.8704 48.9715 39.7933 49.0045 39.7823 49.1368C39.7713 49.2801 39.8594 49.3241 39.9805 49.3241C40.2228 49.3241 40.4651 49.3241 40.7074 49.3241Z" fill="#F6C132"/>
<path d="M49.056 13.396C49.3095 13.352 49.4527 13.385 49.5078 13.7046C49.5409 13.903 49.8385 14.0353 49.9266 14.2667L49.9046 14.2777C49.5629 14.0353 49.2544 13.7597 49.0339 13.4071L49.056 13.396Z" fill="#F6F2DF"/>
<path d="M39.6728 48.8833C39.6728 49.0596 39.6728 49.236 39.6728 49.4013C39.4965 49.236 39.4854 49.0596 39.6728 48.8833Z" fill="#F6F2DF"/>
<path d="M41.7319 49.402C41.7319 49.2367 41.7319 49.0603 41.7319 48.895C41.9634 49.0603 41.9524 49.2367 41.7319 49.402Z" fill="#F6F2DF"/>
<path d="M41.2249 49.468C41.3902 49.3798 41.5665 49.4349 41.7318 49.4019C41.5885 49.6333 41.4012 49.5672 41.2249 49.468Z" fill="#F6F2DF"/>
<path d="M39.6943 49.424C39.8266 49.413 39.9478 49.402 40.0691 49.4571C39.9258 49.5894 39.8045 49.6004 39.6943 49.424Z" fill="#F6F2DF"/>
<path d="M45.3587 27.0108L45.322 26.9864L45.3587 26.9741V27.0108Z" fill="#F6F2DF"/>
<path d="M35.5523 28.9141C35.4202 29.377 35.299 29.8399 35.2109 30.3138C35.1779 30.4681 35.1559 30.6885 34.9466 30.6885C34.7704 30.6885 34.7043 30.5011 34.6713 30.3468C34.451 29.4651 34.2748 28.5724 34.6602 27.6907C34.7814 27.4152 34.7153 27.1727 34.5721 26.9303C34.3629 26.5776 34.1316 26.236 33.9334 25.8833C33.6911 25.4535 33.5589 25.0016 33.614 24.4946C33.6911 23.8223 34.1096 23.4256 34.7924 23.4146C35.3431 23.4146 35.8938 23.5248 36.4334 23.6129C36.5215 23.624 36.6206 23.646 36.7087 23.635C36.103 23.668 35.4863 23.5688 34.8805 23.5799C34.1096 23.5909 33.7131 24.0758 33.8563 24.8363C33.9554 25.3763 34.1977 25.8612 34.5391 26.2911C34.7043 26.5005 34.8695 26.7099 34.9796 26.9523C35.1118 27.2279 35.1338 27.5034 35.0017 27.7899C34.6382 28.5945 34.7594 29.41 34.9356 30.2366C35.1448 29.7958 35.1999 29.3108 35.4312 28.881C35.4642 28.9141 35.5083 28.9141 35.5523 28.9141Z" fill="#F6F2DF"/>
<path d="M38.9786 23.4026C39.4412 24.0749 39.3421 24.7912 39.1659 25.5186C39.1218 25.706 39.0447 25.8934 38.9346 26.0477C38.483 26.6979 38.3729 27.4363 38.3178 28.2078C38.2628 29.0785 38.0976 29.9271 37.602 30.6765C37.4918 30.8418 37.3486 30.9961 37.2055 31.1394C37.1174 31.2386 36.9962 31.3157 36.853 31.2606C36.6988 31.2055 36.6988 31.0512 36.7209 30.919C36.7649 30.6324 36.831 30.3569 36.8861 30.0704C36.9191 30.0704 36.9632 30.0704 36.9962 30.0704C36.9632 30.3128 36.9411 30.5443 36.9081 30.7867C36.8971 30.8529 36.8861 30.952 36.9522 30.9851C37.0403 31.0402 37.1063 30.952 37.1614 30.8969C37.4698 30.5663 37.613 30.1695 37.7451 29.7507C37.9213 29.1446 38.0205 28.5274 38.0095 27.8992C37.9984 27.249 38.1747 26.6648 38.5491 26.1358C38.9346 25.6068 39.1328 25.0006 39.0998 24.3394C39.0888 24.0418 39.0007 23.7773 38.8795 23.5128C38.9236 23.4687 38.9456 23.4357 38.9786 23.4026Z" fill="#F6F2DF"/>
<path d="M38.9778 23.4028C38.9447 23.4359 38.9117 23.4689 38.8786 23.502C38.4161 22.962 37.8213 23.0171 37.2046 23.1163C36.9733 23.1604 36.742 23.2265 36.5107 23.2816C37.0834 22.984 37.6892 22.8958 38.3169 22.995C38.5923 23.0391 38.8456 23.1493 38.9778 23.4028Z" fill="#DBDADE"/>
<path d="M37.0062 30.071C36.9731 30.071 36.9291 30.071 36.896 30.071C36.9621 29.4538 37.0393 28.8367 36.896 28.2195C37.1605 28.8146 37.1274 29.4428 37.0062 30.071Z" fill="#DBDADE"/>
<path d="M35.5529 28.9137C35.5088 28.9137 35.4647 28.9026 35.4207 28.9026C35.5198 28.55 35.6852 28.2304 35.9276 27.9548C35.9386 27.9769 35.9607 27.9879 35.9717 27.9989C35.8395 28.3075 35.6962 28.6161 35.5529 28.9137Z" fill="#DBDADE"/>
<path d="M35.9268 27.9552C35.9378 27.911 35.9599 27.8447 36.0041 27.8779C36.0814 27.9221 36.0041 27.9662 35.971 28.0104C35.9599 27.9883 35.9378 27.9773 35.9268 27.9552Z" fill="#DBDADE"/>
<path d="M35.2004 11.0369C34.1541 10.067 33.7466 8.1604 34.3193 6.8599C34.6056 6.19864 35.3656 5.77984 36.0264 5.92311C36.7532 6.08843 37.2048 6.66153 37.1828 7.45504C37.1718 7.8518 37.1167 8.24856 36.9295 8.64532C36.8854 8.44694 37.0066 8.29265 36.9405 8.12733C36.3678 8.23754 35.6849 8.98698 35.6409 9.56008C35.6189 9.86867 35.751 10.0891 35.9713 10.2875C36.4118 10.6732 36.9845 10.8385 37.4471 11.1912C37.4911 11.2243 37.5572 11.2573 37.6123 11.1912C37.6674 11.1141 37.6453 11.0149 37.5903 10.9598C37.4691 10.8165 37.326 10.6842 37.2048 10.5299C37.0176 10.2985 36.9405 10.045 37.0286 9.75846C37.0947 9.56008 37.2268 9.46089 37.4361 9.47191C37.6343 9.48293 37.7445 9.61518 37.7555 9.80254C37.7665 10.2654 37.7885 10.7063 37.9868 11.1361C38.1079 11.4226 37.8216 11.6651 37.5572 11.4998C36.9515 11.1361 36.2576 10.9157 35.718 10.4307C35.2554 10.0119 35.1783 9.38374 35.5418 8.85473C35.8612 8.38082 36.2356 7.95099 36.7863 7.74159C36.9845 7.66445 37.0176 7.54321 36.9955 7.35585C36.9295 6.78276 36.544 6.35293 36.0043 6.26476C35.5197 6.18762 34.9691 6.47417 34.7488 6.99216C34.4404 7.68649 34.4514 8.4249 34.5616 9.16332C34.6717 9.81356 34.925 10.4087 35.3325 10.9377C35.2664 10.9708 35.2334 11.0038 35.2004 11.0369Z" fill="#F6F2DF"/>
<path d="M38.5265 12.8339C38.5706 13.418 38.3283 13.8368 37.8327 14.0462C37.3481 14.2446 36.8525 14.1454 36.5001 13.7156C35.9274 12.9992 35.1895 12.4371 34.6168 11.7208C33.4493 10.277 33.0859 8.63486 33.5815 6.86046C34.0441 5.18525 35.7622 4.57909 37.249 5.50486C37.3041 5.53792 37.3811 5.55997 37.3922 5.6812C37.282 5.71426 37.2049 5.61507 37.1278 5.58201C35.5419 4.85462 34.0441 5.6812 33.8568 7.42253C33.6696 9.14183 34.1322 10.6738 35.3547 11.9302C35.8062 12.3931 36.2688 12.8559 36.6543 13.385C36.9957 13.8478 37.293 13.9691 37.7226 13.8368C38.1851 13.6935 38.4164 13.3739 38.4274 12.9C38.4605 12.889 38.4935 12.867 38.5265 12.8339Z" fill="#FCFCFC"/>
<path d="M38.5267 12.8341C38.4937 12.8562 38.4496 12.8782 38.4165 12.9002C38.3724 12.5586 38.3945 12.2059 38.4276 11.8643C38.4937 12.1949 38.5488 12.5145 38.5267 12.8341Z" fill="#DBDADE"/>
<path d="M28.6583 10.3432C28.3497 10.266 28.1073 10.1117 28.0742 9.75903C28.3057 9.92435 28.504 10.1117 28.6583 10.3432Z" fill="#FCFCFC"/>
<path d="M28.7793 10.8059C28.8124 10.6295 28.614 10.5303 28.647 10.354C28.8454 10.4642 28.9887 10.6516 29.132 10.8169C29.0107 10.9491 28.9005 10.8059 28.7793 10.8059Z" fill="#FCFCFC"/>
<path d="M35.2004 11.0374C35.2335 11.0044 35.2666 10.9713 35.2996 10.9382C35.4429 11.0815 35.5862 11.2248 35.7405 11.3791C35.7295 11.3901 35.7074 11.4121 35.6964 11.4232C35.487 11.335 35.3327 11.2027 35.2004 11.0374Z" fill="#DBDADE"/>
<path d="M28.0754 9.76925C27.9101 9.79129 27.833 9.72517 27.855 9.54883C27.9652 9.59291 28.0424 9.65904 28.0754 9.76925Z" fill="#FCFCFC"/>
<path d="M35.7291 11.3792C35.7842 11.4122 35.8394 11.4453 35.9055 11.4894C35.7953 11.5445 35.7402 11.4673 35.6851 11.4232C35.6961 11.4012 35.7181 11.3902 35.7291 11.3792Z" fill="#DBDADE"/>
<path d="M24.1651 23.5346C23.8897 23.1048 23.4932 22.7851 23.1408 22.4325C21.8522 21.132 20.5526 19.8535 19.2641 18.553C19.0878 18.3767 18.9006 18.2224 19.187 17.9469C21.1253 16.0402 23.0417 14.1115 24.969 12.1828C25.7069 11.4444 26.4558 10.706 27.1827 9.95657C27.403 9.73615 27.5572 9.68104 27.8105 9.95657C28.0969 10.2652 28.3612 10.6289 28.7577 10.8383C28.7687 10.9375 28.8458 11.0036 28.9118 11.0697C30.3656 12.5245 31.8304 13.9793 33.2842 15.4341C34.1432 16.2937 34.9913 17.1644 35.8503 18.013C36.0816 18.2444 35.9054 18.3657 35.7622 18.52C34.1653 20.107 32.5793 21.7051 30.9824 23.3031C29.9141 24.3722 28.8458 25.4302 27.7885 26.4993C27.5792 26.7197 27.4471 26.7527 27.2048 26.4993C26.2686 25.5294 25.2994 24.5926 24.3413 23.6448C24.2862 23.6007 24.2201 23.5676 24.1651 23.5346ZM27.6783 12.5906C27.2819 13.1196 27.1167 13.6597 27.381 14.2989C27.8766 15.4892 28.4383 16.6464 29.022 17.7926C29.4185 18.5751 29.892 19.3245 30.1343 20.1731C30.3546 20.9226 30.1233 21.3524 29.4075 21.661C29.011 21.8373 28.5814 21.8153 28.1629 21.8373C27.5902 21.8704 27.2378 22.4104 27.4581 22.9394C27.4911 22.8954 27.5352 22.8623 27.5462 22.8292C27.6453 22.3663 27.9867 22.2561 28.3942 22.19C28.8348 22.1239 29.2753 22.0688 29.7048 21.9365C30.3436 21.7492 30.6299 21.3304 30.5529 20.6691C30.5088 20.2944 30.4207 19.9307 30.2555 19.589C29.5616 18.0791 28.7907 16.6023 28.1739 15.0593C27.8876 14.332 27.5021 13.6266 27.7334 12.8C27.7554 12.7559 27.7664 12.6788 27.6783 12.5906ZM27.1717 19.6331C27.0175 20.0078 26.7973 20.1842 26.4999 20.2944C26.3567 20.3495 26.2136 20.4266 26.0814 20.5038C25.8061 20.6801 25.7179 20.9446 25.74 21.2532C25.762 21.5508 25.9052 21.7492 26.1695 21.8594C26.0373 20.8344 26.0484 20.8454 27.0065 20.3825C27.3259 20.2503 27.3149 19.9858 27.1717 19.6331ZM26.8744 21.7712C27.1167 21.661 27.2929 21.4957 27.5352 21.5067C27.7775 21.5067 28.0198 21.5177 28.251 21.5177C28.3832 21.5177 28.5374 21.5398 28.5814 21.3744C28.6255 21.2091 28.4933 21.1099 28.3722 21.0328C27.8546 20.7242 27.0065 21.132 26.8744 21.7712Z" fill="#FAC226"/>
<path d="M49.033 13.4178C49.2533 13.7705 49.5616 14.046 49.9031 14.2884C50.1343 14.6962 50.5198 14.9497 50.8392 15.2803C51.4229 15.8865 52.0287 16.4816 52.6234 17.0768C52.6674 17.1209 52.7445 17.1539 52.8106 17.187C52.9978 17.5066 53.2842 17.727 53.5375 17.9805C53.7027 18.1458 53.7027 18.256 53.5375 18.4214C52.3811 19.5786 51.2247 20.7358 50.0683 21.893C48.5594 23.4139 47.0396 24.9238 45.5307 26.4447C45.2223 26.7643 45.2003 26.7754 44.8699 26.4557C42.8875 24.4609 40.8941 22.4661 38.9116 20.4713C38.2508 19.81 37.59 19.1377 36.9072 18.4985C36.6869 18.2891 36.6979 18.1458 36.9072 17.9364C38.1848 16.669 39.4403 15.4016 40.7068 14.1342C42.0945 12.7455 43.4822 11.3568 44.8589 9.95715C45.0902 9.72571 45.2223 9.6706 45.4867 9.93511C46.577 11.0593 47.7004 12.1504 48.8017 13.2525C48.8788 13.3076 48.9339 13.3847 49.033 13.4178ZM46.2025 20.4713C46.4228 20.328 46.5109 20.1186 46.544 19.9092C46.6321 19.4243 46.8413 19.0275 47.2488 18.752C47.3479 18.6859 47.403 18.5095 47.5242 18.5536C47.6783 18.6087 47.5902 18.7851 47.5792 18.9063C47.4911 19.7108 47.403 20.5154 47.5462 21.3199C47.5682 21.4301 47.5352 21.6175 47.7004 21.5954C47.8546 21.5734 47.7995 21.3971 47.7885 21.2868C47.6783 20.5374 47.7224 19.799 47.7995 19.0496C47.8656 18.4324 47.9206 17.8262 48.24 17.2531C48.5264 16.7351 48.6916 16.14 48.8237 15.5559C48.8458 15.4677 48.8898 15.3355 48.7687 15.3024C48.6255 15.2693 48.6475 15.4126 48.6145 15.5008C48.4933 15.8755 48.3942 16.2612 48.251 16.6359C47.9427 17.4405 47.5682 18.212 46.8964 18.774C45.6739 19.777 43.8677 19.5014 42.8765 18.1679C42.2928 17.3964 41.9624 16.5037 41.7531 15.5669C41.7311 15.4567 41.7311 15.2803 41.5769 15.3244C41.4668 15.3575 41.5108 15.5228 41.5439 15.611C41.698 16.0739 41.7972 16.5588 41.9844 17.0217C42.1496 17.4295 42.458 17.7821 42.48 18.256C42.5351 19.292 42.7663 20.317 42.5571 21.353C42.5351 21.4411 42.5351 21.5734 42.6562 21.5844C42.7884 21.5954 42.7774 21.4632 42.7884 21.364C42.8655 20.9452 42.8765 20.5264 42.8545 20.0966C42.8434 19.6888 42.7884 19.281 42.7663 18.8732C42.7553 18.763 42.7553 18.5095 42.9316 18.6418C43.2289 18.8622 43.6364 19.0165 43.6584 19.5125C43.6695 19.788 43.8016 20.0745 43.8897 20.339C43.9228 20.4382 43.9888 20.6146 44.121 20.5595C44.2862 20.4933 44.154 20.3501 44.11 20.2509C44.0329 20.0525 43.9338 19.8541 43.9117 19.6337C43.8897 19.4133 43.9778 19.3361 44.1871 19.4133C44.7928 19.6337 45.4096 19.6557 46.0373 19.4794C46.1365 19.4573 46.2576 19.3582 46.3347 19.4684C46.4228 19.5786 46.3347 19.6998 46.3127 19.81C46.3017 20.0304 46.0704 20.1847 46.2025 20.4713ZM44.5615 17.2531C44.4184 17.2641 44.2752 17.2201 44.2201 17.3744C44.1761 17.5066 44.2201 17.6389 44.3192 17.7381C44.7378 18.1899 45.7069 18.1679 46.0924 17.705C46.1695 17.6168 46.1915 17.5176 46.1695 17.3964C46.1475 17.2972 46.0594 17.2641 45.9713 17.2862C45.4867 17.3854 45.0131 17.3193 44.5615 17.2531Z" fill="#FAC226"/>
<path d="M41.247 43.0979C41.0708 43.0979 40.8836 43.0979 40.7074 43.0979C39.8373 43.0869 39.2316 42.4807 39.2206 41.6101C39.1985 40.7394 39.7933 40.1222 40.6633 40.0891C41.0598 40.0781 41.4563 40.0671 41.8528 40.0891C42.7118 40.1332 43.2625 40.7394 43.2515 41.6211C43.2405 42.4587 42.6457 43.0648 41.8308 43.0979C41.6325 43.0979 41.4343 43.0979 41.247 43.0979Z" fill="#FCFCFC"/>
<path d="M7.77705 41.5657C7.77705 41.1579 7.78807 40.7501 7.77705 40.3423C7.77705 40.155 7.83212 40.0778 8.01935 40.0888C8.58103 40.0999 9.15373 40.0668 9.71542 40.0999C10.5524 40.1439 11.1141 40.7832 11.0921 41.6097C11.0701 42.4914 10.4864 43.0976 9.6163 43.1086C9.09867 43.1196 8.58103 43.0976 8.0634 43.1196C7.82111 43.1307 7.75503 43.0425 7.76604 42.8111C7.78807 42.3812 7.77705 41.9734 7.77705 41.5657Z" fill="#FCFCFC"/>
<path d="M66.093 41.9729C66.093 41.995 66.1151 42.0281 66.104 42.0392C66.0819 42.0723 66.0377 42.0613 66.0156 42.0392C66.0377 42.0171 66.0709 41.995 66.093 41.9729Z" fill="#FCFCFC"/>
<path d="M34.0772 49.1593C34.0772 48.8618 34.0882 48.5532 34.0772 48.2556C34.0662 48.0462 34.1212 47.947 34.3525 47.947C34.76 47.958 35.1675 47.947 35.575 47.958C36.2799 47.9801 36.7755 48.465 36.7755 49.1373C36.7865 49.8537 36.2909 50.3827 35.575 50.4047C35.1675 50.4157 34.76 50.4047 34.3525 50.4047C34.1543 50.4047 34.0662 50.3276 34.0662 50.1292C34.0772 49.8096 34.0662 49.49 34.0772 49.1593Z" fill="#FCFCFC"/>
<path d="M28.9671 50.614C28.934 50.614 28.8018 50.5919 28.6805 50.5588C28.4932 50.5037 28.416 50.3715 28.4271 50.1841C28.4381 49.9857 28.5703 49.9086 28.7246 49.8866C28.901 49.8645 29.0773 49.8755 29.2647 49.8645C29.5402 49.8425 29.5622 50.0078 29.5622 50.2282C29.5622 50.4486 29.5512 50.647 29.2536 50.614C29.1875 50.6029 29.1324 50.614 28.9671 50.614Z" fill="#F6F2DF"/>
<path d="M28.2512 49.3133C28.0197 48.6851 28.4826 48.4205 28.9565 48.3875C29.0557 48.3765 29.1659 48.3985 29.1659 48.5308C29.1659 48.641 29.0668 48.652 28.9786 48.663C28.4496 48.7732 28.4496 48.7732 28.2512 49.3133Z" fill="#FAC226"/>
<path d="M14.4071 49.3241C14.1648 49.3241 13.9226 49.3241 13.6913 49.3241C13.5591 49.3241 13.449 49.3021 13.449 49.1368C13.449 48.9935 13.5591 48.9714 13.6692 48.9714C14.1208 48.9714 14.5834 48.9714 15.0349 48.9714C15.1781 48.9714 15.3102 49.0155 15.2992 49.1919C15.2882 49.3682 15.134 49.3241 15.0129 49.3351C14.8146 49.3351 14.6054 49.3241 14.4071 49.3241Z" fill="#FAC226"/>
<path d="M40.7074 49.3241C40.4651 49.3241 40.2228 49.3241 39.9805 49.3241C39.8484 49.3241 39.7713 49.269 39.7823 49.1368C39.7933 49.0155 39.8704 48.9714 39.9805 48.9714C40.4651 48.9714 40.9497 48.9714 41.4233 48.9714C41.5444 48.9714 41.6436 49.0155 41.6325 49.1588C41.6215 49.3021 41.5114 49.3241 41.3903 49.3241C41.159 49.3241 40.9387 49.3241 40.7074 49.3241Z" fill="#FAC226"/>
<path d="M27.6783 12.5916C27.7774 12.6797 27.7664 12.7569 27.7443 12.823C27.513 13.6496 27.8985 14.3549 28.1849 15.0823C28.8016 16.6253 29.5616 18.1021 30.2664 19.612C30.4206 19.9537 30.5197 20.3173 30.5638 20.6921C30.6409 21.3533 30.3545 21.7721 29.7157 21.9595C29.2862 22.0917 28.8457 22.1469 28.4051 22.213C27.9866 22.2681 27.6562 22.3893 27.5571 22.8522C27.5461 22.8963 27.502 22.9183 27.469 22.9624C27.2377 22.4444 27.6012 21.8934 28.1739 21.8603C28.5924 21.8383 29.0109 21.8603 29.4184 21.684C30.1453 21.3754 30.3655 20.9456 30.1453 20.1961C29.903 19.3475 29.4294 18.5981 29.0329 17.8156C28.4492 16.6694 27.8875 15.5121 27.3919 14.3219C27.1166 13.6606 27.2818 13.1206 27.6783 12.5916Z" fill="#F6F2DF"/>
<path d="M27.171 19.6338C27.3032 19.9975 27.3252 20.251 27.0168 20.3942C26.0477 20.8461 26.0477 20.8461 26.1798 21.8711C25.9045 21.7609 25.7723 21.5625 25.7503 21.2649C25.7283 20.9563 25.8164 20.6918 26.0917 20.5155C26.2239 20.4273 26.3671 20.3612 26.5102 20.3061C26.7966 20.1848 27.0279 20.0085 27.171 19.6338Z" fill="#F6F2DF"/>
<path d="M26.8745 21.7718C27.0067 21.1216 27.8547 20.7248 28.3723 21.0224C28.5045 21.0995 28.6257 21.1987 28.5816 21.364C28.5375 21.5293 28.3834 21.5073 28.2512 21.5073C28.0089 21.5073 27.7666 21.5073 27.5353 21.4963C27.293 21.5073 27.1168 21.6616 26.8745 21.7718Z" fill="#F6F2DF"/>
<path d="M46.2032 20.4713C46.071 20.1847 46.3023 20.0304 46.3464 19.821C46.3684 19.6998 46.4565 19.5786 46.3684 19.4794C46.2803 19.3692 46.1591 19.4684 46.071 19.4904C45.4433 19.6668 44.8265 19.6447 44.2208 19.4243C44.0005 19.3471 43.9234 19.4243 43.9454 19.6447C43.9674 19.8651 44.0556 20.0635 44.1437 20.2619C44.1877 20.3611 44.3199 20.5044 44.1547 20.5705C44.0225 20.6256 43.9564 20.4493 43.9234 20.3501C43.8243 20.0745 43.7031 19.799 43.6921 19.5235C43.6701 19.0275 43.2626 18.8732 42.9652 18.6528C42.789 18.5206 42.789 18.774 42.8 18.8843C42.8221 19.292 42.8661 19.6998 42.8881 20.1076C42.8991 20.5264 42.8991 20.9562 42.8221 21.375C42.8 21.4632 42.811 21.6065 42.6899 21.5954C42.5687 21.5844 42.5687 21.4522 42.5908 21.364C42.8 20.328 42.5687 19.3031 42.5137 18.2671C42.4916 17.7932 42.1833 17.4405 42.0181 17.0327C41.8308 16.5698 41.7317 16.0849 41.5775 15.622C41.5445 15.5228 41.5004 15.3575 41.6106 15.3355C41.7648 15.2914 41.7648 15.4677 41.7868 15.5779C41.996 16.5147 42.3264 17.4074 42.9102 18.1789C43.9014 19.5125 45.7076 19.788 46.9301 18.7851C47.6129 18.223 47.9763 17.4515 48.2847 16.647C48.4279 16.2723 48.527 15.8865 48.6482 15.5118C48.6702 15.4346 48.6592 15.2804 48.8024 15.3134C48.9235 15.3465 48.8794 15.4787 48.8574 15.5669C48.7142 16.151 48.5601 16.7462 48.2737 17.2642C47.9543 17.8372 47.8993 18.4434 47.8332 19.0606C47.7561 19.81 47.712 20.5484 47.8222 21.2979C47.8332 21.4081 47.8882 21.5844 47.734 21.6065C47.5688 21.6285 47.6019 21.4412 47.5799 21.3309C47.4477 20.5264 47.5248 19.7219 47.6129 18.9173C47.6239 18.7961 47.712 18.6197 47.5578 18.5646C47.4367 18.5206 47.3816 18.6969 47.2825 18.763C46.875 19.0385 46.6657 19.4353 46.5776 19.9202C46.5005 20.1186 46.4234 20.328 46.2032 20.4713Z" fill="#F6F2DF"/>
<path d="M44.5624 17.2532C45.0139 17.3193 45.4985 17.3854 45.9721 17.2862C46.0602 17.2642 46.1483 17.2973 46.1703 17.3964C46.1923 17.5067 46.1703 17.6169 46.0932 17.705C45.7077 18.1679 44.7386 18.1789 44.3201 17.7381C44.2209 17.6389 44.1769 17.5067 44.2209 17.3744C44.276 17.2201 44.4192 17.2642 44.5624 17.2532Z" fill="#F6F2DF"/>
</svg>
