<svg width="1454" height="458" viewBox="0 0 1454 458" fill="none" xmlns="http://www.w3.org/2000/svg">
<rect width="1454" height="457.731" fill="#0152A8"/>
<mask id="mask0_1_172" style="mask-type:alpha" maskUnits="userSpaceOnUse" x="0" y="0" width="1454" height="458">
<rect y="0.00012207" width="1454" height="457.731" fill="#0152A8"/>
</mask>
<g mask="url(#mask0_1_172)">
<g opacity="0.27">
<path d="M1323.43 79.9539V12.7134L1263.06 -21.0441L1202.98 12.7134V79.9539L1263.06 113.711L1323.43 79.9539Z" fill="white" fill-opacity="0.5"/>
</g>
<g opacity="0.41">
<path d="M1446.72 79.95V12.7095L1386.63 -21.048L1326.26 12.7095V79.95L1386.63 113.707L1446.72 79.95Z" fill="white" fill-opacity="0.5"/>
</g>
<g opacity="0.5">
<path d="M1569.99 79.9539V12.7134L1509.9 -21.0441L1449.54 12.7134V79.9539L1509.9 113.711L1569.99 79.9539Z" fill="white" fill-opacity="0.5"/>
</g>
<g opacity="0.58">
<path d="M1508.51 183.419V115.904L1448.14 82.4211L1388.06 115.904V183.419L1448.14 216.902L1508.51 183.419Z" fill="white" fill-opacity="0.5"/>
<path d="M1385.2 182.658V115.143L1324.83 81.6597L1264.75 115.143V182.658L1324.83 216.141L1385.2 182.658Z" fill="white" fill-opacity="0.5"/>
</g>
<g opacity="0.41">
<path d="M1323.43 286.892V219.377L1263.06 185.619L1202.98 219.377V286.892L1263.06 320.375L1323.43 286.892Z" fill="white" fill-opacity="0.5"/>
</g>
<g opacity="0.5">
<path d="M1446.72 286.888V219.373L1386.63 185.615L1326.26 219.373V286.888L1386.63 320.371L1446.72 286.888Z" fill="white" fill-opacity="0.5"/>
</g>
<g opacity="0.6">
<path d="M1569.99 286.892V219.377L1509.9 185.62L1449.54 219.377V286.892L1509.9 320.375L1569.99 286.892Z" fill="white" fill-opacity="0.5"/>
</g>
<g opacity="0.31">
<path d="M1385.21 390.081V322.841L1324.84 289.084L1264.76 322.841V390.081L1324.84 423.839L1385.21 390.081Z" fill="white" fill-opacity="0.5"/>
</g>
<g opacity="0.25">
<path d="M1508.51 390.084V322.844L1448.14 289.086L1388.06 322.844V390.084L1448.14 423.842L1508.51 390.084Z" fill="white" fill-opacity="0.5"/>
<path d="M1261.97 183.721V116.481L1201.6 82.7235L1141.52 116.481V183.721L1201.6 217.479L1261.97 183.721Z" fill="white" fill-opacity="0.5"/>
</g>
<g opacity="0.31">
<path d="M113.374 395.503L113.374 462.744L173.742 496.501L233.827 462.744L233.827 395.503L173.742 361.746L113.374 395.503Z" fill="white" fill-opacity="0.5"/>
</g>
<g opacity="0.25">
<path d="M-9.89967 395.5L-9.89967 462.741L50.4685 496.498L110.553 462.741L110.553 395.5L50.4685 361.743L-9.89967 395.5Z" fill="white" fill-opacity="0.5"/>
</g>
</g>
</svg>
