<svg width="60" height="60" viewBox="0 0 60 60" fill="none" xmlns="http://www.w3.org/2000/svg">
<circle cx="29.5442" cy="29.5444" r="29.0442" stroke="#0FE3AF"/>
<path d="M33.1686 18.4768C34.9529 18.9556 36.5798 19.8954 37.8861 21.2017C39.1924 22.508 40.1321 24.1349 40.611 25.9191M32.0773 22.5398C33.1504 22.8248 34.1291 23.3884 34.9142 24.1735C35.6993 24.9587 36.2629 25.9374 36.5479 27.0105M24.372 29.6271C25.4544 31.8625 27.262 33.6654 29.5001 34.7421C29.6652 34.8202 29.8478 34.8541 30.0299 34.8402C30.212 34.8264 30.3874 34.7654 30.5388 34.6632L33.8261 32.4673C33.9713 32.3688 34.1391 32.3087 34.3139 32.2926C34.4886 32.2765 34.6646 32.3049 34.8254 32.3753L40.9791 35.0182C41.1894 35.1057 41.3652 35.26 41.4792 35.4572C41.5933 35.6544 41.6393 35.8836 41.6103 36.1096C41.4152 37.6319 40.6722 39.031 39.5202 40.045C38.3682 41.0591 36.8861 41.6186 35.3514 41.619C30.6086 41.619 26.0601 39.7349 22.7064 36.3813C19.3528 33.0277 17.4688 28.4791 17.4688 23.7364C17.4691 22.2016 18.0287 20.7196 19.0427 19.5676C20.0568 18.4155 21.4559 17.6725 22.9782 17.4775C23.2041 17.4484 23.4333 17.4945 23.6306 17.6085C23.8278 17.7226 23.982 17.8983 24.0695 18.1086L26.7125 24.2755C26.7812 24.4337 26.81 24.6065 26.7962 24.7784C26.7824 24.9504 26.7266 25.1164 26.6336 25.2617L24.4377 28.6015C24.3399 28.7526 24.2826 28.9262 24.2711 29.1057C24.2595 29.2853 24.2943 29.4648 24.372 29.6271Z" stroke="#0152A8" stroke-linecap="round" stroke-linejoin="round"/>
</svg>
