<svg width="35" height="33" viewBox="0 0 35 33" fill="none" xmlns="http://www.w3.org/2000/svg">
<ellipse cx="17.4239" cy="16.5" rx="17.2079" ry="16.0005" fill="#085FBA"/>
<path d="M14.949 19.1625C16.5278 19.1625 17.8077 17.9699 17.8077 16.4989C17.8077 15.0278 16.5278 13.8352 14.949 13.8352C13.3702 13.8352 12.0903 15.0278 12.0903 16.4989C12.0903 17.9699 13.3702 19.1625 14.949 19.1625Z" stroke="white" stroke-linecap="round" stroke-linejoin="round"/>
<path d="M18.7436 21.826C17.4701 22.6138 15.9508 22.9828 14.4266 22.8744C12.9025 22.766 11.4608 22.1864 10.3304 21.2277C9.19997 20.2689 8.44557 18.9858 8.18687 17.5821C7.92817 16.1783 8.18 14.7343 8.90239 13.479C9.62479 12.2238 10.7764 11.2293 12.1744 10.6534C13.5725 10.0774 15.1369 9.95303 16.6195 10.2999C18.102 10.6467 19.4178 11.445 20.3581 12.568C21.2983 13.691 21.8092 15.0744 21.8095 16.4987C21.8095 17.9703 21.2378 19.1623 19.8085 19.1623C18.3791 19.1623 17.8074 17.9703 17.8074 16.4987V13.835" stroke="white" stroke-linecap="round" stroke-linejoin="round"/>
</svg>
