<svg width="126" height="125" viewBox="0 0 126 125" fill="none" xmlns="http://www.w3.org/2000/svg">
<circle cx="62.7645" cy="62.4994" r="62.4994" fill="#E6ECF2"/>
<path d="M78.6981 48.3088H71.3904V46.8473C71.3856 45.6859 70.9221 44.5734 70.1008 43.7522C69.2796 42.9309 68.1672 42.4675 67.0058 42.4626H58.2365C57.0751 42.4675 55.9627 42.9309 55.1415 43.7522C54.3202 44.5734 53.8567 45.6859 53.8519 46.8473V48.3088H46.5442C45.769 48.3088 45.0255 48.6168 44.4773 49.165C43.9291 49.7131 43.6212 50.4566 43.6212 51.2319V74.6165C43.6212 75.3917 43.9291 76.1352 44.4773 76.6834C45.0255 77.2316 45.769 77.5396 46.5442 77.5396H78.6981C79.4733 77.5396 80.2168 77.2316 80.765 76.6834C81.3132 76.1352 81.6212 75.3917 81.6212 74.6165V51.2319C81.6212 50.4566 81.3132 49.7131 80.765 49.165C80.2168 48.6168 79.4733 48.3088 78.6981 48.3088ZM56.775 46.8473C56.775 46.4596 56.929 46.0879 57.2031 45.8138C57.4772 45.5397 57.8489 45.3857 58.2365 45.3857H67.0058C67.3934 45.3857 67.7651 45.5397 68.0392 45.8138C68.3133 46.0879 68.4673 46.4596 68.4673 46.8473V48.3088H56.775V46.8473ZM67.7365 64.3857H64.0827V68.0396C64.0827 68.4272 63.9287 68.7989 63.6546 69.073C63.3805 69.3471 63.0088 69.5011 62.6212 69.5011C62.2335 69.5011 61.8618 69.3471 61.5877 69.073C61.3136 68.7989 61.1596 68.4272 61.1596 68.0396V64.3857H57.5058C57.1181 64.3857 56.7464 64.2317 56.4723 63.9576C56.1982 63.6836 56.0442 63.3118 56.0442 62.9242C56.0442 62.5366 56.1982 62.1648 56.4723 61.8907C56.7464 61.6166 57.1181 61.4626 57.5058 61.4626H61.1596V57.8088C61.1596 57.4212 61.3136 57.0494 61.5877 56.7753C61.8618 56.5012 62.2335 56.3473 62.6212 56.3473C63.0088 56.3473 63.3805 56.5012 63.6546 56.7753C63.9287 57.0494 64.0827 57.4212 64.0827 57.8088V61.4626H67.7365C68.1242 61.4626 68.4959 61.6166 68.77 61.8907C69.0441 62.1648 69.1981 62.5366 69.1981 62.9242C69.1981 63.3118 69.0441 63.6836 68.77 63.9576C68.4959 64.2317 68.1242 64.3857 67.7365 64.3857Z" fill="#0152A8"/>
</svg>
