<svg width="86" height="85" viewBox="0 0 86 85" fill="none" xmlns="http://www.w3.org/2000/svg">
<circle cx="43.3369" cy="42.5" r="42.5" fill="#E6ECF2"/>
<path d="M32.3369 59H55.9083" stroke="#0152A8" stroke-width="2" stroke-linecap="round" stroke-linejoin="round"/>
<path d="M43.3364 43.2855C45.94 43.2855 48.0506 41.1748 48.0506 38.5712C48.0506 35.9676 45.94 33.8569 43.3364 33.8569C40.7327 33.8569 38.6221 35.9676 38.6221 38.5712C38.6221 41.1748 40.7327 43.2855 43.3364 43.2855Z" stroke="#0152A8" stroke-width="2" stroke-linecap="round" stroke-linejoin="round"/>
<path d="M55.9075 38.6923C55.9075 50.1154 43.3361 59 43.3361 59C43.3361 59 30.7646 50.1154 30.7646 38.6923C30.7646 35.3261 32.0891 32.0978 34.4467 29.7175C36.8043 27.3372 40.0019 26 43.3361 26C46.6702 26 49.8678 27.3372 52.2254 29.7175C54.583 32.0978 55.9075 35.3261 55.9075 38.6923V38.6923Z" stroke="#0152A8" stroke-width="2" stroke-linecap="round" stroke-linejoin="round"/>
</svg>
