<svg width="35" height="35" viewBox="0 0 35 35" fill="none" xmlns="http://www.w3.org/2000/svg">
<ellipse cx="17.6671" cy="17.312" rx="17.3361" ry="17.312" fill="#095FBA"/>
<path d="M15.3865 17.5399C15.9847 18.7736 16.9837 19.7687 18.2207 20.3629C18.312 20.4061 18.4129 20.4248 18.5136 20.4171C18.6142 20.4095 18.7112 20.3758 18.7948 20.3194L20.6117 19.1074C20.6919 19.0531 20.7847 19.0199 20.8813 19.011C20.9778 19.0021 21.0751 19.0178 21.164 19.0566L24.5651 20.5153C24.6813 20.5637 24.7784 20.6488 24.8414 20.7576C24.9045 20.8665 24.9299 20.993 24.9139 21.1177C24.8061 21.9579 24.3954 22.7301 23.7587 23.2897C23.122 23.8494 22.3029 24.1583 21.4547 24.1584C18.8334 24.1584 16.3195 23.1186 14.466 21.2677C12.6125 19.4167 11.5712 16.9063 11.5712 14.2887C11.5714 13.4416 11.8806 12.6237 12.4411 11.9878C13.0015 11.352 13.7748 10.9419 14.6162 10.8343C14.741 10.8182 14.8677 10.8437 14.9767 10.9066C15.0857 10.9696 15.171 11.0665 15.2193 11.1826L16.6801 14.5862C16.718 14.6736 16.7339 14.7689 16.7263 14.8638C16.7187 14.9587 16.6879 15.0503 16.6365 15.1305L15.4228 16.9738C15.3688 17.0572 15.3371 17.153 15.3307 17.2521C15.3244 17.3512 15.3436 17.4503 15.3865 17.5399V17.5399Z" stroke="white" stroke-linecap="round" stroke-linejoin="round"/>
</svg>
