<svg width="126" height="125" viewBox="0 0 126 125" fill="none" xmlns="http://www.w3.org/2000/svg">
<circle cx="63.4163" cy="62.4994" r="62.4994" fill="#E6ECF2"/>
<path d="M83.9706 46.9163C83.7158 46.3368 83.2974 45.8443 82.7669 45.4991C82.2363 45.1538 81.6165 44.9709 80.9835 44.9727H45.8349C45.2021 44.9778 44.5841 45.165 44.0549 45.5121C43.5258 45.8592 43.1078 46.3513 42.8509 46.9297C42.5941 47.5081 42.5093 48.1482 42.6068 48.7735C42.7042 49.3988 42.9797 49.9828 43.4003 50.4557L56.8623 65.2476V81.2056C56.8613 81.7994 57.0229 82.3821 57.3294 82.8906C57.6359 83.3991 58.0758 83.814 58.6014 84.0903C59.0745 84.3404 59.6006 84.4737 60.1358 84.4791C60.784 84.4793 61.4178 84.287 61.9566 83.9267L68.5035 79.5484C68.9519 79.2505 69.3193 78.8459 69.5728 78.371C69.8264 77.8961 69.9581 77.3657 69.9561 76.8274V65.2476L83.4182 50.4557C83.8466 49.9846 84.1273 49.398 84.2254 48.7689C84.3236 48.1397 84.235 47.4955 83.9706 46.9163Z" fill="#0152A8"/>
</svg>
