<svg width="126" height="125" viewBox="0 0 126 125" fill="none" xmlns="http://www.w3.org/2000/svg">
<circle cx="63.4387" cy="62.4994" r="62.4994" fill="#E6ECF2"/>
<path d="M45.0603 55.6005L61.3723 50.852H61.3922L80.0287 45.408C80.5033 45.2671 81.0045 45.2405 81.4914 45.3302C81.9783 45.42 82.437 45.6237 82.8302 45.9246C83.2285 46.2174 83.5515 46.6007 83.7726 47.0429C83.9937 47.485 84.1065 47.9734 84.1018 48.4678V76.0054C84.1018 76.845 83.7696 77.6506 83.1777 78.2462C82.5858 78.8418 81.7823 79.1791 80.9427 79.1843C80.6341 79.1851 80.3268 79.145 80.0287 79.0651L63.4386 74.2172V76.5418C63.4386 77.3849 63.1037 78.1935 62.5075 78.7897C61.9114 79.3858 61.1028 79.7208 60.2597 79.7208H53.9018C53.0587 79.7208 52.2501 79.3858 51.6539 78.7897C51.0578 78.1935 50.7228 77.3849 50.7228 76.5418V70.5217L45.0603 68.8726C44.4011 68.6761 43.8228 68.2723 43.4112 67.7211C42.9997 67.1699 42.7767 66.5008 42.7755 65.8129V58.6602C42.7767 57.9724 42.9997 57.3032 43.4112 56.752C43.8228 56.2009 44.4011 55.797 45.0603 55.6005ZM53.9018 76.5418H60.2597V73.3033L53.9018 71.4356V76.5418ZM45.9544 65.8129L52.7892 67.7997L60.2597 69.9852V54.4879L45.9544 58.6602V65.8129Z" fill="#0152A8"/>
</svg>
