<svg width="126" height="125" viewBox="0 0 126 125" fill="none" xmlns="http://www.w3.org/2000/svg">
<circle cx="63.0905" cy="62.4994" r="62.4994" fill="#E6ECF2"/>
<path d="M83.1161 53.3163C82.837 53.5862 82.4639 53.7371 82.0756 53.7371C81.6873 53.7371 81.3142 53.5862 81.035 53.3163L77.6943 49.9574L72.4551 55.1966L78.7349 61.4581C79.0091 61.735 79.1629 62.109 79.1629 62.4987C79.1629 62.8884 79.0091 63.2624 78.7349 63.5392C78.4557 63.8092 78.0826 63.96 77.6943 63.96C77.306 63.96 76.9329 63.8092 76.6538 63.5392L75.5037 62.3709L60.1693 77.7053C59.6215 78.2517 58.8802 78.56 58.1065 78.5633H49.0884L45.1453 82.5246C44.8661 82.7946 44.493 82.9454 44.1047 82.9454C43.7164 82.9454 43.3433 82.7946 43.0642 82.5246C42.79 82.2478 42.6361 81.8738 42.6361 81.4841C42.6361 81.0944 42.79 80.7204 43.0642 80.4436L47.0256 76.5004V67.4824C47.0289 66.7086 47.3372 65.9674 47.8836 65.4195L49.9281 63.3749C50.0646 63.2411 50.2482 63.1662 50.4393 63.1662C50.6304 63.1662 50.8139 63.2411 50.9504 63.3749L56.2079 68.6507C56.4871 68.9206 56.8602 69.0715 57.2485 69.0715C57.6368 69.0715 58.0099 68.9206 58.289 68.6507C58.5633 68.3738 58.7171 67.9999 58.7171 67.6101C58.7171 67.2204 58.5633 66.8465 58.289 66.5696L53.0133 61.3121C52.8795 61.1756 52.8045 60.9921 52.8045 60.801C52.8045 60.6098 52.8795 60.4263 53.0133 60.2898L56.5 56.8031C56.6365 56.6693 56.82 56.5943 57.0112 56.5943C57.2023 56.5943 57.3858 56.6693 57.5223 56.8031L62.7798 62.0788C63.059 62.3487 63.4321 62.4996 63.8204 62.4996C64.2087 62.4996 64.5818 62.3487 64.8609 62.0788C65.1351 61.8019 65.289 61.428 65.289 61.0383C65.289 60.6486 65.1351 60.2746 64.8609 59.9977L59.5852 54.7402C59.4514 54.6037 59.3764 54.4202 59.3764 54.2291C59.3764 54.0379 59.4514 53.8544 59.5852 53.7179L63.2179 50.0852L62.1044 48.9716C61.8285 48.6997 61.6673 48.3326 61.6537 47.9456C61.6401 47.5585 61.7753 47.181 62.0313 46.8905C62.1664 46.7495 62.328 46.6367 62.5068 46.5585C62.6857 46.4803 62.8783 46.4383 63.0734 46.4349C63.2686 46.4315 63.4625 46.4668 63.644 46.5387C63.8254 46.6107 63.9908 46.7178 64.1307 46.854L70.3922 53.1338L75.6315 47.8945L72.3273 44.5903C72.0515 44.3185 71.8902 43.9514 71.8766 43.5643C71.863 43.1773 71.9982 42.7998 72.2543 42.5092C72.3893 42.3683 72.5509 42.2555 72.7297 42.1773C72.9086 42.0991 73.1012 42.0571 73.2963 42.0537C73.4915 42.0503 73.6854 42.0856 73.8669 42.1575C74.0483 42.2294 74.2138 42.3366 74.3536 42.4727L83.1161 51.2352C83.3903 51.5121 83.5442 51.8861 83.5442 52.2758C83.5442 52.6655 83.3903 53.0394 83.1161 53.3163Z" fill="#0152A8"/>
</svg>
