<svg width="60" height="60" viewBox="0 0 60 60" fill="none" xmlns="http://www.w3.org/2000/svg">
<circle cx="29.6326" cy="29.5444" r="29.0442" stroke="#0FE3AF"/>
<path d="M34.6634 29.5416C34.6634 32.3203 32.4108 34.5729 29.6321 34.5729C26.8535 34.5729 24.6009 32.3203 24.6009 29.5416C24.6009 26.763 26.8535 24.5104 29.6321 24.5104C32.4108 24.5104 34.6634 26.763 34.6634 29.5416ZM34.6634 29.5416C34.6634 32.3214 35.6696 34.5729 38.1853 34.5729C40.7009 34.5729 41.7071 32.3214 41.7071 29.5416C41.7065 26.8513 40.8074 24.2383 39.1526 22.1171C37.4978 19.9959 35.182 18.4882 32.5727 17.833C29.9633 17.1779 27.2099 17.4129 24.7494 18.5007C22.2888 19.5886 20.2621 21.4671 18.9906 23.838C17.7192 26.2089 17.276 28.9365 17.7313 31.588C18.1866 34.2396 19.5144 36.6631 21.5039 38.474C23.4934 40.285 26.0307 41.3797 28.7132 41.5845C31.3958 41.7892 34.0698 41.0922 36.3111 39.6041M34.6634 29.5416V24.5104" stroke="#0152A8" stroke-linecap="round" stroke-linejoin="round"/>
</svg>
