<svg width="43" height="36" viewBox="0 0 43 36" fill="none" xmlns="http://www.w3.org/2000/svg">
<path d="M18.0388 0.958315L11.6588 25.3783L9.89877 17.1283C12.4654 17.1283 14.5921 17.935 16.2788 19.5483C17.9654 21.1617 18.8088 23.325 18.8088 26.0383C18.8088 28.7517 17.9654 30.9516 16.2788 32.6383C14.5921 34.2516 12.5021 35.0583 10.0088 35.0583C7.36877 35.0583 5.20543 34.215 3.51877 32.5283C1.8321 30.8416 0.988769 28.6783 0.98877 26.0383C0.98877 25.1583 1.02544 24.3516 1.09877 23.6183C1.24544 22.8116 1.5021 21.8583 1.86877 20.7583C2.23544 19.6583 2.74877 18.265 3.40877 16.5783L9.23877 0.958313L18.0388 0.958315ZM41.3588 0.958319L34.9788 25.3783L33.2188 17.1283C35.7854 17.1283 37.9121 17.935 39.5988 19.5483C41.2854 21.1617 42.1288 23.325 42.1288 26.0383C42.1288 28.7517 41.2854 30.9517 39.5988 32.6383C37.9121 34.2517 35.8221 35.0583 33.3288 35.0583C30.6888 35.0583 28.5254 34.215 26.8388 32.5283C25.1521 30.8417 24.3088 28.6783 24.3088 26.0383C24.3088 25.1583 24.3454 24.3517 24.4188 23.6183C24.5654 22.8116 24.8221 21.8583 25.1888 20.7583C25.5554 19.6583 26.0688 18.265 26.7288 16.5783L32.5588 0.958317L41.3588 0.958319Z" fill="#0152A8"/>
</svg>
