<svg width="31" height="40" viewBox="0 0 31 40" fill="none" xmlns="http://www.w3.org/2000/svg">
<path d="M3.97444 38.7364L4.86119 38.2741C4.53095 37.6406 4.31028 36.7412 4.19048 35.6243C4.07205 34.5202 4.05905 33.2757 4.09824 31.9953C4.13595 30.7629 4.22098 29.5227 4.30043 28.364L4.30941 28.233C4.3903 27.0521 4.46504 25.9385 4.46504 25.0577C4.46504 22.6945 4.0962 20.7568 3.72383 19.4022C3.53757 18.7247 3.35008 18.1918 3.20655 17.8229C3.13477 17.6384 3.07391 17.4948 3.0296 17.3944C3.00744 17.3442 2.9894 17.3048 2.9762 17.2765L2.9601 17.2425L2.95493 17.2317L2.95311 17.228L2.95309 17.2279L2.95289 17.2275C1.09999 13.4249 0.908844 9.23297 1.02847 6.55423C1.08159 5.89515 1.29138 5.12012 1.59133 4.39139C1.89614 3.65084 2.2599 3.04073 2.56335 2.69375L2.56336 2.69376L2.5665 2.69014C2.87572 2.33313 3.35113 1.95471 3.87791 1.64179C4.3946 1.33486 4.88121 1.13806 5.21535 1.06917C6.18286 0.961807 8.14763 0.963041 9.63778 1.19066L9.64757 1.19216L9.65738 1.19346L15.1799 1.92544L15.3113 1.94285L15.4427 1.92545L20.9686 1.19347L20.9815 1.19176L20.9944 1.18971C22.4219 0.962581 24.4494 0.962204 25.3516 1.06927C25.7159 1.13807 26.2202 1.33704 26.7447 1.64454C27.2759 1.95586 27.7507 2.33335 28.0608 2.68994L28.062 2.6913C28.3648 3.03829 28.7283 3.64802 29.0242 4.38319C29.3185 5.11414 29.5115 5.88361 29.5361 6.52887L29.5366 6.54277L29.5375 6.55665C29.7131 9.21756 29.5259 13.4116 27.6129 17.2169L27.6129 17.2169L27.6091 17.2246L28.5064 17.666C27.6091 17.2246 27.6089 17.2249 27.6088 17.2252L27.6085 17.2258L27.6078 17.2273L27.6059 17.2311L27.6007 17.2418L27.5846 17.2759C27.5714 17.3042 27.5533 17.3436 27.5311 17.3938C27.4867 17.4941 27.4258 17.6377 27.3539 17.8222C27.2102 18.191 27.0225 18.7238 26.836 19.4013C26.4631 20.7557 26.0938 22.6936 26.0938 25.0577C26.0938 25.5198 26.0996 26.0357 26.1059 26.5912C26.123 28.1077 26.1434 29.9191 26.0579 31.7347C25.9396 34.2488 25.6222 36.5423 24.9295 37.9216L25.8231 38.3704M3.97444 38.7364L4.85975 38.2714C4.85815 38.2683 4.85864 38.2688 4.8621 38.2723C4.88224 38.2926 5.00279 38.414 5.39302 38.5226C5.80443 38.6372 6.34773 38.687 6.91479 38.6537C7.48287 38.6204 8.00719 38.5077 8.38663 38.3475C8.74725 38.1952 8.82823 38.0677 8.83623 38.0586C9.19901 36.7895 9.54038 35.0249 9.89779 33.0413C9.98079 32.5806 10.0645 32.109 10.1494 31.631C10.4292 30.0548 10.7211 28.4105 11.0386 26.8691C11.4505 24.8694 11.9198 22.9684 12.4926 21.5555C12.7772 20.8533 13.1135 20.2044 13.5277 19.7176C13.9389 19.2343 14.532 18.795 15.3098 18.8034C16.1062 18.7951 16.6833 19.263 17.0595 19.7705C17.4321 20.2729 17.7065 20.9343 17.9238 21.6362C18.3619 23.0514 18.6613 24.9543 18.9103 26.9475C19.0426 28.0061 19.1681 29.1604 19.2922 30.3011C19.3971 31.2655 19.5009 32.2202 19.6068 33.0992C19.8436 35.0638 20.1058 36.7952 20.4561 38.0338C20.4779 38.0546 20.5807 38.1531 20.9111 38.2605C21.3352 38.3985 21.925 38.4759 22.565 38.4691C23.2018 38.4622 23.8209 38.3727 24.2954 38.2233C24.7529 38.0793 24.9046 37.9358 24.9328 37.909C24.9377 37.9044 24.9389 37.9032 24.9373 37.9062L25.8231 38.3704M3.97444 38.7364C2.74816 36.384 3.05862 31.8563 3.30237 28.3015C3.3878 27.0555 3.46504 25.9291 3.46504 25.0577C3.46504 20.5388 2.05417 17.666 2.05417 17.666L3.97444 38.7364ZM25.8231 38.3704C25.0874 39.7742 20.0028 39.8962 19.5123 38.3704M25.8231 38.3704H19.5123M19.5123 38.3704C18.9516 36.4293 18.625 33.4212 18.2956 30.3874C17.7232 25.1151 17.1423 19.7653 15.3097 19.8035C13.2724 19.7607 12.1443 26.1148 11.1357 31.7963C10.6858 34.3306 10.2596 36.7311 9.7871 38.3704H19.5123Z" fill="#0FE3AF" stroke="#0152A8" stroke-width="2"/>
<path d="M25.2908 4.08402L25.1574 12.0904" stroke="#0152A8" stroke-width="2" stroke-linecap="round" stroke-linejoin="round"/>
</svg>
