<svg width="86" height="85" viewBox="0 0 86 85" fill="none" xmlns="http://www.w3.org/2000/svg">
<circle cx="43.0107" cy="42.5" r="42.5" fill="#E6ECF2"/>
<path d="M47.964 27.3771C50.4021 28.0314 52.6252 29.3155 54.4102 31.1005C56.1952 32.8855 57.4793 35.1086 58.1336 37.5467M46.4727 32.9291C47.9391 33.3185 49.2764 34.0887 50.3492 35.1615C51.4221 36.2343 52.1922 37.5717 52.5817 39.038M35.9437 42.6136C37.4228 45.6681 39.8928 48.1317 42.9511 49.603C43.1766 49.7098 43.4262 49.756 43.6751 49.7371C43.9239 49.7182 44.1636 49.6348 44.3705 49.4952L48.8624 46.4946C49.0608 46.36 49.2902 46.2778 49.529 46.2559C49.7677 46.2339 50.0082 46.2727 50.2279 46.3688L58.6367 49.9803C58.9241 50.0999 59.1642 50.3107 59.3201 50.5801C59.4759 50.8496 59.5388 51.1628 59.4992 51.4716C59.2327 53.5518 58.2173 55.4636 56.6431 56.8492C55.0689 58.2349 53.0438 58.9995 50.9466 59C44.4658 59 38.2505 56.4255 33.6678 51.8429C29.0852 47.2603 26.5107 41.0449 26.5107 34.5641C26.5112 32.4669 27.2758 30.4418 28.6615 28.8676C30.0472 27.2934 31.959 26.2781 34.0391 26.0116C34.3479 25.9719 34.6611 26.0348 34.9306 26.1907C35.2001 26.3465 35.4108 26.5866 35.5305 26.874L39.1419 35.3008C39.2358 35.517 39.2751 35.753 39.2563 35.988C39.2375 36.223 39.1612 36.4498 39.0341 36.6484L36.0335 41.2121C35.9 41.4185 35.8216 41.6558 35.8058 41.9011C35.7901 42.1465 35.8376 42.3918 35.9437 42.6136Z" stroke="#0152A8" stroke-width="2" stroke-linecap="round" stroke-linejoin="round"/>
</svg>
