<svg width="36" height="33" viewBox="0 0 36 33" fill="none" xmlns="http://www.w3.org/2000/svg">
<ellipse cx="17.8023" cy="16.5" rx="17.2079" ry="16.0005" fill="#095FBA"/>
<path d="M13.5263 16.7107C14.1189 17.851 15.1084 18.7707 16.3337 19.3199C16.4241 19.3598 16.524 19.3771 16.6238 19.37C16.7235 19.3629 16.8195 19.3318 16.9024 19.2797L18.702 18.1595C18.7815 18.1093 18.8734 18.0786 18.969 18.0704C19.0647 18.0622 19.1611 18.0767 19.2491 18.1126L22.618 19.4608C22.7331 19.5054 22.8293 19.5841 22.8917 19.6847C22.9542 19.7853 22.9794 19.9022 22.9635 20.0175C22.8567 20.794 22.4499 21.5077 21.8193 22.025C21.1886 22.5423 20.3772 22.8277 19.537 22.8279C16.9406 22.8279 14.4505 21.8668 12.6145 20.1561C10.7785 18.4454 9.74707 16.1251 9.74707 13.7058C9.74726 12.9229 10.0536 12.1669 10.6087 11.5793C11.1639 10.9916 11.9298 10.6126 12.7632 10.5131C12.8869 10.4983 13.0124 10.5218 13.1204 10.58C13.2283 10.6381 13.3128 10.7278 13.3607 10.8351L14.8076 13.9808C14.8452 14.0616 14.861 14.1497 14.8534 14.2374C14.8459 14.3251 14.8153 14.4098 14.7644 14.4839L13.5623 16.1876C13.5088 16.2646 13.4773 16.3532 13.471 16.4448C13.4647 16.5364 13.4838 16.6279 13.5263 16.7107V16.7107Z" stroke="white" stroke-linecap="round" stroke-linejoin="round"/>
</svg>
