<svg width="86" height="85" viewBox="0 0 86 85" fill="none" xmlns="http://www.w3.org/2000/svg">
<circle cx="42.6855" cy="42.5" r="42.5" fill="#E6ECF2"/>
<path d="M49.5605 42.4964C49.5605 46.2933 46.4825 49.3714 42.6856 49.3714C38.8886 49.3714 35.8106 46.2933 35.8106 42.4964C35.8106 38.6994 38.8886 35.6214 42.6856 35.6214C46.4825 35.6214 49.5605 38.6994 49.5605 42.4964ZM49.5605 42.4964C49.5605 46.2948 50.9355 49.3714 54.373 49.3714C57.8105 49.3714 59.1855 46.2948 59.1855 42.4964C59.1847 38.8202 57.9562 35.2495 55.6949 32.351C53.4336 29.4525 50.2692 27.3922 46.7037 26.497C43.1381 25.6017 39.3757 25.9229 36.0135 27.4094C32.6512 28.896 29.8817 31.4628 28.1444 34.7025C26.4071 37.9423 25.8014 41.6695 26.4236 45.2927C27.0457 48.9159 28.8601 52.2275 31.5786 54.7021C34.2972 57.1768 37.7644 58.6726 41.4299 58.9524C45.0955 59.2321 48.7495 58.2798 51.8121 56.2464M49.5605 42.4964V35.6214" stroke="#0152A8" stroke-width="2" stroke-linecap="round" stroke-linejoin="round"/>
</svg>
