<svg width="36" height="35" viewBox="0 0 36 35" fill="none" xmlns="http://www.w3.org/2000/svg">
<ellipse cx="17.9745" cy="17.312" rx="17.3361" ry="17.312" fill="#085FBA"/>
<path d="M17.9755 20.1927C19.5694 20.1927 20.8615 18.9024 20.8615 17.3107C20.8615 15.719 19.5694 14.4287 17.9755 14.4287C16.3816 14.4287 15.0895 15.719 15.0895 17.3107C15.0895 18.9024 16.3816 20.1927 17.9755 20.1927Z" stroke="white" stroke-linecap="round" stroke-linejoin="round"/>
<path d="M21.8062 23.0746C20.5206 23.927 18.9867 24.3262 17.448 24.209C15.9093 24.0917 14.4538 23.4646 13.3126 22.4273C12.1714 21.3899 11.4098 20.0017 11.1486 18.4828C10.8875 16.964 11.1417 15.4016 11.871 14.0435C12.6003 12.6854 13.7629 11.6094 15.1743 10.9862C16.5857 10.3631 18.1651 10.2285 19.6618 10.6037C21.1585 10.979 22.4869 11.8427 23.4362 13.0577C24.3854 14.2728 24.9011 15.7696 24.9015 17.3106C24.9015 18.9029 24.3243 20.1926 22.8813 20.1926C21.4383 20.1926 20.8611 18.9029 20.8611 17.3106V14.4287" stroke="white" stroke-linecap="round" stroke-linejoin="round"/>
</svg>
