<svg width="55" height="56" viewBox="0 0 55 56" fill="none" xmlns="http://www.w3.org/2000/svg">
<path d="M29.9273 13.3293L10.7527 32.504C10.596 32.6614 10.472 32.8482 10.3876 33.0536C10.3032 33.259 10.2602 33.479 10.261 33.7011V44.9664H21.5264C21.7484 44.9672 21.9685 44.9242 22.1739 44.8398C22.3793 44.7555 22.566 44.6314 22.7234 44.4748L41.8981 25.3001" fill="#0FE3AF"/>
<path d="M29.9273 13.3293L10.7527 32.504C10.596 32.6614 10.472 32.8482 10.3876 33.0536C10.3032 33.259 10.2602 33.479 10.261 33.7011V44.9664H21.5264C21.7484 44.9672 21.9685 44.9242 22.1739 44.8398C22.3793 44.7555 22.566 44.6314 22.7234 44.4748L41.8981 25.3001" stroke="#0152A8" stroke-width="2" stroke-linecap="round" stroke-linejoin="round"/>
<path d="M39.333 5.63379L49.5937 15.8945" stroke="#0152A8" stroke-width="2" stroke-linecap="round" stroke-linejoin="round"/>
<path d="M27.3623 10.7639L44.4634 27.8651" stroke="#0152A8" stroke-width="2" stroke-linecap="round" stroke-linejoin="round"/>
<path d="M21.8044 21.4524L27.3623 27.0103" stroke="#0152A8" stroke-width="2" stroke-linecap="round" stroke-linejoin="round"/>
<path d="M15.8191 27.4377L21.377 32.9956" stroke="#0152A8" stroke-width="2" stroke-linecap="round" stroke-linejoin="round"/>
<path d="M35.9128 19.3145L44.4634 10.7639" stroke="#0152A8" stroke-width="2" stroke-linecap="round" stroke-linejoin="round"/>
<path d="M10.2612 44.9666L5.13086 50.0969" stroke="#0152A8" stroke-width="2" stroke-linecap="round" stroke-linejoin="round"/>
</svg>
