<svg width="23" height="22" viewBox="0 0 23 22" fill="none" xmlns="http://www.w3.org/2000/svg">
<path d="M15.8041 1.99419C17.0329 1.99772 18.2103 2.46901 19.0792 3.30512C19.9481 4.14124 20.4379 5.27424 20.4416 6.45669V15.3807C20.4379 16.5632 19.9481 17.6962 19.0792 18.5323C18.2103 19.3684 17.0329 19.8397 15.8041 19.8432H6.53021C5.30142 19.8397 4.12399 19.3684 3.2551 18.5323C2.3862 17.6962 1.89644 16.5632 1.89277 15.3807V6.45669C1.89644 5.27424 2.3862 4.14124 3.2551 3.30512C4.12399 2.46901 5.30142 1.99772 6.53021 1.99419H15.8041ZM15.8041 0.209473H6.53021C2.95947 0.209473 0.0380859 3.02065 0.0380859 6.45669V15.3807C0.0380859 18.8168 2.95947 21.6279 6.53021 21.6279H15.8041C19.3749 21.6279 22.2962 18.8168 22.2962 15.3807V6.45669C22.2962 3.02065 19.3749 0.209473 15.8041 0.209473Z" fill="#0152A8"/>
<path d="M17.1954 6.45709C16.9203 6.45709 16.6513 6.37858 16.4225 6.23149C16.1938 6.0844 16.0155 5.87533 15.9102 5.63072C15.8049 5.38611 15.7773 5.11696 15.831 4.85728C15.8847 4.59761 16.0172 4.35908 16.2117 4.17187C16.4063 3.98465 16.6542 3.85716 16.924 3.80551C17.1939 3.75386 17.4736 3.78037 17.7278 3.88168C17.982 3.983 18.1992 4.15458 18.3521 4.37472C18.505 4.59486 18.5865 4.85368 18.5865 5.11844C18.5869 5.29434 18.5512 5.46858 18.4814 5.63117C18.4117 5.79375 18.3092 5.94147 18.18 6.06586C18.0507 6.19024 17.8972 6.28883 17.7282 6.35597C17.5593 6.42311 17.3782 6.45747 17.1954 6.45709ZM11.1673 7.34921C11.9011 7.34921 12.6183 7.55858 13.2284 7.95085C13.8385 8.34312 14.314 8.90066 14.5948 9.55297C14.8756 10.2053 14.949 10.9231 14.8059 11.6156C14.6628 12.3081 14.3094 12.9442 13.7906 13.4434C13.2718 13.9427 12.6107 14.2827 11.8911 14.4204C11.1714 14.5582 10.4255 14.4875 9.74762 14.2173C9.06974 13.9471 8.49033 13.4895 8.08269 12.9025C7.67505 12.3154 7.45747 11.6252 7.45747 10.9191C7.45852 9.97263 7.84971 9.0652 8.54522 8.39593C9.24073 7.72666 10.1837 7.35022 11.1673 7.34921ZM11.1673 5.5645C10.0668 5.5645 8.99092 5.87854 8.07583 6.46691C7.16075 7.05529 6.44753 7.89156 6.02636 8.86999C5.60519 9.84842 5.495 10.9251 5.70971 11.9638C5.92442 13.0024 6.45439 13.9565 7.2326 14.7054C8.01082 15.4543 9.00232 15.9642 10.0817 16.1708C11.1612 16.3775 12.28 16.2714 13.2968 15.8661C14.3136 15.4609 15.1826 14.7745 15.7941 13.894C16.4055 13.0134 16.7319 11.9782 16.7319 10.9191C16.7319 9.49898 16.1456 8.13702 15.102 7.13283C14.0585 6.12865 12.6431 5.5645 11.1673 5.5645Z" fill="#0152A8"/>
</svg>
