<svg width="20" height="19" viewBox="0 0 20 19" fill="none" xmlns="http://www.w3.org/2000/svg">
<path d="M13.8566 2.31735C14.89 2.32032 15.8803 2.71669 16.6111 3.4199C17.3419 4.12311 17.7538 5.07602 17.7569 6.0705V13.576C17.7538 14.5705 17.3419 15.5234 16.6111 16.2266C15.8803 16.9298 14.89 17.3262 13.8566 17.3291H6.05683C5.02336 17.3262 4.0331 16.9298 3.30232 16.2266C2.57154 15.5234 2.15963 14.5705 2.15654 13.576V6.0705C2.15963 5.07602 2.57154 4.12311 3.30232 3.4199C4.0331 2.71669 5.02336 2.32032 6.05683 2.31735H13.8566ZM13.8566 0.81633H6.05683C3.05369 0.81633 0.59668 3.18065 0.59668 6.0705V13.576C0.59668 16.4658 3.05369 18.8302 6.05683 18.8302H13.8566C16.8597 18.8302 19.3167 16.4658 19.3167 13.576V6.0705C19.3167 3.18065 16.8597 0.81633 13.8566 0.81633Z" fill="#0152A8"/>
<path d="M15.0263 6.07078C14.7948 6.07078 14.5686 6.00475 14.3762 5.88103C14.1838 5.75732 14.0339 5.58149 13.9453 5.37576C13.8568 5.17004 13.8336 4.94366 13.8787 4.72527C13.9239 4.50687 14.0353 4.30626 14.1989 4.1488C14.3626 3.99135 14.571 3.88412 14.798 3.84068C15.025 3.79724 15.2602 3.81953 15.474 3.90475C15.6878 3.98996 15.8705 4.13427 15.9991 4.31941C16.1276 4.50456 16.1963 4.72224 16.1963 4.94491C16.1966 5.09285 16.1665 5.2394 16.1079 5.37614C16.0492 5.51288 15.963 5.63712 15.8543 5.74173C15.7456 5.84634 15.6165 5.92926 15.4744 5.98572C15.3323 6.04219 15.18 6.07109 15.0263 6.07078ZM9.95638 6.82108C10.5735 6.82108 11.1767 6.99717 11.6898 7.32709C12.2029 7.657 12.6029 8.12592 12.839 8.67454C13.0752 9.22317 13.137 9.82685 13.0166 10.4093C12.8962 10.9917 12.599 11.5267 12.1627 11.9466C11.7263 12.3665 11.1703 12.6524 10.5651 12.7683C9.95984 12.8841 9.33248 12.8247 8.76235 12.5974C8.19222 12.3702 7.70492 11.9853 7.36207 11.4916C7.01923 10.9978 6.83623 10.4174 6.83623 9.82352C6.83712 9.02749 7.16613 8.2643 7.75108 7.70142C8.33603 7.13854 9.12914 6.82194 9.95638 6.82108ZM9.95638 5.32007C9.03076 5.32007 8.12593 5.58419 7.35631 6.07903C6.58668 6.57388 5.98683 7.27723 5.63261 8.10013C5.27839 8.92302 5.18572 9.82852 5.36629 10.7021C5.54687 11.5757 5.9926 12.3781 6.64711 13.008C7.30162 13.6378 8.13552 14.0667 9.04336 14.2405C9.95119 14.4142 10.8922 14.325 11.7473 13.9842C12.6025 13.6433 13.3334 13.0661 13.8477 12.3255C14.3619 11.5849 14.6364 10.7142 14.6364 9.82352C14.6364 8.62913 14.1433 7.48366 13.2656 6.6391C12.388 5.79454 11.1976 5.32007 9.95638 5.32007Z" fill="#0152A8"/>
</svg>
