<svg width="24" height="22" viewBox="0 0 24 22" fill="none" xmlns="http://www.w3.org/2000/svg">
<path d="M16.7541 1.7849C17.9829 1.78843 19.1603 2.25972 20.0292 3.09583C20.8981 3.93195 21.3878 5.06495 21.3915 6.2474V15.1714C21.3878 16.3539 20.8981 17.4869 20.0292 18.323C19.1603 19.1591 17.9829 19.6304 16.7541 19.6339H7.48017C6.25137 19.6304 5.07394 19.1591 4.20505 18.323C3.33615 17.4869 2.84639 16.3539 2.84272 15.1714V6.2474C2.84639 5.06495 3.33615 3.93195 4.20505 3.09583C5.07394 2.25972 6.25137 1.78843 7.48017 1.7849H16.7541ZM16.7541 0.000183105H7.48017C3.90942 0.000183105 0.988037 2.81136 0.988037 6.2474V15.1714C0.988037 18.6075 3.90942 21.4187 7.48017 21.4187H16.7541C20.3248 21.4187 23.2462 18.6075 23.2462 15.1714V6.2474C23.2462 2.81136 20.3248 0.000183105 16.7541 0.000183105Z" fill="white"/>
<path d="M18.1454 6.24781C17.8702 6.24781 17.6013 6.1693 17.3725 6.0222C17.1437 5.87511 16.9654 5.66604 16.8601 5.42143C16.7548 5.17682 16.7273 4.90767 16.781 4.64799C16.8346 4.38832 16.9671 4.14979 17.1617 3.96258C17.3562 3.77536 17.6041 3.64787 17.874 3.59622C18.1438 3.54457 18.4235 3.57108 18.6777 3.6724C18.9319 3.77371 19.1492 3.94529 19.302 4.16543C19.4549 4.38557 19.5365 4.64439 19.5365 4.90915C19.5369 5.08505 19.5012 5.25929 19.4314 5.42188C19.3616 5.58446 19.2592 5.73219 19.1299 5.85657C19.0007 5.98095 18.8471 6.07954 18.6782 6.14668C18.5092 6.21382 18.3282 6.24818 18.1454 6.24781ZM12.1173 7.13992C12.851 7.13992 13.5683 7.34929 14.1784 7.74156C14.7884 8.13383 15.2639 8.69137 15.5447 9.34368C15.8255 9.996 15.899 10.7138 15.7558 11.4063C15.6127 12.0988 15.2594 12.7349 14.7405 13.2341C14.2217 13.7334 13.5607 14.0734 12.841 14.2111C12.1214 14.3489 11.3755 14.2782 10.6976 14.008C10.0197 13.7378 9.44029 13.2802 9.03264 12.6932C8.625 12.1061 8.40742 11.4159 8.40742 10.7098C8.40847 9.76334 8.79967 8.85591 9.49517 8.18664C10.1907 7.51737 11.1337 7.14094 12.1173 7.13992ZM12.1173 5.35521C11.0167 5.35521 9.94087 5.66925 9.02578 6.25763C8.1107 6.846 7.39748 7.68228 6.97631 8.6607C6.55515 9.63913 6.44495 10.7158 6.65966 11.7545C6.87437 12.7932 7.40434 13.7473 8.18255 14.4961C8.96077 15.245 9.95227 15.755 11.0317 15.9616C12.1111 16.1682 13.2299 16.0621 14.2467 15.6569C15.2635 15.2516 16.1326 14.5653 16.744 13.6847C17.3555 12.8041 17.6818 11.7689 17.6818 10.7098C17.6818 9.28969 17.0956 7.92773 16.052 6.92354C15.0084 5.91936 13.5931 5.35521 12.1173 5.35521Z" fill="white"/>
</svg>
