<svg width="1439" height="458" viewBox="0 0 1439 458" fill="none" xmlns="http://www.w3.org/2000/svg">
<mask id="mask0_1_174" style="mask-type:alpha" maskUnits="userSpaceOnUse" x="0" y="0" width="1440" height="458">
<rect x="0.00488281" y="0.00012207" width="1439" height="457.731" fill="#0152A8"/>
</mask>
<g mask="url(#mask0_1_174)">
<g opacity="0.27">
<path d="M1309.79 79.9539V12.7134L1250.04 -21.0441L1190.58 12.7134V79.9539L1250.04 113.711L1309.79 79.9539Z" fill="white" fill-opacity="0.5"/>
</g>
<g opacity="0.41">
<path d="M1431.8 79.95V12.7095L1372.33 -21.048L1312.59 12.7095V79.95L1372.33 113.707L1431.8 79.95Z" fill="white" fill-opacity="0.5"/>
</g>
<g opacity="0.5">
<path d="M1553.8 79.9539V12.7134L1494.33 -21.0441L1434.59 12.7134V79.9539L1494.33 113.711L1553.8 79.9539Z" fill="white" fill-opacity="0.5"/>
</g>
<g opacity="0.58">
<path d="M1492.96 183.419V115.904L1433.21 82.4211L1373.75 115.904V183.419L1433.21 216.902L1492.96 183.419Z" fill="white" fill-opacity="0.5"/>
<path d="M1370.92 182.658V115.143L1311.17 81.6597L1251.7 115.143V182.658L1311.17 216.141L1370.92 182.658Z" fill="white" fill-opacity="0.5"/>
</g>
<g opacity="0.41">
<path d="M1309.79 286.892V219.377L1250.04 185.619L1190.58 219.377V286.892L1250.04 320.375L1309.79 286.892Z" fill="white" fill-opacity="0.5"/>
</g>
<g opacity="0.5">
<path d="M1431.8 286.888V219.373L1372.33 185.615L1312.59 219.373V286.888L1372.33 320.371L1431.8 286.888Z" fill="white" fill-opacity="0.5"/>
</g>
<g opacity="0.6">
<path d="M1553.8 286.892V219.377L1494.33 185.62L1434.59 219.377V286.892L1494.33 320.375L1553.8 286.892Z" fill="white" fill-opacity="0.5"/>
</g>
<g opacity="0.31">
<path d="M1370.92 390.081V322.841L1311.18 289.084L1251.71 322.841V390.081L1311.18 423.839L1370.92 390.081Z" fill="white" fill-opacity="0.5"/>
</g>
<g opacity="0.25">
<path d="M1492.95 390.084V322.844L1433.21 289.086L1373.74 322.844V390.084L1433.21 423.842L1492.95 390.084Z" fill="white" fill-opacity="0.5"/>
<path d="M1248.96 183.721V116.481L1189.21 82.7235L1129.75 116.481V183.721L1189.21 217.479L1248.96 183.721Z" fill="white" fill-opacity="0.5"/>
</g>
<g opacity="0.31">
<path d="M112.21 395.503L112.21 462.744L171.955 496.501L231.42 462.744L231.42 395.503L171.955 361.746L112.21 395.503Z" fill="white" fill-opacity="0.5"/>
</g>
<g opacity="0.25">
<path d="M-9.79188 395.5L-9.79189 462.741L49.9535 496.498L109.418 462.741L109.418 395.5L49.9536 361.743L-9.79188 395.5Z" fill="white" fill-opacity="0.5"/>
</g>
</g>
</svg>
