<svg width="25" height="24" viewBox="0 0 25 24" fill="none" xmlns="http://www.w3.org/2000/svg">
<path d="M11.871 0.943803C12.1703 0.0224919 13.4737 0.0224941 13.7731 0.943805L15.9315 7.58677C16.0654 7.99879 16.4493 8.27775 16.8826 8.27775L23.8674 8.27775C24.8361 8.27775 25.2389 9.51737 24.4552 10.0868L18.8043 14.1923C18.4538 14.447 18.3072 14.8984 18.4411 15.3104L20.5995 21.9534C20.8988 22.8747 19.8444 23.6408 19.0607 23.0714L13.4098 18.9658C13.0593 18.7112 12.5847 18.7112 12.2342 18.9658L6.58339 23.0714C5.79968 23.6408 4.7452 22.8747 5.04455 21.9533L7.20298 15.3104C7.33686 14.8984 7.1902 14.447 6.83971 14.1923L1.18887 10.0868C0.405154 9.51737 0.807931 8.27775 1.77665 8.27775L8.76148 8.27775C9.19471 8.27775 9.57866 7.99879 9.71254 7.58677L11.871 0.943803Z" fill="#FBB837"/>
</svg>
