<svg width="25" height="24" viewBox="0 0 25 24" fill="none" xmlns="http://www.w3.org/2000/svg">
<path d="M11.2704 0.943803C11.5697 0.0224919 12.8731 0.0224941 13.1725 0.943805L15.3309 7.58677C15.4648 7.99879 15.8488 8.27775 16.282 8.27775L23.2668 8.27775C24.2355 8.27775 24.6383 9.51737 23.8546 10.0868L18.2038 14.1923C17.8533 14.447 17.7066 14.8984 17.8405 15.3104L19.9989 21.9534C20.2983 22.8747 19.2438 23.6408 18.4601 23.0714L12.8092 18.9658C12.4587 18.7112 11.9841 18.7112 11.6337 18.9658L5.98281 23.0714C5.19909 23.6408 4.14462 22.8747 4.44397 21.9533L6.6024 15.3104C6.73627 14.8984 6.58961 14.447 6.23913 14.1923L0.588281 10.0868C-0.195432 9.51737 0.207345 8.27775 1.17607 8.27775L8.1609 8.27775C8.59412 8.27775 8.97808 7.99879 9.11195 7.58677L11.2704 0.943803Z" fill="#FBB837"/>
</svg>
