<svg width="25" height="24" viewBox="0 0 25 24" fill="none" xmlns="http://www.w3.org/2000/svg">
<path d="M11.9701 0.943803C12.2694 0.0224919 13.5729 0.0224941 13.8722 0.943805L16.0306 7.58677C16.1645 7.99879 16.5485 8.27775 16.9817 8.27775L23.9665 8.27775C24.9352 8.27775 25.338 9.51737 24.5543 10.0868L18.9035 14.1923C18.553 14.447 18.4063 14.8984 18.5402 15.3104L20.6986 21.9534C20.998 22.8747 19.9435 23.6408 19.1598 23.0714L13.5089 18.9658C13.1584 18.7112 12.6838 18.7112 12.3334 18.9658L6.68252 23.0714C5.8988 23.6408 4.84432 22.8747 5.14368 21.9533L7.30211 15.3104C7.43598 14.8984 7.28932 14.447 6.93883 14.1923L1.28799 10.0868C0.504275 9.51737 0.907052 8.27775 1.87578 8.27775L8.8606 8.27775C9.29383 8.27775 9.67779 7.99879 9.81166 7.58677L11.9701 0.943803Z" fill="#FBB837"/>
</svg>
