<svg width="25" height="24" viewBox="0 0 25 24" fill="none" xmlns="http://www.w3.org/2000/svg">
<path d="M11.6698 0.943803C11.9691 0.0224919 13.2726 0.0224941 13.5719 0.943805L15.7303 7.58677C15.8642 7.99879 16.2482 8.27775 16.6814 8.27775L23.6662 8.27775C24.635 8.27775 25.0377 9.51737 24.254 10.0868L18.6032 14.1923C18.2527 14.447 18.106 14.8984 18.2399 15.3104L20.3983 21.9534C20.6977 22.8747 19.6432 23.6408 18.8595 23.0714L13.2086 18.9658C12.8582 18.7112 12.3836 18.7112 12.0331 18.9658L6.38222 23.0714C5.59851 23.6408 4.54403 22.8747 4.84338 21.9533L7.00181 15.3104C7.13569 14.8984 6.98903 14.447 6.63854 14.1923L0.987695 10.0868C0.203982 9.51737 0.606759 8.27775 1.57548 8.27775L8.56031 8.27775C8.99354 8.27775 9.37749 7.99879 9.51137 7.58677L11.6698 0.943803Z" fill="#FBB837"/>
</svg>
