<svg width="25" height="24" viewBox="0 0 25 24" fill="none" xmlns="http://www.w3.org/2000/svg">
<path d="M11.5707 0.943803C11.87 0.0224919 13.1734 0.0224941 13.4728 0.943805L15.6312 7.58677C15.7651 7.99879 16.149 8.27775 16.5823 8.27775L23.5671 8.27775C24.5358 8.27775 24.9386 9.51737 24.1549 10.0868L18.504 14.1923C18.1536 14.447 18.0069 14.8984 18.1408 15.3104L20.2992 21.9534C20.5986 22.8747 19.5441 23.6408 18.7604 23.0714L13.1095 18.9658C12.759 18.7112 12.2844 18.7112 11.9339 18.9658L6.2831 23.0714C5.49939 23.6408 4.44491 22.8747 4.74426 21.9533L6.90269 15.3104C7.03657 14.8984 6.88991 14.447 6.53942 14.1923L0.888574 10.0868C0.104861 9.51737 0.507638 8.27775 1.47636 8.27775L8.46119 8.27775C8.89442 8.27775 9.27837 7.99879 9.41225 7.58677L11.5707 0.943803Z" fill="#FBB837"/>
</svg>
