<svg width="22" height="18" viewBox="0 0 22 18" fill="none" xmlns="http://www.w3.org/2000/svg">
<path d="M21.7172 2.16097C20.9117 2.51067 20.0596 2.74107 19.1876 2.84487C20.104 2.30864 20.7931 1.45676 21.1258 0.448979C20.2594 0.955241 19.3131 1.31046 18.3274 1.49942C17.9123 1.06473 17.4132 0.718921 16.8602 0.483016C16.3072 0.247111 15.712 0.126033 15.1108 0.127144C12.6765 0.127144 10.7065 2.0671 10.7065 4.45852C10.7048 4.79115 10.7429 5.1228 10.8201 5.44637C9.07458 5.3646 7.36533 4.91963 5.80172 4.13992C4.23812 3.36022 2.8546 2.26295 1.73967 0.918323C1.34853 1.57725 1.14167 2.32906 1.14072 3.09518C1.14072 4.59708 1.92486 5.92466 3.1089 6.70243C2.40739 6.68579 1.72026 6.50025 1.10583 6.16156V6.2152C1.10583 8.31607 2.6267 10.0638 4.63961 10.4616C4.26108 10.5625 3.87102 10.6136 3.47928 10.6136C3.20131 10.6141 2.92397 10.5872 2.6513 10.5332C3.21089 12.2541 4.83956 13.5057 6.76882 13.5414C5.20116 14.7487 3.27647 15.4013 1.29728 15.3965C0.945969 15.3959 0.594983 15.375 0.246094 15.3339C2.25953 16.6186 4.6 17.2982 6.9889 17.2917C15.1014 17.2917 19.5334 10.6896 19.5334 4.96362C19.5334 4.77588 19.5284 4.58814 19.5195 4.40488C20.3797 3.79342 21.1239 3.03355 21.7172 2.16097Z" fill="white"/>
</svg>
