<svg width="23" height="19" viewBox="0 0 23 19" fill="none" xmlns="http://www.w3.org/2000/svg">
<path d="M22.0228 2.95156C21.2174 3.30126 20.3652 3.53166 19.4933 3.63546C20.4097 3.09923 21.0988 2.24735 21.4315 1.23957C20.5651 1.74583 19.6188 2.10105 18.6331 2.29C18.218 1.85532 17.7188 1.50951 17.1659 1.2736C16.6129 1.0377 16.0177 0.916622 15.4164 0.917732C12.9822 0.917732 11.0122 2.85769 11.0122 5.2491C11.0105 5.58174 11.0486 5.91339 11.1258 6.23696C9.38025 6.15519 7.67099 5.71022 6.10739 4.93051C4.54378 4.15081 3.16026 3.05354 2.04534 1.70891C1.6542 2.36783 1.44734 3.11964 1.44639 3.88577C1.44639 5.38767 2.23053 6.71525 3.41457 7.49301C2.71306 7.47638 2.02592 7.29084 1.41149 6.95215V7.00579C1.41149 9.10666 2.93236 10.8544 4.94527 11.2522C4.56675 11.3531 4.17668 11.4042 3.78494 11.4042C3.50697 11.4047 3.22963 11.3777 2.95696 11.3238C3.51655 13.0447 5.14522 14.2963 7.07449 14.332C5.50682 15.5393 3.58214 16.1918 1.60295 16.187C1.25163 16.1865 0.900647 16.1656 0.551758 16.1245C2.5652 17.4092 4.90566 18.0888 7.29456 18.0823C15.407 18.0823 19.839 11.4802 19.839 5.75421C19.839 5.56647 19.8341 5.37873 19.8252 5.19547C20.6854 4.584 21.4296 3.82414 22.0228 2.95156Z" fill="#0152A8"/>
</svg>
