<svg width="19" height="16" viewBox="0 0 19 16" fill="none" xmlns="http://www.w3.org/2000/svg">
<path d="M18.7192 2.3157C18.0418 2.60982 17.3251 2.80359 16.5917 2.89089C17.3625 2.4399 17.9421 1.72343 18.2218 0.875847C17.4932 1.30163 16.6973 1.60039 15.8683 1.75931C15.5192 1.39372 15.0994 1.10288 14.6343 0.904473C14.1692 0.706067 13.6686 0.604236 13.163 0.60517C11.1156 0.60517 9.45879 2.23675 9.45879 4.24804C9.45734 4.5278 9.48942 4.80673 9.55435 5.07887C8.08626 5.01009 6.64871 4.63585 5.33365 3.98009C4.01859 3.32432 2.85499 2.40147 1.9173 1.27059C1.58833 1.82477 1.41435 2.45707 1.41355 3.10142C1.41355 4.36458 2.07305 5.48112 3.06887 6.13526C2.47888 6.12127 1.90097 5.96522 1.38421 5.68037V5.72548C1.38421 7.4924 2.66332 8.96233 4.35626 9.29692C4.03791 9.38173 3.70985 9.4247 3.38038 9.42474C3.14659 9.42515 2.91334 9.40248 2.68401 9.35707C3.15465 10.8044 4.52443 11.8571 6.14702 11.8872C4.82855 12.9025 3.20981 13.4513 1.54523 13.4473C1.24976 13.4469 0.954563 13.4293 0.661133 13.3947C2.35452 14.4752 4.32295 15.0468 6.33212 15.0413C13.1551 15.0413 16.8825 9.48865 16.8825 4.67285C16.8825 4.51495 16.8784 4.35706 16.8709 4.20292C17.5944 3.68866 18.2203 3.04958 18.7192 2.3157Z" fill="#0152A8"/>
</svg>
