<svg width="23" height="18" viewBox="0 0 23 18" fill="none" xmlns="http://www.w3.org/2000/svg">
<path d="M22.3915 2.2433C21.5861 2.59301 20.7339 2.8234 19.8619 2.9272C20.7783 2.39098 21.4675 1.53909 21.8001 0.531316C20.9337 1.03758 19.9874 1.39279 19.0017 1.58175C18.5867 1.14706 18.0875 0.801258 17.5345 0.565352C16.9815 0.329447 16.3863 0.20837 15.7851 0.20948C13.3508 0.20948 11.3808 2.14943 11.3808 4.54085C11.3791 4.87349 11.4173 5.20514 11.4945 5.52871C9.7489 5.44694 8.03964 5.00196 6.47604 4.22226C4.91243 3.44256 3.52891 2.34529 2.41399 1.00066C2.02285 1.65958 1.81599 2.41139 1.81504 3.17752C1.81504 4.67942 2.59918 6.00699 3.78322 6.78476C3.08171 6.76813 2.39457 6.58259 1.78015 6.2439V6.29754C1.78015 8.39841 3.30101 10.1462 5.31393 10.544C4.9354 10.6448 4.54534 10.6959 4.15359 10.696C3.87562 10.6964 3.59828 10.6695 3.32562 10.6155C3.88521 12.3364 5.51388 13.588 7.44314 13.6238C5.87547 14.8311 3.95079 15.4836 1.9716 15.4788C1.62029 15.4783 1.2693 15.4574 0.92041 15.4162C2.93385 16.701 5.27431 17.3806 7.66322 17.3741C15.7757 17.3741 20.2077 10.7719 20.2077 5.04596C20.2077 4.85822 20.2028 4.67048 20.1938 4.48721C21.054 3.87575 21.7982 3.11589 22.3915 2.2433Z" fill="#0152A8"/>
</svg>
