<svg width="23" height="18" viewBox="0 0 23 18" fill="none" xmlns="http://www.w3.org/2000/svg">
<path d="M22.088 2.15859C21.2826 2.50829 20.4304 2.73869 19.5584 2.84249C20.4748 2.30626 21.164 1.45438 21.4967 0.446599C20.6302 0.952861 19.6839 1.30808 18.6983 1.49704C18.2832 1.06235 17.784 0.716541 17.231 0.480635C16.6781 0.24473 16.0829 0.123653 15.4816 0.124763C13.0473 0.124763 11.0774 2.06472 11.0774 4.45614C11.0756 4.78877 11.1138 5.12042 11.191 5.44399C9.44543 5.36222 7.73618 4.91725 6.17257 4.13754C4.60897 3.35784 3.22545 2.26057 2.11052 0.915943C1.71938 1.57487 1.51252 2.32668 1.51157 3.0928C1.51157 4.5947 2.29571 5.92228 3.47975 6.70005C2.77824 6.68341 2.09111 6.49787 1.47668 6.15918V6.21282C1.47668 8.31369 2.99755 10.0614 5.01046 10.4593C4.63193 10.5601 4.24187 10.6112 3.85013 10.6112C3.57216 10.6117 3.29482 10.5848 3.02215 10.5308C3.58174 12.2517 5.21041 13.5033 7.13967 13.5391C5.57201 14.7464 3.64732 15.3989 1.66813 15.3941C1.31682 15.3936 0.965833 15.3727 0.616943 15.3315C2.63038 16.6163 4.97085 17.2958 7.35975 17.2893C15.4722 17.2893 19.9042 10.6872 19.9042 4.96124C19.9042 4.7735 19.8993 4.58576 19.8903 4.4025C20.7506 3.79103 21.4948 3.03117 22.088 2.15859Z" fill="white"/>
</svg>
