<svg width="22" height="23" viewBox="0 0 22 23" fill="none" xmlns="http://www.w3.org/2000/svg">
<path d="M11 0.724854C8.82441 0.724854 6.69767 1.36999 4.88873 2.57869C3.07979 3.78738 1.66989 5.50535 0.83733 7.51533C0.00476613 9.52532 -0.213071 11.7371 0.211367 13.8708C0.635804 16.0046 1.68345 17.9646 3.22183 19.503C4.76021 21.0414 6.72022 22.089 8.85401 22.5135C10.9878 22.9379 13.1995 22.7201 15.2095 21.8875C17.2195 21.055 18.9375 19.6451 20.1462 17.8361C21.3549 16.0272 22 13.9004 22 11.7249C21.9944 8.80919 20.8337 6.01454 18.772 3.95285C16.7103 1.89117 13.9157 0.730444 11 0.724854ZM15.4317 11.0268L11.624 15.2575C11.5448 15.3441 11.4483 15.4132 11.3409 15.4605C11.2335 15.5078 11.1174 15.5322 11 15.5322C10.8826 15.5322 10.7665 15.5078 10.6591 15.4605C10.5517 15.4132 10.4552 15.3441 10.376 15.2575L6.56827 11.0268C6.42247 10.8604 6.34764 10.6435 6.35981 10.4226C6.37198 10.2017 6.47019 9.99432 6.63339 9.84495C6.7966 9.69558 7.01181 9.61607 7.23293 9.62345C7.45405 9.63084 7.66348 9.72454 7.81635 9.88447L11 13.4172L14.1837 9.88447C14.2579 9.79973 14.3483 9.73068 14.4496 9.68136C14.5509 9.63203 14.661 9.60343 14.7735 9.59723C14.886 9.59104 14.9986 9.60736 15.1047 9.64526C15.2108 9.68316 15.3082 9.74186 15.3913 9.81792C15.4745 9.89399 15.5415 9.98588 15.5887 10.0882C15.6358 10.1905 15.662 10.3013 15.6657 10.4139C15.6695 10.5265 15.6507 10.6387 15.6106 10.7439C15.5704 10.8492 15.5096 10.9453 15.4317 11.0268Z" fill="#B9B9B9"/>
</svg>
