<svg width="20" height="21" viewBox="0 0 20 21" fill="none" xmlns="http://www.w3.org/2000/svg">
<path d="M18.6553 8.2717C18.3193 7.92684 17.9744 7.5643 17.8418 7.25481C17.7092 6.94533 17.718 6.48552 17.7092 6.01687C17.7003 5.15915 17.6826 4.17764 17.0018 3.49677C16.3209 2.8159 15.3394 2.79821 14.4817 2.78937C14.013 2.78053 13.5355 2.77168 13.2437 2.65673C12.9519 2.54178 12.5717 2.17924 12.2268 1.84322C11.6167 1.25962 10.9182 0.596436 9.99854 0.596436C9.07892 0.596436 8.38036 1.25962 7.77023 1.84322C7.42538 2.17924 7.06284 2.52409 6.75335 2.65673C6.44386 2.78937 5.98406 2.78053 5.5154 2.78937C4.65768 2.79821 3.67617 2.8159 2.9953 3.49677C2.31443 4.17764 2.29675 5.15915 2.2879 6.01687C2.27906 6.48552 2.27022 6.96301 2.15527 7.25481C2.04031 7.54662 1.67777 7.92684 1.34176 8.2717C0.758156 8.88183 0.0949707 9.58038 0.0949707 10.5C0.0949707 11.4196 0.758156 12.1182 1.34176 12.7283C1.67777 13.0732 2.02263 13.4357 2.15527 13.7452C2.2879 14.0547 2.27906 14.5145 2.2879 14.9831C2.29675 15.8409 2.31443 16.8224 2.9953 17.5032C3.67617 18.1841 4.65768 18.2018 5.5154 18.2106C5.98406 18.2195 6.46155 18.2283 6.75335 18.3433C7.04515 18.4582 7.42538 18.8208 7.77023 19.1568C8.38036 19.7404 9.07892 20.4036 9.99854 20.4036C10.9182 20.4036 11.6167 19.7404 12.2268 19.1568C12.5717 18.8208 12.9342 18.4759 13.2437 18.3433C13.5532 18.2106 14.013 18.2195 14.4817 18.2106C15.3394 18.2018 16.3209 18.1841 17.0018 17.5032C17.6826 16.8224 17.7003 15.8409 17.7092 14.9831C17.718 14.5145 17.7269 14.037 17.8418 13.7452C17.9568 13.4534 18.3193 13.0732 18.6553 12.7283C19.2389 12.1182 19.9021 11.4196 19.9021 10.5C19.9021 9.58038 19.2389 8.88183 18.6553 8.2717ZM14.3756 8.89067L9.19387 13.8425C9.05991 13.9685 8.88261 14.0381 8.69869 14.037C8.51749 14.0377 8.3431 13.9679 8.21236 13.8425L5.62151 11.3666C5.54965 11.3039 5.49121 11.2273 5.4497 11.1414C5.40819 11.0556 5.38447 10.9622 5.37996 10.867C5.37545 10.7717 5.39025 10.6765 5.42347 10.5871C5.45669 10.4977 5.50764 10.416 5.57326 10.3468C5.63888 10.2776 5.71782 10.2223 5.80532 10.1844C5.89283 10.1465 5.9871 10.1267 6.08246 10.1261C6.17782 10.1256 6.27232 10.1443 6.36026 10.1812C6.44819 10.2181 6.52777 10.2724 6.59418 10.3408L8.69869 12.3481L13.4029 7.86494C13.5404 7.74494 13.719 7.68275 13.9014 7.69138C14.0837 7.70001 14.2556 7.77878 14.3812 7.91123C14.5068 8.04369 14.5764 8.21956 14.5753 8.4021C14.5743 8.58463 14.5027 8.75969 14.3756 8.89067Z" fill="#0FE3AF"/>
</svg>
