<svg width="24" height="25" viewBox="0 0 24 25" fill="none" xmlns="http://www.w3.org/2000/svg">
<path d="M15.3022 2.64292C16.9276 3.07914 18.4096 3.93521 19.5996 5.12521C20.7896 6.31521 21.6457 7.79728 22.0819 9.42268M14.308 6.34424C15.2855 6.60387 16.1771 7.1173 16.8923 7.83252C17.6076 8.54773 18.121 9.43931 18.3806 10.4169M7.28864 12.8006C8.27473 14.8369 9.92134 16.4793 11.9602 17.4602C12.1106 17.5314 12.277 17.5622 12.4429 17.5496C12.6088 17.537 12.7686 17.4814 12.9065 17.3883L15.9011 15.3879C16.0334 15.2982 16.1863 15.2434 16.3455 15.2288C16.5047 15.2141 16.665 15.24 16.8114 15.3041L22.4173 17.7117C22.6089 17.7915 22.769 17.932 22.8729 18.1116C22.9768 18.2913 23.0187 18.5001 22.9923 18.7059C22.8146 20.0927 22.1377 21.3672 21.0883 22.291C20.0388 23.2148 18.6887 23.7245 17.2906 23.7249C12.9701 23.7249 8.82648 22.0085 5.7714 18.9535C2.71632 15.8984 1 11.7548 1 7.43427C1.00032 6.03615 1.51006 4.68605 2.43384 3.6366C3.35763 2.58714 4.63215 1.91024 6.01894 1.73257C6.22477 1.70613 6.43359 1.74808 6.61324 1.85198C6.79288 1.95587 6.9334 2.11593 7.01314 2.30753L9.42079 7.92538C9.4834 8.06954 9.5096 8.22688 9.49706 8.38355C9.48453 8.54022 9.43366 8.69139 9.34892 8.82376L7.34854 11.8663C7.25948 12.0039 7.20721 12.162 7.19672 12.3256C7.18624 12.4892 7.21788 12.6527 7.28864 12.8006Z" stroke="#B9B9B9" stroke-width="1.5" stroke-linecap="round" stroke-linejoin="round"/>
</svg>
