<svg width="16" height="16" viewBox="0 0 16 16" fill="none" xmlns="http://www.w3.org/2000/svg">
<path d="M15.2489 11.5763C15.0712 11.387 14.4436 10.8271 13.2898 10.0864C12.1275 9.33929 11.2704 8.87343 11.0245 8.7648C11.0029 8.75519 10.979 8.75166 10.9555 8.7546C10.9319 8.75754 10.9097 8.76684 10.891 8.78149C10.495 9.09035 9.82821 9.65769 9.79245 9.68834C9.56156 9.8862 9.56156 9.8862 9.37256 9.82456C9.04019 9.71558 8.00767 9.16732 7.10796 8.26557C6.20825 7.36382 5.63171 6.30577 5.52274 5.97374C5.46042 5.7844 5.46042 5.7844 5.65896 5.55352C5.68961 5.51776 6.25729 4.85099 6.56616 4.45528C6.58081 4.43664 6.5901 4.41437 6.59304 4.39085C6.59598 4.36733 6.59246 4.34345 6.58285 4.32179C6.47421 4.07558 6.00835 3.21878 5.2612 2.05652C4.51951 0.903116 3.96034 0.275503 3.77099 0.0977413C3.75362 0.0813454 3.73214 0.0699394 3.70883 0.0647253C3.68552 0.0595113 3.66123 0.0606821 3.63852 0.0681144C2.97667 0.295555 2.33809 0.585767 1.73149 0.934786C1.1459 1.2752 0.591507 1.66663 0.0747561 2.10454C0.0567175 2.11987 0.0431936 2.13983 0.0356345 2.16227C0.0280755 2.1847 0.0267665 2.20878 0.0318479 2.2319C0.103021 2.56358 0.443222 3.94822 1.4989 5.86613C2.57603 7.82355 3.3225 8.82644 4.90432 10.4028C6.48613 11.9791 7.5207 12.7706 9.48017 13.8477C11.3981 14.9034 12.7834 15.2439 13.1144 15.3144C13.1376 15.3194 13.1617 15.3181 13.1842 15.3105C13.2067 15.303 13.2267 15.2895 13.2421 15.2715C13.68 14.7547 14.0713 14.2004 14.4116 13.6148C14.7605 13.0081 15.0507 12.3696 15.2782 11.7077C15.2855 11.6852 15.2866 11.6611 15.2815 11.638C15.2763 11.6149 15.2651 11.5936 15.2489 11.5763Z" fill="#0152A8"/>
</svg>
