<svg width="18" height="14" viewBox="0 0 18 14" fill="none" xmlns="http://www.w3.org/2000/svg">
<path d="M15.7072 0.250977H2.53937C1.9575 0.25158 1.39965 0.475988 0.98821 0.87496C0.576769 1.27393 0.345349 1.81488 0.344727 2.37911V11.4997C0.345349 12.0639 0.576769 12.6049 0.98821 13.0039C1.39965 13.4028 1.9575 13.6272 2.53937 13.6278H15.7072C16.2891 13.6272 16.8469 13.4028 17.2584 13.0039C17.6698 12.6049 17.9012 12.0639 17.9019 11.4997V2.37911C17.9012 1.81488 17.6698 1.27393 17.2584 0.87496C16.8469 0.475988 16.2891 0.25158 15.7072 0.250977ZM15.1515 3.77114L9.50814 8.02742C9.39809 8.11037 9.26268 8.15541 9.12329 8.15541C8.9839 8.15541 8.84849 8.11037 8.73845 8.02742L3.09508 3.77114C3.02878 3.72259 2.97309 3.66174 2.93124 3.59213C2.8894 3.52253 2.86224 3.44555 2.85134 3.36568C2.84044 3.28581 2.84602 3.20463 2.86775 3.12687C2.88949 3.0491 2.92694 2.9763 2.97794 2.9127C3.02894 2.84909 3.09247 2.79595 3.16483 2.75636C3.2372 2.71677 3.31695 2.69152 3.39946 2.68207C3.48198 2.67263 3.56561 2.67918 3.64549 2.70135C3.72537 2.72352 3.79991 2.76086 3.86477 2.8112L9.12329 6.77714L14.3818 2.8112C14.5133 2.71491 14.6786 2.67268 14.8419 2.69364C15.0053 2.7146 15.1536 2.79706 15.2547 2.9232C15.3558 3.04934 15.4017 3.20902 15.3824 3.36769C15.3631 3.52637 15.2801 3.6713 15.1515 3.77114Z" fill="#0152A8"/>
</svg>
