<svg width="14" height="15" viewBox="0 0 14 15" fill="none" xmlns="http://www.w3.org/2000/svg">
<path d="M7 0.38501C5.61553 0.38501 4.26216 0.795553 3.11101 1.56472C1.95987 2.33389 1.06266 3.42714 0.532846 4.70622C0.00303299 5.98531 -0.13559 7.39277 0.134506 8.75064C0.404603 10.1085 1.07129 11.3558 2.05026 12.3348C3.02922 13.3137 4.2765 13.9804 5.63437 14.2505C6.99224 14.5206 8.3997 14.382 9.67879 13.8522C10.9579 13.3224 12.0511 12.4251 12.8203 11.274C13.5895 10.1229 14 8.76948 14 7.38501C13.9964 5.52959 13.2578 3.75118 11.9458 2.43919C10.6338 1.12721 8.85542 0.388568 7 0.38501ZM9.82019 6.94078L7.39712 9.63308C7.34667 9.68817 7.28531 9.73217 7.21695 9.76226C7.14858 9.79236 7.0747 9.8079 7 9.8079C6.9253 9.8079 6.85142 9.79236 6.78306 9.76226C6.71469 9.73217 6.65333 9.68817 6.60289 9.63308L4.17981 6.94078C4.08703 6.83489 4.0394 6.69687 4.04715 6.55629C4.0549 6.41571 4.11739 6.28376 4.22125 6.18871C4.32511 6.09365 4.46206 6.04305 4.60277 6.04775C4.74348 6.05246 4.87676 6.11208 4.97404 6.21385L7 8.46193L9.02596 6.21385C9.07321 6.15993 9.13075 6.11599 9.19521 6.0846C9.25966 6.05322 9.32974 6.03502 9.40133 6.03107C9.47291 6.02713 9.54456 6.03752 9.61207 6.06163C9.67959 6.08575 9.74161 6.1231 9.7945 6.17151C9.84738 6.21991 9.89007 6.27839 9.92005 6.34351C9.95004 6.40863 9.96672 6.47909 9.96911 6.55074C9.97151 6.62239 9.95956 6.6938 9.93399 6.76078C9.90842 6.82776 9.86973 6.88895 9.82019 6.94078Z" fill="#B9B9B9"/>
</svg>
